%TF.GenerationSoftware,KiCad,Pcbnew,9.0.0*%
%TF.CreationDate,2025-03-31T21:15:32-05:00*%
%TF.ProjectId,Boat_Volt_Reg,426f6174-5f56-46f6-9c74-5f5265672e6b,rev?*%
%TF.SameCoordinates,Original*%
%TF.FileFunction,Copper,L2,Bot*%
%TF.FilePolarity,Positive*%
%FSLAX46Y46*%
G04 Gerber Fmt 4.6, Leading zero omitted, Abs format (unit mm)*
G04 Created by KiCad (PCBNEW 9.0.0) date 2025-03-31 21:15:32*
%MOMM*%
%LPD*%
G01*
G04 APERTURE LIST*
%TA.AperFunction,ComponentPad*%
%ADD10R,2.500000X2.500000*%
%TD*%
%TA.AperFunction,ComponentPad*%
%ADD11C,2.500000*%
%TD*%
%TA.AperFunction,ComponentPad*%
%ADD12C,3.800000*%
%TD*%
%TA.AperFunction,ViaPad*%
%ADD13C,0.600000*%
%TD*%
%TA.AperFunction,Conductor*%
%ADD14C,0.200000*%
%TD*%
G04 APERTURE END LIST*
D10*
%TO.P,J2,1*%
%TO.N,+5V*%
X42000000Y-35000000D03*
D11*
%TO.P,J2,2*%
%TO.N,GND*%
X42000000Y-30000000D03*
%TD*%
%TO.P,J1,2*%
%TO.N,GND*%
X71000000Y-49000000D03*
D10*
%TO.P,J1,1*%
%TO.N,+12V*%
X66000000Y-49000000D03*
%TD*%
D12*
%TO.P,REF\u002A\u002A,1*%
%TO.N,N/C*%
X77500000Y-50500000D03*
%TD*%
%TO.P,REF\u002A\u002A,1*%
%TO.N,N/C*%
X77500000Y-27500000D03*
%TD*%
%TO.P,REF\u002A\u002A,1*%
%TO.N,N/C*%
X39000000Y-50500000D03*
%TD*%
D13*
%TO.N,+5V*%
X78500000Y-35000000D03*
X51000000Y-36000000D03*
%TO.N,Net-(U1-SW)*%
X69500000Y-30500000D03*
X64000000Y-33000000D03*
%TO.N,+12V*%
X71500000Y-34500000D03*
X66000000Y-41000000D03*
%TD*%
D14*
%TO.N,+5V*%
X58500000Y-28500000D02*
X51000000Y-36000000D01*
X78500000Y-33000000D02*
X74000000Y-28500000D01*
X74000000Y-28500000D02*
X58500000Y-28500000D01*
X78500000Y-35000000D02*
X78500000Y-33000000D01*
%TO.N,Net-(U1-SW)*%
X64000000Y-33000000D02*
X65500000Y-33000000D01*
X68000000Y-30500000D02*
X69500000Y-30500000D01*
X65500000Y-33000000D02*
X68000000Y-30500000D01*
%TO.N,+12V*%
X71500000Y-34500000D02*
X66000000Y-40000000D01*
X66000000Y-40000000D02*
X66000000Y-41000000D01*
%TD*%
%TA.AperFunction,Conductor*%
%TO.N,GND*%
G36*
X76577611Y-25070185D02*
G01*
X76623366Y-25122989D01*
X76633310Y-25192147D01*
X76604285Y-25255703D01*
X76564373Y-25286220D01*
X76337008Y-25395712D01*
X76108712Y-25539161D01*
X75897915Y-25707265D01*
X75707265Y-25897915D01*
X75539161Y-26108712D01*
X75395714Y-26337005D01*
X75278734Y-26579917D01*
X75189687Y-26834397D01*
X75189684Y-26834405D01*
X75129688Y-27097268D01*
X75129686Y-27097280D01*
X75099500Y-27365186D01*
X75099500Y-27634813D01*
X75129686Y-27902719D01*
X75129687Y-27902728D01*
X75129688Y-27902732D01*
X75144687Y-27968446D01*
X75189684Y-28165594D01*
X75189687Y-28165602D01*
X75278734Y-28420082D01*
X75395714Y-28662994D01*
X75458534Y-28762971D01*
X75477534Y-28830208D01*
X75457166Y-28897043D01*
X75403898Y-28942257D01*
X75334642Y-28951494D01*
X75271386Y-28921823D01*
X75265859Y-28916624D01*
X74487590Y-28138355D01*
X74487588Y-28138352D01*
X74368717Y-28019481D01*
X74368716Y-28019480D01*
X74281904Y-27969360D01*
X74281904Y-27969359D01*
X74281900Y-27969358D01*
X74231785Y-27940423D01*
X74079057Y-27899499D01*
X73920943Y-27899499D01*
X73913347Y-27899499D01*
X73913331Y-27899500D01*
X58586670Y-27899500D01*
X58586654Y-27899499D01*
X58579058Y-27899499D01*
X58420943Y-27899499D01*
X58344579Y-27919961D01*
X58268214Y-27940423D01*
X58268209Y-27940426D01*
X58131290Y-28019475D01*
X58131282Y-28019481D01*
X51083528Y-35067235D01*
X51048390Y-35091872D01*
X50648668Y-35278864D01*
X50648621Y-35278887D01*
X50644836Y-35280658D01*
X50620821Y-35290606D01*
X50609243Y-35298341D01*
X50602279Y-35301923D01*
X50602204Y-35301961D01*
X50597707Y-35304275D01*
X50596191Y-35305128D01*
X50515799Y-35360446D01*
X50512423Y-35363034D01*
X50489714Y-35378208D01*
X50378209Y-35489712D01*
X50290609Y-35620814D01*
X50290602Y-35620827D01*
X50230264Y-35766498D01*
X50230261Y-35766510D01*
X50199500Y-35921153D01*
X50199500Y-36078846D01*
X50230261Y-36233489D01*
X50230264Y-36233501D01*
X50290602Y-36379172D01*
X50290609Y-36379185D01*
X50378210Y-36510288D01*
X50378213Y-36510292D01*
X50489707Y-36621786D01*
X50489711Y-36621789D01*
X50620814Y-36709390D01*
X50620827Y-36709397D01*
X50720060Y-36750500D01*
X50766503Y-36769737D01*
X50921153Y-36800499D01*
X50921156Y-36800500D01*
X50921158Y-36800500D01*
X51078844Y-36800500D01*
X51078845Y-36800499D01*
X51233497Y-36769737D01*
X51379179Y-36709394D01*
X51510289Y-36621789D01*
X51621789Y-36510289D01*
X51709394Y-36379179D01*
X51718299Y-36357678D01*
X51720510Y-36352659D01*
X51908125Y-35951608D01*
X51932757Y-35916476D01*
X54928081Y-32921153D01*
X63199500Y-32921153D01*
X63199500Y-33078846D01*
X63230261Y-33233489D01*
X63230264Y-33233501D01*
X63290602Y-33379172D01*
X63290609Y-33379185D01*
X63378210Y-33510288D01*
X63378213Y-33510292D01*
X63489707Y-33621786D01*
X63489711Y-33621789D01*
X63620814Y-33709390D01*
X63620827Y-33709397D01*
X63766498Y-33769735D01*
X63766503Y-33769737D01*
X63921153Y-33800499D01*
X63921156Y-33800500D01*
X63921158Y-33800500D01*
X64078844Y-33800500D01*
X64078845Y-33800499D01*
X64233497Y-33769737D01*
X64379179Y-33709394D01*
X64390071Y-33702116D01*
X64510875Y-33621398D01*
X64577553Y-33600520D01*
X64579766Y-33600500D01*
X65413331Y-33600500D01*
X65413347Y-33600501D01*
X65420943Y-33600501D01*
X65579054Y-33600501D01*
X65579057Y-33600501D01*
X65731785Y-33559577D01*
X65781904Y-33530639D01*
X65868716Y-33480520D01*
X65980520Y-33368716D01*
X65980520Y-33368714D01*
X65990728Y-33358507D01*
X65990729Y-33358504D01*
X68212416Y-31136819D01*
X68273739Y-31103334D01*
X68300097Y-31100500D01*
X68920234Y-31100500D01*
X68987273Y-31120185D01*
X68989125Y-31121398D01*
X69120814Y-31209390D01*
X69120827Y-31209397D01*
X69266498Y-31269735D01*
X69266503Y-31269737D01*
X69421153Y-31300499D01*
X69421156Y-31300500D01*
X69421158Y-31300500D01*
X69578844Y-31300500D01*
X69578845Y-31300499D01*
X69733497Y-31269737D01*
X69879179Y-31209394D01*
X70010289Y-31121789D01*
X70121789Y-31010289D01*
X70209394Y-30879179D01*
X70269737Y-30733497D01*
X70300500Y-30578842D01*
X70300500Y-30421158D01*
X70300500Y-30421155D01*
X70300499Y-30421153D01*
X70287052Y-30353553D01*
X70269737Y-30266503D01*
X70213728Y-30131284D01*
X70209397Y-30120827D01*
X70209390Y-30120814D01*
X70121789Y-29989711D01*
X70121786Y-29989707D01*
X70010292Y-29878213D01*
X70010288Y-29878210D01*
X69879185Y-29790609D01*
X69879172Y-29790602D01*
X69733501Y-29730264D01*
X69733489Y-29730261D01*
X69578845Y-29699500D01*
X69578842Y-29699500D01*
X69421158Y-29699500D01*
X69421155Y-29699500D01*
X69266510Y-29730261D01*
X69266498Y-29730264D01*
X69120827Y-29790602D01*
X69120814Y-29790609D01*
X68989125Y-29878602D01*
X68922447Y-29899480D01*
X68920234Y-29899500D01*
X68086669Y-29899500D01*
X68086653Y-29899499D01*
X68079057Y-29899499D01*
X67920943Y-29899499D01*
X67813587Y-29928265D01*
X67768210Y-29940424D01*
X67768209Y-29940425D01*
X67718096Y-29969359D01*
X67718095Y-29969360D01*
X67682853Y-29989707D01*
X67631285Y-30019479D01*
X67631282Y-30019481D01*
X67519478Y-30131286D01*
X65287584Y-32363181D01*
X65226261Y-32396666D01*
X65199903Y-32399500D01*
X64579766Y-32399500D01*
X64512727Y-32379815D01*
X64510875Y-32378602D01*
X64379185Y-32290609D01*
X64379172Y-32290602D01*
X64233501Y-32230264D01*
X64233489Y-32230261D01*
X64078845Y-32199500D01*
X64078842Y-32199500D01*
X63921158Y-32199500D01*
X63921155Y-32199500D01*
X63766510Y-32230261D01*
X63766498Y-32230264D01*
X63620827Y-32290602D01*
X63620814Y-32290609D01*
X63489711Y-32378210D01*
X63489707Y-32378213D01*
X63378213Y-32489707D01*
X63378210Y-32489711D01*
X63290609Y-32620814D01*
X63290602Y-32620827D01*
X63230264Y-32766498D01*
X63230261Y-32766510D01*
X63199500Y-32921153D01*
X54928081Y-32921153D01*
X58712417Y-29136819D01*
X58773740Y-29103334D01*
X58800098Y-29100500D01*
X73699903Y-29100500D01*
X73766942Y-29120185D01*
X73787584Y-29136819D01*
X77863181Y-33212416D01*
X77896666Y-33273739D01*
X77899500Y-33300097D01*
X77899500Y-34281372D01*
X77892074Y-34323640D01*
X77741634Y-34738550D01*
X77741615Y-34738604D01*
X77740196Y-34742520D01*
X77730263Y-34766503D01*
X77727565Y-34780062D01*
X77725154Y-34787572D01*
X77725140Y-34787614D01*
X77723688Y-34792138D01*
X77723222Y-34793798D01*
X77705367Y-34890266D01*
X77704822Y-34894398D01*
X77699500Y-34921156D01*
X77699500Y-35078846D01*
X77730261Y-35233489D01*
X77730264Y-35233501D01*
X77790602Y-35379172D01*
X77790609Y-35379185D01*
X77878210Y-35510288D01*
X77878213Y-35510292D01*
X77989707Y-35621786D01*
X77989711Y-35621789D01*
X78120814Y-35709390D01*
X78120827Y-35709397D01*
X78258683Y-35766498D01*
X78266503Y-35769737D01*
X78421153Y-35800499D01*
X78421156Y-35800500D01*
X78421158Y-35800500D01*
X78578844Y-35800500D01*
X78578845Y-35800499D01*
X78733497Y-35769737D01*
X78879179Y-35709394D01*
X79010289Y-35621789D01*
X79121789Y-35510289D01*
X79209394Y-35379179D01*
X79269737Y-35233497D01*
X79300500Y-35078842D01*
X79300500Y-34921158D01*
X79300500Y-34921156D01*
X79300500Y-34921155D01*
X79300499Y-34921153D01*
X79269738Y-34766510D01*
X79269737Y-34766503D01*
X79260854Y-34745057D01*
X79258843Y-34739877D01*
X79107926Y-34323642D01*
X79100500Y-34281375D01*
X79100500Y-33089059D01*
X79100501Y-33089046D01*
X79100501Y-32920945D01*
X79100501Y-32920943D01*
X79059577Y-32768215D01*
X79030639Y-32718095D01*
X78980520Y-32631284D01*
X78868716Y-32519480D01*
X78868715Y-32519479D01*
X78864385Y-32515149D01*
X78864374Y-32515139D01*
X76083375Y-29734140D01*
X76049890Y-29672817D01*
X76054874Y-29603125D01*
X76096746Y-29547192D01*
X76162210Y-29522775D01*
X76230483Y-29537627D01*
X76237021Y-29541461D01*
X76337003Y-29604284D01*
X76579921Y-29721267D01*
X76771049Y-29788145D01*
X76834397Y-29810312D01*
X76834405Y-29810315D01*
X76834408Y-29810315D01*
X76834409Y-29810316D01*
X77097268Y-29870312D01*
X77365187Y-29900499D01*
X77365188Y-29900500D01*
X77365191Y-29900500D01*
X77634812Y-29900500D01*
X77634812Y-29900499D01*
X77902732Y-29870312D01*
X78165591Y-29810316D01*
X78420079Y-29721267D01*
X78662997Y-29604284D01*
X78891289Y-29460838D01*
X79102085Y-29292734D01*
X79292734Y-29102085D01*
X79460838Y-28891289D01*
X79604284Y-28662997D01*
X79604287Y-28662991D01*
X79713780Y-28435627D01*
X79760602Y-28383767D01*
X79828029Y-28365454D01*
X79894653Y-28386502D01*
X79939322Y-28440228D01*
X79949500Y-28489428D01*
X79949500Y-49510571D01*
X79929815Y-49577610D01*
X79877011Y-49623365D01*
X79807853Y-49633309D01*
X79744297Y-49604284D01*
X79713780Y-49564373D01*
X79604285Y-49337005D01*
X79585991Y-49307890D01*
X79460838Y-49108711D01*
X79292734Y-48897915D01*
X79102085Y-48707266D01*
X78891289Y-48539162D01*
X78662997Y-48395716D01*
X78662994Y-48395714D01*
X78420082Y-48278734D01*
X78165602Y-48189687D01*
X78165594Y-48189684D01*
X77968446Y-48144687D01*
X77902732Y-48129688D01*
X77902728Y-48129687D01*
X77902719Y-48129686D01*
X77634813Y-48099500D01*
X77634809Y-48099500D01*
X77365191Y-48099500D01*
X77365186Y-48099500D01*
X77097280Y-48129686D01*
X77097268Y-48129688D01*
X76834405Y-48189684D01*
X76834397Y-48189687D01*
X76579917Y-48278734D01*
X76337005Y-48395714D01*
X76108712Y-48539161D01*
X75897915Y-48707265D01*
X75707265Y-48897915D01*
X75539161Y-49108712D01*
X75395714Y-49337005D01*
X75278734Y-49579917D01*
X75189687Y-49834397D01*
X75189684Y-49834405D01*
X75129688Y-50097268D01*
X75129686Y-50097280D01*
X75099500Y-50365186D01*
X75099500Y-50634813D01*
X75129686Y-50902719D01*
X75129688Y-50902731D01*
X75189684Y-51165594D01*
X75189687Y-51165602D01*
X75278734Y-51420082D01*
X75395714Y-51662994D01*
X75395716Y-51662997D01*
X75539162Y-51891289D01*
X75707266Y-52102085D01*
X75897915Y-52292734D01*
X76108711Y-52460838D01*
X76337003Y-52604284D01*
X76337008Y-52604287D01*
X76564373Y-52713780D01*
X76616233Y-52760602D01*
X76634546Y-52828029D01*
X76613498Y-52894653D01*
X76559772Y-52939322D01*
X76510572Y-52949500D01*
X39989428Y-52949500D01*
X39922389Y-52929815D01*
X39876634Y-52877011D01*
X39866690Y-52807853D01*
X39895715Y-52744297D01*
X39935627Y-52713780D01*
X40162991Y-52604287D01*
X40162991Y-52604286D01*
X40162997Y-52604284D01*
X40391289Y-52460838D01*
X40602085Y-52292734D01*
X40792734Y-52102085D01*
X40960838Y-51891289D01*
X41104284Y-51662997D01*
X41221267Y-51420079D01*
X41310316Y-51165591D01*
X41370312Y-50902732D01*
X41400500Y-50634809D01*
X41400500Y-50365191D01*
X41370312Y-50097268D01*
X41310316Y-49834409D01*
X41221267Y-49579921D01*
X41104284Y-49337003D01*
X40960838Y-49108711D01*
X40792734Y-48897915D01*
X40602085Y-48707266D01*
X40391289Y-48539162D01*
X40162997Y-48395716D01*
X40162994Y-48395714D01*
X39920082Y-48278734D01*
X39665602Y-48189687D01*
X39665594Y-48189684D01*
X39468446Y-48144687D01*
X39402732Y-48129688D01*
X39402728Y-48129687D01*
X39402719Y-48129686D01*
X39134813Y-48099500D01*
X39134809Y-48099500D01*
X38865191Y-48099500D01*
X38865186Y-48099500D01*
X38597280Y-48129686D01*
X38597268Y-48129688D01*
X38334405Y-48189684D01*
X38334397Y-48189687D01*
X38079917Y-48278734D01*
X37837005Y-48395714D01*
X37608712Y-48539161D01*
X37397915Y-48707265D01*
X37207265Y-48897915D01*
X37039161Y-49108712D01*
X36895714Y-49337005D01*
X36786220Y-49564373D01*
X36739398Y-49616232D01*
X36671971Y-49634545D01*
X36605347Y-49613497D01*
X36560678Y-49559771D01*
X36550500Y-49510571D01*
X36550500Y-47702135D01*
X64249500Y-47702135D01*
X64249500Y-50297870D01*
X64249501Y-50297876D01*
X64255908Y-50357483D01*
X64306202Y-50492328D01*
X64306206Y-50492335D01*
X64392452Y-50607544D01*
X64392455Y-50607547D01*
X64507664Y-50693793D01*
X64507671Y-50693797D01*
X64642517Y-50744091D01*
X64642516Y-50744091D01*
X64649444Y-50744835D01*
X64702127Y-50750500D01*
X67297872Y-50750499D01*
X67357483Y-50744091D01*
X67492331Y-50693796D01*
X67607546Y-50607546D01*
X67693796Y-50492331D01*
X67744091Y-50357483D01*
X67750500Y-50297873D01*
X67750499Y-48885305D01*
X69250000Y-48885305D01*
X69250000Y-49114694D01*
X69250001Y-49114710D01*
X69279942Y-49342137D01*
X69339318Y-49563730D01*
X69427102Y-49775659D01*
X69427106Y-49775669D01*
X69541799Y-49974324D01*
X69541805Y-49974331D01*
X69598381Y-50048064D01*
X70398958Y-49247487D01*
X70423978Y-49307890D01*
X70495112Y-49414351D01*
X70585649Y-49504888D01*
X70692110Y-49576022D01*
X70752511Y-49601041D01*
X69951934Y-50401617D01*
X69951934Y-50401618D01*
X70025666Y-50458194D01*
X70224330Y-50572893D01*
X70224340Y-50572897D01*
X70436269Y-50660681D01*
X70657862Y-50720057D01*
X70885289Y-50749998D01*
X70885306Y-50750000D01*
X71114694Y-50750000D01*
X71114710Y-50749998D01*
X71342137Y-50720057D01*
X71563730Y-50660681D01*
X71775659Y-50572897D01*
X71775668Y-50572893D01*
X71974327Y-50458197D01*
X71974334Y-50458192D01*
X72048064Y-50401617D01*
X71247488Y-49601041D01*
X71307890Y-49576022D01*
X71414351Y-49504888D01*
X71504888Y-49414351D01*
X71576022Y-49307890D01*
X71601041Y-49247488D01*
X72401617Y-50048064D01*
X72458192Y-49974334D01*
X72458197Y-49974327D01*
X72572893Y-49775668D01*
X72572897Y-49775659D01*
X72660681Y-49563730D01*
X72720057Y-49342137D01*
X72749998Y-49114710D01*
X72750000Y-49114694D01*
X72750000Y-48885305D01*
X72749998Y-48885289D01*
X72720057Y-48657862D01*
X72660681Y-48436269D01*
X72572897Y-48224340D01*
X72572893Y-48224330D01*
X72458194Y-48025666D01*
X72401618Y-47951934D01*
X72401617Y-47951934D01*
X71601041Y-48752510D01*
X71576022Y-48692110D01*
X71504888Y-48585649D01*
X71414351Y-48495112D01*
X71307890Y-48423978D01*
X71247487Y-48398957D01*
X72048064Y-47598381D01*
X72048064Y-47598380D01*
X71974331Y-47541805D01*
X71974324Y-47541799D01*
X71775669Y-47427106D01*
X71775659Y-47427102D01*
X71563730Y-47339318D01*
X71342137Y-47279942D01*
X71114710Y-47250001D01*
X71114694Y-47250000D01*
X70885306Y-47250000D01*
X70885289Y-47250001D01*
X70657862Y-47279942D01*
X70436269Y-47339318D01*
X70224340Y-47427102D01*
X70224330Y-47427106D01*
X70025673Y-47541801D01*
X70025659Y-47541810D01*
X69951934Y-47598380D01*
X70752511Y-48398958D01*
X70692110Y-48423978D01*
X70585649Y-48495112D01*
X70495112Y-48585649D01*
X70423978Y-48692110D01*
X70398958Y-48752511D01*
X69598380Y-47951934D01*
X69541810Y-48025659D01*
X69541801Y-48025673D01*
X69427106Y-48224330D01*
X69427102Y-48224340D01*
X69339318Y-48436269D01*
X69279942Y-48657862D01*
X69250001Y-48885289D01*
X69250000Y-48885305D01*
X67750499Y-48885305D01*
X67750499Y-47702128D01*
X67744091Y-47642517D01*
X67727629Y-47598381D01*
X67693797Y-47507671D01*
X67693793Y-47507664D01*
X67607547Y-47392455D01*
X67607544Y-47392452D01*
X67492335Y-47306206D01*
X67492328Y-47306202D01*
X67357482Y-47255908D01*
X67357483Y-47255908D01*
X67297883Y-47249501D01*
X67297881Y-47249500D01*
X67297873Y-47249500D01*
X67297864Y-47249500D01*
X64702129Y-47249500D01*
X64702123Y-47249501D01*
X64642516Y-47255908D01*
X64507671Y-47306202D01*
X64507664Y-47306206D01*
X64392455Y-47392452D01*
X64392452Y-47392455D01*
X64306206Y-47507664D01*
X64306202Y-47507671D01*
X64255908Y-47642517D01*
X64249501Y-47702116D01*
X64249500Y-47702135D01*
X36550500Y-47702135D01*
X36550500Y-40921158D01*
X65199500Y-40921158D01*
X65199500Y-40925639D01*
X65199500Y-41078846D01*
X65230261Y-41233489D01*
X65230264Y-41233501D01*
X65290602Y-41379172D01*
X65290609Y-41379185D01*
X65378210Y-41510288D01*
X65378213Y-41510292D01*
X65489707Y-41621786D01*
X65489711Y-41621789D01*
X65620814Y-41709390D01*
X65620827Y-41709397D01*
X65766498Y-41769735D01*
X65766503Y-41769737D01*
X65921153Y-41800499D01*
X65921156Y-41800500D01*
X65921158Y-41800500D01*
X66078844Y-41800500D01*
X66078845Y-41800499D01*
X66233497Y-41769737D01*
X66379179Y-41709394D01*
X66510289Y-41621789D01*
X66621789Y-41510289D01*
X66709394Y-41379179D01*
X66769737Y-41233497D01*
X66800500Y-41078842D01*
X66800500Y-40921158D01*
X66800500Y-40921155D01*
X66800499Y-40921153D01*
X66769738Y-40766510D01*
X66769737Y-40766503D01*
X66760854Y-40745057D01*
X66758843Y-40739877D01*
X66612906Y-40337379D01*
X66608561Y-40267648D01*
X66641798Y-40207436D01*
X71416477Y-35432756D01*
X71451608Y-35408124D01*
X71855129Y-35219355D01*
X71879179Y-35209394D01*
X71890734Y-35201673D01*
X71902117Y-35195821D01*
X71903627Y-35194972D01*
X71978741Y-35143308D01*
X71978741Y-35143306D01*
X71984210Y-35139546D01*
X71987577Y-35136963D01*
X72010289Y-35121789D01*
X72121789Y-35010289D01*
X72209394Y-34879179D01*
X72269737Y-34733497D01*
X72300500Y-34578842D01*
X72300500Y-34421158D01*
X72300500Y-34421155D01*
X72300499Y-34421153D01*
X72269737Y-34266503D01*
X72269735Y-34266498D01*
X72209397Y-34120827D01*
X72209390Y-34120814D01*
X72121789Y-33989711D01*
X72121786Y-33989707D01*
X72010292Y-33878213D01*
X72010288Y-33878210D01*
X71879185Y-33790609D01*
X71879172Y-33790602D01*
X71733501Y-33730264D01*
X71733489Y-33730261D01*
X71578845Y-33699500D01*
X71578842Y-33699500D01*
X71421158Y-33699500D01*
X71421155Y-33699500D01*
X71266510Y-33730261D01*
X71266498Y-33730264D01*
X71120827Y-33790602D01*
X71120814Y-33790609D01*
X70989711Y-33878210D01*
X70989707Y-33878213D01*
X70878213Y-33989707D01*
X70878207Y-33989715D01*
X70790607Y-34120818D01*
X70790606Y-34120819D01*
X70781726Y-34142257D01*
X70779485Y-34147342D01*
X70591873Y-34548388D01*
X70567236Y-34583526D01*
X65631286Y-39519478D01*
X65519481Y-39631282D01*
X65519479Y-39631285D01*
X65469361Y-39718094D01*
X65469359Y-39718096D01*
X65440425Y-39768209D01*
X65440424Y-39768210D01*
X65440423Y-39768215D01*
X65399499Y-39920943D01*
X65399499Y-39920945D01*
X65399499Y-40089046D01*
X65399500Y-40089059D01*
X65399500Y-40281372D01*
X65392074Y-40323640D01*
X65241143Y-40739907D01*
X65239133Y-40745085D01*
X65230261Y-40766506D01*
X65228946Y-40773116D01*
X65225399Y-40786809D01*
X65223688Y-40792138D01*
X65223222Y-40793798D01*
X65205452Y-40889807D01*
X65205415Y-40891199D01*
X65205136Y-40892818D01*
X65199500Y-40921158D01*
X36550500Y-40921158D01*
X36550500Y-33702135D01*
X40249500Y-33702135D01*
X40249500Y-36297870D01*
X40249501Y-36297876D01*
X40255908Y-36357483D01*
X40306202Y-36492328D01*
X40306206Y-36492335D01*
X40392452Y-36607544D01*
X40392455Y-36607547D01*
X40507664Y-36693793D01*
X40507671Y-36693797D01*
X40642517Y-36744091D01*
X40642516Y-36744091D01*
X40649444Y-36744835D01*
X40702127Y-36750500D01*
X43297872Y-36750499D01*
X43357483Y-36744091D01*
X43492331Y-36693796D01*
X43607546Y-36607546D01*
X43693796Y-36492331D01*
X43744091Y-36357483D01*
X43750500Y-36297873D01*
X43750499Y-33702128D01*
X43744091Y-33642517D01*
X43713156Y-33559577D01*
X43693797Y-33507671D01*
X43693793Y-33507664D01*
X43607547Y-33392455D01*
X43607544Y-33392452D01*
X43492335Y-33306206D01*
X43492328Y-33306202D01*
X43357482Y-33255908D01*
X43357483Y-33255908D01*
X43297883Y-33249501D01*
X43297881Y-33249500D01*
X43297873Y-33249500D01*
X43297864Y-33249500D01*
X40702129Y-33249500D01*
X40702123Y-33249501D01*
X40642516Y-33255908D01*
X40507671Y-33306202D01*
X40507664Y-33306206D01*
X40392455Y-33392452D01*
X40392452Y-33392455D01*
X40306206Y-33507664D01*
X40306202Y-33507671D01*
X40255908Y-33642517D01*
X40249782Y-33699500D01*
X40249501Y-33702123D01*
X40249500Y-33702135D01*
X36550500Y-33702135D01*
X36550500Y-29885305D01*
X40250000Y-29885305D01*
X40250000Y-30114694D01*
X40250001Y-30114710D01*
X40279942Y-30342137D01*
X40339318Y-30563730D01*
X40427102Y-30775659D01*
X40427106Y-30775669D01*
X40541799Y-30974324D01*
X40541805Y-30974331D01*
X40598381Y-31048064D01*
X41398958Y-30247487D01*
X41423978Y-30307890D01*
X41495112Y-30414351D01*
X41585649Y-30504888D01*
X41692110Y-30576022D01*
X41752511Y-30601041D01*
X40951934Y-31401617D01*
X40951934Y-31401618D01*
X41025666Y-31458194D01*
X41224330Y-31572893D01*
X41224340Y-31572897D01*
X41436269Y-31660681D01*
X41657862Y-31720057D01*
X41885289Y-31749998D01*
X41885306Y-31750000D01*
X42114694Y-31750000D01*
X42114710Y-31749998D01*
X42342137Y-31720057D01*
X42563730Y-31660681D01*
X42775659Y-31572897D01*
X42775668Y-31572893D01*
X42974327Y-31458197D01*
X42974334Y-31458192D01*
X43048064Y-31401617D01*
X42247488Y-30601041D01*
X42307890Y-30576022D01*
X42414351Y-30504888D01*
X42504888Y-30414351D01*
X42576022Y-30307890D01*
X42601041Y-30247488D01*
X43401617Y-31048064D01*
X43458192Y-30974334D01*
X43458197Y-30974327D01*
X43572893Y-30775668D01*
X43572897Y-30775659D01*
X43660681Y-30563730D01*
X43720057Y-30342137D01*
X43749998Y-30114710D01*
X43750000Y-30114694D01*
X43750000Y-29885305D01*
X43749998Y-29885289D01*
X43720057Y-29657862D01*
X43660681Y-29436269D01*
X43572897Y-29224340D01*
X43572893Y-29224330D01*
X43458194Y-29025666D01*
X43401618Y-28951934D01*
X43401617Y-28951934D01*
X42601041Y-29752510D01*
X42576022Y-29692110D01*
X42504888Y-29585649D01*
X42414351Y-29495112D01*
X42307890Y-29423978D01*
X42247487Y-29398957D01*
X43048064Y-28598381D01*
X43048064Y-28598380D01*
X42974331Y-28541805D01*
X42974324Y-28541799D01*
X42775669Y-28427106D01*
X42775659Y-28427102D01*
X42563730Y-28339318D01*
X42342137Y-28279942D01*
X42114710Y-28250001D01*
X42114694Y-28250000D01*
X41885306Y-28250000D01*
X41885289Y-28250001D01*
X41657862Y-28279942D01*
X41436269Y-28339318D01*
X41224340Y-28427102D01*
X41224330Y-28427106D01*
X41025673Y-28541801D01*
X41025659Y-28541810D01*
X40951934Y-28598380D01*
X41752511Y-29398958D01*
X41692110Y-29423978D01*
X41585649Y-29495112D01*
X41495112Y-29585649D01*
X41423978Y-29692110D01*
X41398958Y-29752511D01*
X40598380Y-28951934D01*
X40541810Y-29025659D01*
X40541801Y-29025673D01*
X40427106Y-29224330D01*
X40427102Y-29224340D01*
X40339318Y-29436269D01*
X40279942Y-29657862D01*
X40250001Y-29885289D01*
X40250000Y-29885305D01*
X36550500Y-29885305D01*
X36550500Y-25174500D01*
X36570185Y-25107461D01*
X36622989Y-25061706D01*
X36674500Y-25050500D01*
X42927525Y-25050500D01*
X76510572Y-25050500D01*
X76577611Y-25070185D01*
G37*
%TD.AperFunction*%
%TD*%
%TA.AperFunction,Conductor*%
%TO.N,+5V*%
G36*
X51355277Y-35514902D02*
G01*
X51485097Y-35644722D01*
X51488524Y-35652995D01*
X51487422Y-35657953D01*
X51255193Y-36154373D01*
X51248583Y-36160414D01*
X51239637Y-36160013D01*
X51238127Y-36159164D01*
X51001265Y-36002015D01*
X50997984Y-35998734D01*
X50840835Y-35761872D01*
X50839116Y-35753084D01*
X50844116Y-35745655D01*
X50845621Y-35744808D01*
X51342048Y-35512576D01*
X51350992Y-35512176D01*
X51355277Y-35514902D01*
G37*
%TD.AperFunction*%
%TD*%
%TA.AperFunction,Conductor*%
%TO.N,+5V*%
G36*
X78600070Y-34409191D02*
G01*
X78602796Y-34413476D01*
X78789608Y-34928709D01*
X78789207Y-34937655D01*
X78782597Y-34943696D01*
X78780929Y-34944165D01*
X78502320Y-35000530D01*
X78497680Y-35000530D01*
X78219070Y-34944165D01*
X78211641Y-34939165D01*
X78209922Y-34930377D01*
X78210387Y-34928720D01*
X78397204Y-34413476D01*
X78403245Y-34406866D01*
X78408203Y-34405764D01*
X78591797Y-34405764D01*
X78600070Y-34409191D01*
G37*
%TD.AperFunction*%
%TD*%
%TA.AperFunction,Conductor*%
%TO.N,+12V*%
G36*
X71260362Y-34339986D02*
G01*
X71261872Y-34340835D01*
X71498734Y-34497984D01*
X71502015Y-34501265D01*
X71659164Y-34738127D01*
X71660883Y-34746915D01*
X71655883Y-34754344D01*
X71654373Y-34755193D01*
X71157953Y-34987422D01*
X71149007Y-34987823D01*
X71144722Y-34985097D01*
X71014902Y-34855277D01*
X71011475Y-34847004D01*
X71012575Y-34842051D01*
X71244806Y-34345625D01*
X71251416Y-34339585D01*
X71260362Y-34339986D01*
G37*
%TD.AperFunction*%
%TD*%
%TA.AperFunction,Conductor*%
%TO.N,+12V*%
G36*
X66100070Y-40409191D02*
G01*
X66102796Y-40413476D01*
X66289608Y-40928709D01*
X66289207Y-40937655D01*
X66282597Y-40943696D01*
X66280929Y-40944165D01*
X66002320Y-41000530D01*
X65997680Y-41000530D01*
X65719070Y-40944165D01*
X65711641Y-40939165D01*
X65709922Y-40930377D01*
X65710387Y-40928720D01*
X65897204Y-40413476D01*
X65903245Y-40406866D01*
X65908203Y-40405764D01*
X66091797Y-40405764D01*
X66100070Y-40409191D01*
G37*
%TD.AperFunction*%
%TD*%
M02*
