%TF.GenerationSoftware,KiCad,Pcbnew,9.0.0*%
%TF.CreationDate,2025-03-31T21:24:58-05:00*%
%TF.ProjectId,Boat_Volt_Reg,426f6174-5f56-46f6-9c74-5f5265672e6b,rev?*%
%TF.SameCoordinates,Original*%
%TF.FileFunction,Drillmap*%
%TF.FilePolarity,Positive*%
%FSLAX45Y45*%
G04 Gerber Fmt 4.5, Leading zero omitted, Abs format (unit mm)*
G04 Created by KiCad (PCBNEW 9.0.0) date 2025-03-31 21:24:58*
%MOMM*%
%LPD*%
G01*
G04 APERTURE LIST*
%ADD10C,0.050000*%
%ADD11C,0.200000*%
%ADD12C,0.100000*%
G04 APERTURE END LIST*
D10*
X3600000Y-2450000D02*
X8100000Y-2450000D01*
X8100000Y-5350000D01*
X3600000Y-5350000D01*
X3600000Y-2450000D01*
D11*
D12*
X4596000Y-2957500D02*
X4661000Y-3022500D01*
X4661000Y-2957500D02*
X4596000Y-3022500D01*
X4596000Y-3677500D02*
X4661000Y-3742500D01*
X4661000Y-3677500D02*
X4596000Y-3742500D01*
X4596000Y-3695000D02*
X4596000Y-3725000D01*
X4661000Y-3725000D02*
G75*
G02*
X4596000Y-3725000I-32500J0D01*
G01*
X4661000Y-3725000D02*
X4661000Y-3695000D01*
X4661000Y-3695000D02*
G75*
G03*
X4596000Y-3695000I-32500J0D01*
G01*
D11*
X3858277Y-5663984D02*
X3858277Y-5463984D01*
X3858277Y-5463984D02*
X3905896Y-5463984D01*
X3905896Y-5463984D02*
X3934467Y-5473508D01*
X3934467Y-5473508D02*
X3953515Y-5492555D01*
X3953515Y-5492555D02*
X3963039Y-5511603D01*
X3963039Y-5511603D02*
X3972562Y-5549698D01*
X3972562Y-5549698D02*
X3972562Y-5578270D01*
X3972562Y-5578270D02*
X3963039Y-5616365D01*
X3963039Y-5616365D02*
X3953515Y-5635412D01*
X3953515Y-5635412D02*
X3934467Y-5654460D01*
X3934467Y-5654460D02*
X3905896Y-5663984D01*
X3905896Y-5663984D02*
X3858277Y-5663984D01*
X4058277Y-5663984D02*
X4058277Y-5530650D01*
X4058277Y-5568746D02*
X4067801Y-5549698D01*
X4067801Y-5549698D02*
X4077324Y-5540174D01*
X4077324Y-5540174D02*
X4096372Y-5530650D01*
X4096372Y-5530650D02*
X4115420Y-5530650D01*
X4182086Y-5663984D02*
X4182086Y-5530650D01*
X4182086Y-5463984D02*
X4172562Y-5473508D01*
X4172562Y-5473508D02*
X4182086Y-5483031D01*
X4182086Y-5483031D02*
X4191610Y-5473508D01*
X4191610Y-5473508D02*
X4182086Y-5463984D01*
X4182086Y-5463984D02*
X4182086Y-5483031D01*
X4305896Y-5663984D02*
X4286848Y-5654460D01*
X4286848Y-5654460D02*
X4277324Y-5635412D01*
X4277324Y-5635412D02*
X4277324Y-5463984D01*
X4410658Y-5663984D02*
X4391610Y-5654460D01*
X4391610Y-5654460D02*
X4382086Y-5635412D01*
X4382086Y-5635412D02*
X4382086Y-5463984D01*
X4639229Y-5663984D02*
X4639229Y-5463984D01*
X4639229Y-5463984D02*
X4705896Y-5606841D01*
X4705896Y-5606841D02*
X4772563Y-5463984D01*
X4772563Y-5463984D02*
X4772563Y-5663984D01*
X4953515Y-5663984D02*
X4953515Y-5559222D01*
X4953515Y-5559222D02*
X4943991Y-5540174D01*
X4943991Y-5540174D02*
X4924944Y-5530650D01*
X4924944Y-5530650D02*
X4886848Y-5530650D01*
X4886848Y-5530650D02*
X4867801Y-5540174D01*
X4953515Y-5654460D02*
X4934467Y-5663984D01*
X4934467Y-5663984D02*
X4886848Y-5663984D01*
X4886848Y-5663984D02*
X4867801Y-5654460D01*
X4867801Y-5654460D02*
X4858277Y-5635412D01*
X4858277Y-5635412D02*
X4858277Y-5616365D01*
X4858277Y-5616365D02*
X4867801Y-5597317D01*
X4867801Y-5597317D02*
X4886848Y-5587793D01*
X4886848Y-5587793D02*
X4934467Y-5587793D01*
X4934467Y-5587793D02*
X4953515Y-5578270D01*
X5048753Y-5530650D02*
X5048753Y-5730650D01*
X5048753Y-5540174D02*
X5067801Y-5530650D01*
X5067801Y-5530650D02*
X5105896Y-5530650D01*
X5105896Y-5530650D02*
X5124944Y-5540174D01*
X5124944Y-5540174D02*
X5134467Y-5549698D01*
X5134467Y-5549698D02*
X5143991Y-5568746D01*
X5143991Y-5568746D02*
X5143991Y-5625888D01*
X5143991Y-5625888D02*
X5134467Y-5644936D01*
X5134467Y-5644936D02*
X5124944Y-5654460D01*
X5124944Y-5654460D02*
X5105896Y-5663984D01*
X5105896Y-5663984D02*
X5067801Y-5663984D01*
X5067801Y-5663984D02*
X5048753Y-5654460D01*
X5229705Y-5644936D02*
X5239229Y-5654460D01*
X5239229Y-5654460D02*
X5229705Y-5663984D01*
X5229705Y-5663984D02*
X5220182Y-5654460D01*
X5220182Y-5654460D02*
X5229705Y-5644936D01*
X5229705Y-5644936D02*
X5229705Y-5663984D01*
X5229705Y-5540174D02*
X5239229Y-5549698D01*
X5239229Y-5549698D02*
X5229705Y-5559222D01*
X5229705Y-5559222D02*
X5220182Y-5549698D01*
X5220182Y-5549698D02*
X5229705Y-5540174D01*
X5229705Y-5540174D02*
X5229705Y-5559222D01*
D12*
X3532500Y-5960000D02*
X3597500Y-6025000D01*
X3597500Y-5960000D02*
X3532500Y-6025000D01*
D11*
X3896372Y-5883984D02*
X3915420Y-5883984D01*
X3915420Y-5883984D02*
X3934467Y-5893508D01*
X3934467Y-5893508D02*
X3943991Y-5903031D01*
X3943991Y-5903031D02*
X3953515Y-5922079D01*
X3953515Y-5922079D02*
X3963039Y-5960174D01*
X3963039Y-5960174D02*
X3963039Y-6007793D01*
X3963039Y-6007793D02*
X3953515Y-6045888D01*
X3953515Y-6045888D02*
X3943991Y-6064936D01*
X3943991Y-6064936D02*
X3934467Y-6074460D01*
X3934467Y-6074460D02*
X3915420Y-6083984D01*
X3915420Y-6083984D02*
X3896372Y-6083984D01*
X3896372Y-6083984D02*
X3877324Y-6074460D01*
X3877324Y-6074460D02*
X3867801Y-6064936D01*
X3867801Y-6064936D02*
X3858277Y-6045888D01*
X3858277Y-6045888D02*
X3848753Y-6007793D01*
X3848753Y-6007793D02*
X3848753Y-5960174D01*
X3848753Y-5960174D02*
X3858277Y-5922079D01*
X3858277Y-5922079D02*
X3867801Y-5903031D01*
X3867801Y-5903031D02*
X3877324Y-5893508D01*
X3877324Y-5893508D02*
X3896372Y-5883984D01*
X4048753Y-6064936D02*
X4058277Y-6074460D01*
X4058277Y-6074460D02*
X4048753Y-6083984D01*
X4048753Y-6083984D02*
X4039229Y-6074460D01*
X4039229Y-6074460D02*
X4048753Y-6064936D01*
X4048753Y-6064936D02*
X4048753Y-6083984D01*
X4229705Y-5883984D02*
X4191610Y-5883984D01*
X4191610Y-5883984D02*
X4172562Y-5893508D01*
X4172562Y-5893508D02*
X4163039Y-5903031D01*
X4163039Y-5903031D02*
X4143991Y-5931603D01*
X4143991Y-5931603D02*
X4134467Y-5969698D01*
X4134467Y-5969698D02*
X4134467Y-6045888D01*
X4134467Y-6045888D02*
X4143991Y-6064936D01*
X4143991Y-6064936D02*
X4153515Y-6074460D01*
X4153515Y-6074460D02*
X4172562Y-6083984D01*
X4172562Y-6083984D02*
X4210658Y-6083984D01*
X4210658Y-6083984D02*
X4229705Y-6074460D01*
X4229705Y-6074460D02*
X4239229Y-6064936D01*
X4239229Y-6064936D02*
X4248753Y-6045888D01*
X4248753Y-6045888D02*
X4248753Y-5998269D01*
X4248753Y-5998269D02*
X4239229Y-5979222D01*
X4239229Y-5979222D02*
X4229705Y-5969698D01*
X4229705Y-5969698D02*
X4210658Y-5960174D01*
X4210658Y-5960174D02*
X4172562Y-5960174D01*
X4172562Y-5960174D02*
X4153515Y-5969698D01*
X4153515Y-5969698D02*
X4143991Y-5979222D01*
X4143991Y-5979222D02*
X4134467Y-5998269D01*
X4429705Y-5883984D02*
X4334467Y-5883984D01*
X4334467Y-5883984D02*
X4324944Y-5979222D01*
X4324944Y-5979222D02*
X4334467Y-5969698D01*
X4334467Y-5969698D02*
X4353515Y-5960174D01*
X4353515Y-5960174D02*
X4401134Y-5960174D01*
X4401134Y-5960174D02*
X4420182Y-5969698D01*
X4420182Y-5969698D02*
X4429705Y-5979222D01*
X4429705Y-5979222D02*
X4439229Y-5998269D01*
X4439229Y-5998269D02*
X4439229Y-6045888D01*
X4439229Y-6045888D02*
X4429705Y-6064936D01*
X4429705Y-6064936D02*
X4420182Y-6074460D01*
X4420182Y-6074460D02*
X4401134Y-6083984D01*
X4401134Y-6083984D02*
X4353515Y-6083984D01*
X4353515Y-6083984D02*
X4334467Y-6074460D01*
X4334467Y-6074460D02*
X4324944Y-6064936D01*
X4563039Y-5883984D02*
X4582086Y-5883984D01*
X4582086Y-5883984D02*
X4601134Y-5893508D01*
X4601134Y-5893508D02*
X4610658Y-5903031D01*
X4610658Y-5903031D02*
X4620182Y-5922079D01*
X4620182Y-5922079D02*
X4629705Y-5960174D01*
X4629705Y-5960174D02*
X4629705Y-6007793D01*
X4629705Y-6007793D02*
X4620182Y-6045888D01*
X4620182Y-6045888D02*
X4610658Y-6064936D01*
X4610658Y-6064936D02*
X4601134Y-6074460D01*
X4601134Y-6074460D02*
X4582086Y-6083984D01*
X4582086Y-6083984D02*
X4563039Y-6083984D01*
X4563039Y-6083984D02*
X4543991Y-6074460D01*
X4543991Y-6074460D02*
X4534467Y-6064936D01*
X4534467Y-6064936D02*
X4524944Y-6045888D01*
X4524944Y-6045888D02*
X4515420Y-6007793D01*
X4515420Y-6007793D02*
X4515420Y-5960174D01*
X4515420Y-5960174D02*
X4524944Y-5922079D01*
X4524944Y-5922079D02*
X4534467Y-5903031D01*
X4534467Y-5903031D02*
X4543991Y-5893508D01*
X4543991Y-5893508D02*
X4563039Y-5883984D01*
X4715420Y-6083984D02*
X4715420Y-5950650D01*
X4715420Y-5969698D02*
X4724944Y-5960174D01*
X4724944Y-5960174D02*
X4743991Y-5950650D01*
X4743991Y-5950650D02*
X4772563Y-5950650D01*
X4772563Y-5950650D02*
X4791610Y-5960174D01*
X4791610Y-5960174D02*
X4801134Y-5979222D01*
X4801134Y-5979222D02*
X4801134Y-6083984D01*
X4801134Y-5979222D02*
X4810658Y-5960174D01*
X4810658Y-5960174D02*
X4829705Y-5950650D01*
X4829705Y-5950650D02*
X4858277Y-5950650D01*
X4858277Y-5950650D02*
X4877325Y-5960174D01*
X4877325Y-5960174D02*
X4886848Y-5979222D01*
X4886848Y-5979222D02*
X4886848Y-6083984D01*
X4982086Y-6083984D02*
X4982086Y-5950650D01*
X4982086Y-5969698D02*
X4991610Y-5960174D01*
X4991610Y-5960174D02*
X5010658Y-5950650D01*
X5010658Y-5950650D02*
X5039229Y-5950650D01*
X5039229Y-5950650D02*
X5058277Y-5960174D01*
X5058277Y-5960174D02*
X5067801Y-5979222D01*
X5067801Y-5979222D02*
X5067801Y-6083984D01*
X5067801Y-5979222D02*
X5077325Y-5960174D01*
X5077325Y-5960174D02*
X5096372Y-5950650D01*
X5096372Y-5950650D02*
X5124944Y-5950650D01*
X5124944Y-5950650D02*
X5143991Y-5960174D01*
X5143991Y-5960174D02*
X5153515Y-5979222D01*
X5153515Y-5979222D02*
X5153515Y-6083984D01*
X5543991Y-5874460D02*
X5372563Y-6131603D01*
X5801134Y-5883984D02*
X5820182Y-5883984D01*
X5820182Y-5883984D02*
X5839229Y-5893508D01*
X5839229Y-5893508D02*
X5848753Y-5903031D01*
X5848753Y-5903031D02*
X5858277Y-5922079D01*
X5858277Y-5922079D02*
X5867801Y-5960174D01*
X5867801Y-5960174D02*
X5867801Y-6007793D01*
X5867801Y-6007793D02*
X5858277Y-6045888D01*
X5858277Y-6045888D02*
X5848753Y-6064936D01*
X5848753Y-6064936D02*
X5839229Y-6074460D01*
X5839229Y-6074460D02*
X5820182Y-6083984D01*
X5820182Y-6083984D02*
X5801134Y-6083984D01*
X5801134Y-6083984D02*
X5782086Y-6074460D01*
X5782086Y-6074460D02*
X5772563Y-6064936D01*
X5772563Y-6064936D02*
X5763039Y-6045888D01*
X5763039Y-6045888D02*
X5753515Y-6007793D01*
X5753515Y-6007793D02*
X5753515Y-5960174D01*
X5753515Y-5960174D02*
X5763039Y-5922079D01*
X5763039Y-5922079D02*
X5772563Y-5903031D01*
X5772563Y-5903031D02*
X5782086Y-5893508D01*
X5782086Y-5893508D02*
X5801134Y-5883984D01*
X5953515Y-6064936D02*
X5963039Y-6074460D01*
X5963039Y-6074460D02*
X5953515Y-6083984D01*
X5953515Y-6083984D02*
X5943991Y-6074460D01*
X5943991Y-6074460D02*
X5953515Y-6064936D01*
X5953515Y-6064936D02*
X5953515Y-6083984D01*
X6086848Y-5883984D02*
X6105896Y-5883984D01*
X6105896Y-5883984D02*
X6124944Y-5893508D01*
X6124944Y-5893508D02*
X6134467Y-5903031D01*
X6134467Y-5903031D02*
X6143991Y-5922079D01*
X6143991Y-5922079D02*
X6153515Y-5960174D01*
X6153515Y-5960174D02*
X6153515Y-6007793D01*
X6153515Y-6007793D02*
X6143991Y-6045888D01*
X6143991Y-6045888D02*
X6134467Y-6064936D01*
X6134467Y-6064936D02*
X6124944Y-6074460D01*
X6124944Y-6074460D02*
X6105896Y-6083984D01*
X6105896Y-6083984D02*
X6086848Y-6083984D01*
X6086848Y-6083984D02*
X6067801Y-6074460D01*
X6067801Y-6074460D02*
X6058277Y-6064936D01*
X6058277Y-6064936D02*
X6048753Y-6045888D01*
X6048753Y-6045888D02*
X6039229Y-6007793D01*
X6039229Y-6007793D02*
X6039229Y-5960174D01*
X6039229Y-5960174D02*
X6048753Y-5922079D01*
X6048753Y-5922079D02*
X6058277Y-5903031D01*
X6058277Y-5903031D02*
X6067801Y-5893508D01*
X6067801Y-5893508D02*
X6086848Y-5883984D01*
X6229706Y-5903031D02*
X6239229Y-5893508D01*
X6239229Y-5893508D02*
X6258277Y-5883984D01*
X6258277Y-5883984D02*
X6305896Y-5883984D01*
X6305896Y-5883984D02*
X6324944Y-5893508D01*
X6324944Y-5893508D02*
X6334467Y-5903031D01*
X6334467Y-5903031D02*
X6343991Y-5922079D01*
X6343991Y-5922079D02*
X6343991Y-5941127D01*
X6343991Y-5941127D02*
X6334467Y-5969698D01*
X6334467Y-5969698D02*
X6220182Y-6083984D01*
X6220182Y-6083984D02*
X6343991Y-6083984D01*
X6524944Y-5883984D02*
X6429706Y-5883984D01*
X6429706Y-5883984D02*
X6420182Y-5979222D01*
X6420182Y-5979222D02*
X6429706Y-5969698D01*
X6429706Y-5969698D02*
X6448753Y-5960174D01*
X6448753Y-5960174D02*
X6496372Y-5960174D01*
X6496372Y-5960174D02*
X6515420Y-5969698D01*
X6515420Y-5969698D02*
X6524944Y-5979222D01*
X6524944Y-5979222D02*
X6534467Y-5998269D01*
X6534467Y-5998269D02*
X6534467Y-6045888D01*
X6534467Y-6045888D02*
X6524944Y-6064936D01*
X6524944Y-6064936D02*
X6515420Y-6074460D01*
X6515420Y-6074460D02*
X6496372Y-6083984D01*
X6496372Y-6083984D02*
X6448753Y-6083984D01*
X6448753Y-6083984D02*
X6429706Y-6074460D01*
X6429706Y-6074460D02*
X6420182Y-6064936D01*
X6705896Y-5883984D02*
X6667801Y-5883984D01*
X6667801Y-5883984D02*
X6648753Y-5893508D01*
X6648753Y-5893508D02*
X6639229Y-5903031D01*
X6639229Y-5903031D02*
X6620182Y-5931603D01*
X6620182Y-5931603D02*
X6610658Y-5969698D01*
X6610658Y-5969698D02*
X6610658Y-6045888D01*
X6610658Y-6045888D02*
X6620182Y-6064936D01*
X6620182Y-6064936D02*
X6629706Y-6074460D01*
X6629706Y-6074460D02*
X6648753Y-6083984D01*
X6648753Y-6083984D02*
X6686848Y-6083984D01*
X6686848Y-6083984D02*
X6705896Y-6074460D01*
X6705896Y-6074460D02*
X6715420Y-6064936D01*
X6715420Y-6064936D02*
X6724944Y-6045888D01*
X6724944Y-6045888D02*
X6724944Y-5998269D01*
X6724944Y-5998269D02*
X6715420Y-5979222D01*
X6715420Y-5979222D02*
X6705896Y-5969698D01*
X6705896Y-5969698D02*
X6686848Y-5960174D01*
X6686848Y-5960174D02*
X6648753Y-5960174D01*
X6648753Y-5960174D02*
X6629706Y-5969698D01*
X6629706Y-5969698D02*
X6620182Y-5979222D01*
X6620182Y-5979222D02*
X6610658Y-5998269D01*
X6801134Y-5883984D02*
X6801134Y-5922079D01*
X6877325Y-5883984D02*
X6877325Y-5922079D01*
X7172563Y-6160174D02*
X7163039Y-6150650D01*
X7163039Y-6150650D02*
X7143991Y-6122079D01*
X7143991Y-6122079D02*
X7134468Y-6103031D01*
X7134468Y-6103031D02*
X7124944Y-6074460D01*
X7124944Y-6074460D02*
X7115420Y-6026841D01*
X7115420Y-6026841D02*
X7115420Y-5988746D01*
X7115420Y-5988746D02*
X7124944Y-5941127D01*
X7124944Y-5941127D02*
X7134468Y-5912555D01*
X7134468Y-5912555D02*
X7143991Y-5893508D01*
X7143991Y-5893508D02*
X7163039Y-5864936D01*
X7163039Y-5864936D02*
X7172563Y-5855412D01*
X7353515Y-6083984D02*
X7239229Y-6083984D01*
X7296372Y-6083984D02*
X7296372Y-5883984D01*
X7296372Y-5883984D02*
X7277325Y-5912555D01*
X7277325Y-5912555D02*
X7258277Y-5931603D01*
X7258277Y-5931603D02*
X7239229Y-5941127D01*
X7591610Y-6083984D02*
X7591610Y-5883984D01*
X7677325Y-6083984D02*
X7677325Y-5979222D01*
X7677325Y-5979222D02*
X7667801Y-5960174D01*
X7667801Y-5960174D02*
X7648753Y-5950650D01*
X7648753Y-5950650D02*
X7620182Y-5950650D01*
X7620182Y-5950650D02*
X7601134Y-5960174D01*
X7601134Y-5960174D02*
X7591610Y-5969698D01*
X7801134Y-6083984D02*
X7782087Y-6074460D01*
X7782087Y-6074460D02*
X7772563Y-6064936D01*
X7772563Y-6064936D02*
X7763039Y-6045888D01*
X7763039Y-6045888D02*
X7763039Y-5988746D01*
X7763039Y-5988746D02*
X7772563Y-5969698D01*
X7772563Y-5969698D02*
X7782087Y-5960174D01*
X7782087Y-5960174D02*
X7801134Y-5950650D01*
X7801134Y-5950650D02*
X7829706Y-5950650D01*
X7829706Y-5950650D02*
X7848753Y-5960174D01*
X7848753Y-5960174D02*
X7858277Y-5969698D01*
X7858277Y-5969698D02*
X7867801Y-5988746D01*
X7867801Y-5988746D02*
X7867801Y-6045888D01*
X7867801Y-6045888D02*
X7858277Y-6064936D01*
X7858277Y-6064936D02*
X7848753Y-6074460D01*
X7848753Y-6074460D02*
X7829706Y-6083984D01*
X7829706Y-6083984D02*
X7801134Y-6083984D01*
X7982087Y-6083984D02*
X7963039Y-6074460D01*
X7963039Y-6074460D02*
X7953515Y-6055412D01*
X7953515Y-6055412D02*
X7953515Y-5883984D01*
X8134468Y-6074460D02*
X8115420Y-6083984D01*
X8115420Y-6083984D02*
X8077325Y-6083984D01*
X8077325Y-6083984D02*
X8058277Y-6074460D01*
X8058277Y-6074460D02*
X8048753Y-6055412D01*
X8048753Y-6055412D02*
X8048753Y-5979222D01*
X8048753Y-5979222D02*
X8058277Y-5960174D01*
X8058277Y-5960174D02*
X8077325Y-5950650D01*
X8077325Y-5950650D02*
X8115420Y-5950650D01*
X8115420Y-5950650D02*
X8134468Y-5960174D01*
X8134468Y-5960174D02*
X8143991Y-5979222D01*
X8143991Y-5979222D02*
X8143991Y-5998269D01*
X8143991Y-5998269D02*
X8048753Y-6017317D01*
X8220182Y-6074460D02*
X8239230Y-6083984D01*
X8239230Y-6083984D02*
X8277325Y-6083984D01*
X8277325Y-6083984D02*
X8296372Y-6074460D01*
X8296372Y-6074460D02*
X8305896Y-6055412D01*
X8305896Y-6055412D02*
X8305896Y-6045888D01*
X8305896Y-6045888D02*
X8296372Y-6026841D01*
X8296372Y-6026841D02*
X8277325Y-6017317D01*
X8277325Y-6017317D02*
X8248753Y-6017317D01*
X8248753Y-6017317D02*
X8229706Y-6007793D01*
X8229706Y-6007793D02*
X8220182Y-5988746D01*
X8220182Y-5988746D02*
X8220182Y-5979222D01*
X8220182Y-5979222D02*
X8229706Y-5960174D01*
X8229706Y-5960174D02*
X8248753Y-5950650D01*
X8248753Y-5950650D02*
X8277325Y-5950650D01*
X8277325Y-5950650D02*
X8296372Y-5960174D01*
X8543992Y-6007793D02*
X8696373Y-6007793D01*
X8620182Y-6083984D02*
X8620182Y-5931603D01*
X9048754Y-6083984D02*
X8934468Y-6083984D01*
X8991611Y-6083984D02*
X8991611Y-5883984D01*
X8991611Y-5883984D02*
X8972563Y-5912555D01*
X8972563Y-5912555D02*
X8953515Y-5931603D01*
X8953515Y-5931603D02*
X8934468Y-5941127D01*
X9277325Y-6074460D02*
X9296373Y-6083984D01*
X9296373Y-6083984D02*
X9334468Y-6083984D01*
X9334468Y-6083984D02*
X9353516Y-6074460D01*
X9353516Y-6074460D02*
X9363039Y-6055412D01*
X9363039Y-6055412D02*
X9363039Y-6045888D01*
X9363039Y-6045888D02*
X9353516Y-6026841D01*
X9353516Y-6026841D02*
X9334468Y-6017317D01*
X9334468Y-6017317D02*
X9305896Y-6017317D01*
X9305896Y-6017317D02*
X9286849Y-6007793D01*
X9286849Y-6007793D02*
X9277325Y-5988746D01*
X9277325Y-5988746D02*
X9277325Y-5979222D01*
X9277325Y-5979222D02*
X9286849Y-5960174D01*
X9286849Y-5960174D02*
X9305896Y-5950650D01*
X9305896Y-5950650D02*
X9334468Y-5950650D01*
X9334468Y-5950650D02*
X9353516Y-5960174D01*
X9477325Y-6083984D02*
X9458277Y-6074460D01*
X9458277Y-6074460D02*
X9448754Y-6055412D01*
X9448754Y-6055412D02*
X9448754Y-5883984D01*
X9582087Y-6083984D02*
X9563039Y-6074460D01*
X9563039Y-6074460D02*
X9553516Y-6064936D01*
X9553516Y-6064936D02*
X9543992Y-6045888D01*
X9543992Y-6045888D02*
X9543992Y-5988746D01*
X9543992Y-5988746D02*
X9553516Y-5969698D01*
X9553516Y-5969698D02*
X9563039Y-5960174D01*
X9563039Y-5960174D02*
X9582087Y-5950650D01*
X9582087Y-5950650D02*
X9610658Y-5950650D01*
X9610658Y-5950650D02*
X9629706Y-5960174D01*
X9629706Y-5960174D02*
X9639230Y-5969698D01*
X9639230Y-5969698D02*
X9648754Y-5988746D01*
X9648754Y-5988746D02*
X9648754Y-6045888D01*
X9648754Y-6045888D02*
X9639230Y-6064936D01*
X9639230Y-6064936D02*
X9629706Y-6074460D01*
X9629706Y-6074460D02*
X9610658Y-6083984D01*
X9610658Y-6083984D02*
X9582087Y-6083984D01*
X9705897Y-5950650D02*
X9782087Y-5950650D01*
X9734468Y-5883984D02*
X9734468Y-6055412D01*
X9734468Y-6055412D02*
X9743992Y-6074460D01*
X9743992Y-6074460D02*
X9763039Y-6083984D01*
X9763039Y-6083984D02*
X9782087Y-6083984D01*
X9829706Y-6160174D02*
X9839230Y-6150650D01*
X9839230Y-6150650D02*
X9858277Y-6122079D01*
X9858277Y-6122079D02*
X9867801Y-6103031D01*
X9867801Y-6103031D02*
X9877325Y-6074460D01*
X9877325Y-6074460D02*
X9886849Y-6026841D01*
X9886849Y-6026841D02*
X9886849Y-5988746D01*
X9886849Y-5988746D02*
X9877325Y-5941127D01*
X9877325Y-5941127D02*
X9867801Y-5912555D01*
X9867801Y-5912555D02*
X9858277Y-5893508D01*
X9858277Y-5893508D02*
X9839230Y-5864936D01*
X9839230Y-5864936D02*
X9829706Y-5855412D01*
X10191611Y-6160174D02*
X10182087Y-6150650D01*
X10182087Y-6150650D02*
X10163039Y-6122079D01*
X10163039Y-6122079D02*
X10153516Y-6103031D01*
X10153516Y-6103031D02*
X10143992Y-6074460D01*
X10143992Y-6074460D02*
X10134468Y-6026841D01*
X10134468Y-6026841D02*
X10134468Y-5988746D01*
X10134468Y-5988746D02*
X10143992Y-5941127D01*
X10143992Y-5941127D02*
X10153516Y-5912555D01*
X10153516Y-5912555D02*
X10163039Y-5893508D01*
X10163039Y-5893508D02*
X10182087Y-5864936D01*
X10182087Y-5864936D02*
X10191611Y-5855412D01*
X10267801Y-5950650D02*
X10267801Y-6083984D01*
X10267801Y-5969698D02*
X10277325Y-5960174D01*
X10277325Y-5960174D02*
X10296373Y-5950650D01*
X10296373Y-5950650D02*
X10324944Y-5950650D01*
X10324944Y-5950650D02*
X10343992Y-5960174D01*
X10343992Y-5960174D02*
X10353516Y-5979222D01*
X10353516Y-5979222D02*
X10353516Y-6083984D01*
X10477325Y-6083984D02*
X10458277Y-6074460D01*
X10458277Y-6074460D02*
X10448754Y-6064936D01*
X10448754Y-6064936D02*
X10439230Y-6045888D01*
X10439230Y-6045888D02*
X10439230Y-5988746D01*
X10439230Y-5988746D02*
X10448754Y-5969698D01*
X10448754Y-5969698D02*
X10458277Y-5960174D01*
X10458277Y-5960174D02*
X10477325Y-5950650D01*
X10477325Y-5950650D02*
X10505897Y-5950650D01*
X10505897Y-5950650D02*
X10524944Y-5960174D01*
X10524944Y-5960174D02*
X10534468Y-5969698D01*
X10534468Y-5969698D02*
X10543992Y-5988746D01*
X10543992Y-5988746D02*
X10543992Y-6045888D01*
X10543992Y-6045888D02*
X10534468Y-6064936D01*
X10534468Y-6064936D02*
X10524944Y-6074460D01*
X10524944Y-6074460D02*
X10505897Y-6083984D01*
X10505897Y-6083984D02*
X10477325Y-6083984D01*
X10601135Y-5950650D02*
X10677325Y-5950650D01*
X10629706Y-5883984D02*
X10629706Y-6055412D01*
X10629706Y-6055412D02*
X10639230Y-6074460D01*
X10639230Y-6074460D02*
X10658277Y-6083984D01*
X10658277Y-6083984D02*
X10677325Y-6083984D01*
X10896373Y-5950650D02*
X10896373Y-6150650D01*
X10896373Y-5960174D02*
X10915420Y-5950650D01*
X10915420Y-5950650D02*
X10953516Y-5950650D01*
X10953516Y-5950650D02*
X10972563Y-5960174D01*
X10972563Y-5960174D02*
X10982087Y-5969698D01*
X10982087Y-5969698D02*
X10991611Y-5988746D01*
X10991611Y-5988746D02*
X10991611Y-6045888D01*
X10991611Y-6045888D02*
X10982087Y-6064936D01*
X10982087Y-6064936D02*
X10972563Y-6074460D01*
X10972563Y-6074460D02*
X10953516Y-6083984D01*
X10953516Y-6083984D02*
X10915420Y-6083984D01*
X10915420Y-6083984D02*
X10896373Y-6074460D01*
X11105897Y-6083984D02*
X11086849Y-6074460D01*
X11086849Y-6074460D02*
X11077325Y-6055412D01*
X11077325Y-6055412D02*
X11077325Y-5883984D01*
X11267801Y-6083984D02*
X11267801Y-5979222D01*
X11267801Y-5979222D02*
X11258277Y-5960174D01*
X11258277Y-5960174D02*
X11239230Y-5950650D01*
X11239230Y-5950650D02*
X11201135Y-5950650D01*
X11201135Y-5950650D02*
X11182087Y-5960174D01*
X11267801Y-6074460D02*
X11248754Y-6083984D01*
X11248754Y-6083984D02*
X11201135Y-6083984D01*
X11201135Y-6083984D02*
X11182087Y-6074460D01*
X11182087Y-6074460D02*
X11172563Y-6055412D01*
X11172563Y-6055412D02*
X11172563Y-6036365D01*
X11172563Y-6036365D02*
X11182087Y-6017317D01*
X11182087Y-6017317D02*
X11201135Y-6007793D01*
X11201135Y-6007793D02*
X11248754Y-6007793D01*
X11248754Y-6007793D02*
X11267801Y-5998269D01*
X11334468Y-5950650D02*
X11410658Y-5950650D01*
X11363039Y-5883984D02*
X11363039Y-6055412D01*
X11363039Y-6055412D02*
X11372563Y-6074460D01*
X11372563Y-6074460D02*
X11391611Y-6083984D01*
X11391611Y-6083984D02*
X11410658Y-6083984D01*
X11553516Y-6074460D02*
X11534468Y-6083984D01*
X11534468Y-6083984D02*
X11496373Y-6083984D01*
X11496373Y-6083984D02*
X11477325Y-6074460D01*
X11477325Y-6074460D02*
X11467801Y-6055412D01*
X11467801Y-6055412D02*
X11467801Y-5979222D01*
X11467801Y-5979222D02*
X11477325Y-5960174D01*
X11477325Y-5960174D02*
X11496373Y-5950650D01*
X11496373Y-5950650D02*
X11534468Y-5950650D01*
X11534468Y-5950650D02*
X11553516Y-5960174D01*
X11553516Y-5960174D02*
X11563039Y-5979222D01*
X11563039Y-5979222D02*
X11563039Y-5998269D01*
X11563039Y-5998269D02*
X11467801Y-6017317D01*
X11734468Y-6083984D02*
X11734468Y-5883984D01*
X11734468Y-6074460D02*
X11715420Y-6083984D01*
X11715420Y-6083984D02*
X11677325Y-6083984D01*
X11677325Y-6083984D02*
X11658277Y-6074460D01*
X11658277Y-6074460D02*
X11648754Y-6064936D01*
X11648754Y-6064936D02*
X11639230Y-6045888D01*
X11639230Y-6045888D02*
X11639230Y-5988746D01*
X11639230Y-5988746D02*
X11648754Y-5969698D01*
X11648754Y-5969698D02*
X11658277Y-5960174D01*
X11658277Y-5960174D02*
X11677325Y-5950650D01*
X11677325Y-5950650D02*
X11715420Y-5950650D01*
X11715420Y-5950650D02*
X11734468Y-5960174D01*
X11810658Y-6160174D02*
X11820182Y-6150650D01*
X11820182Y-6150650D02*
X11839230Y-6122079D01*
X11839230Y-6122079D02*
X11848754Y-6103031D01*
X11848754Y-6103031D02*
X11858277Y-6074460D01*
X11858277Y-6074460D02*
X11867801Y-6026841D01*
X11867801Y-6026841D02*
X11867801Y-5988746D01*
X11867801Y-5988746D02*
X11858277Y-5941127D01*
X11858277Y-5941127D02*
X11848754Y-5912555D01*
X11848754Y-5912555D02*
X11839230Y-5893508D01*
X11839230Y-5893508D02*
X11820182Y-5864936D01*
X11820182Y-5864936D02*
X11810658Y-5855412D01*
M02*
