%TF.GenerationSoftware,KiCad,Pcbnew,9.0.0*%
%TF.CreationDate,2025-03-31T21:25:00-05:00*%
%TF.ProjectId,Boat_Volt_Reg,426f6174-5f56-46f6-9c74-5f5265672e6b,rev?*%
%TF.SameCoordinates,Original*%
%TF.FileFunction,Soldermask,Top*%
%TF.FilePolarity,Negative*%
%FSLAX46Y46*%
G04 Gerber Fmt 4.6, Leading zero omitted, Abs format (unit mm)*
G04 Created by KiCad (PCBNEW 9.0.0) date 2025-03-31 21:25:00*
%MOMM*%
%LPD*%
G01*
G04 APERTURE LIST*
G04 Aperture macros list*
%AMRoundRect*
0 Rectangle with rounded corners*
0 $1 Rounding radius*
0 $2 $3 $4 $5 $6 $7 $8 $9 X,Y pos of 4 corners*
0 Add a 4 corners polygon primitive as box body*
4,1,4,$2,$3,$4,$5,$6,$7,$8,$9,$2,$3,0*
0 Add four circle primitives for the rounded corners*
1,1,$1+$1,$2,$3*
1,1,$1+$1,$4,$5*
1,1,$1+$1,$6,$7*
1,1,$1+$1,$8,$9*
0 Add four rect primitives between the rounded corners*
20,1,$1+$1,$2,$3,$4,$5,0*
20,1,$1+$1,$4,$5,$6,$7,0*
20,1,$1+$1,$6,$7,$8,$9,0*
20,1,$1+$1,$8,$9,$2,$3,0*%
G04 Aperture macros list end*
%ADD10R,2.500000X2.500000*%
%ADD11C,2.500000*%
%ADD12RoundRect,0.250000X0.475000X-0.337500X0.475000X0.337500X-0.475000X0.337500X-0.475000X-0.337500X0*%
%ADD13RoundRect,0.250000X-0.337500X-0.475000X0.337500X-0.475000X0.337500X0.475000X-0.337500X0.475000X0*%
%ADD14RoundRect,0.250000X0.350000X0.450000X-0.350000X0.450000X-0.350000X-0.450000X0.350000X-0.450000X0*%
%ADD15C,3.800000*%
%ADD16RoundRect,0.250000X-0.250000X-0.475000X0.250000X-0.475000X0.250000X0.475000X-0.250000X0.475000X0*%
%ADD17RoundRect,0.250000X-0.350000X-0.450000X0.350000X-0.450000X0.350000X0.450000X-0.350000X0.450000X0*%
%ADD18RoundRect,0.250000X0.337500X0.475000X-0.337500X0.475000X-0.337500X-0.475000X0.337500X-0.475000X0*%
%ADD19R,0.800001X0.549999*%
%ADD20R,2.921000X3.251200*%
%ADD21O,1.400000X0.800000*%
%ADD22R,0.700000X0.300000*%
%ADD23O,0.650000X0.950000*%
%ADD24C,0.650000*%
G04 APERTURE END LIST*
D10*
%TO.C,J1*%
X66000000Y-49000000D03*
D11*
X71000000Y-49000000D03*
%TD*%
D12*
%TO.C,C1*%
X49500000Y-33537500D03*
X49500000Y-31462500D03*
%TD*%
D13*
%TO.C,Cinx1*%
X66962500Y-38500000D03*
X69037500Y-38500000D03*
%TD*%
D14*
%TO.C,Rfbt1*%
X75000000Y-35000000D03*
X73000000Y-35000000D03*
%TD*%
D15*
%TO.C,REF\u002A\u002A*%
X77500000Y-50500000D03*
%TD*%
D16*
%TO.C,Cin1*%
X67050000Y-43000000D03*
X68950000Y-43000000D03*
%TD*%
D17*
%TO.C,RRfbb1*%
X73000000Y-38500000D03*
X75000000Y-38500000D03*
%TD*%
D16*
%TO.C,Cin2*%
X74050000Y-43000000D03*
X75950000Y-43000000D03*
%TD*%
D15*
%TO.C,REF\u002A\u002A*%
X77500000Y-27500000D03*
%TD*%
%TO.C,REF\u002A\u002A*%
X39000000Y-50500000D03*
%TD*%
D18*
%TO.C,Cbst1*%
X73000000Y-30500000D03*
X70925000Y-30500000D03*
%TD*%
D19*
%TO.C,U1*%
X66850000Y-34000000D03*
X66850000Y-34950001D03*
X66850000Y-35899999D03*
X69400000Y-35899999D03*
X69400000Y-34950001D03*
X69400000Y-34000000D03*
%TD*%
D20*
%TO.C,L1*%
X61779900Y-39000000D03*
X53220100Y-39000000D03*
%TD*%
D21*
%TO.C,J2*%
X39085000Y-37990000D03*
X45035000Y-37630000D03*
X45035000Y-29370000D03*
X39085000Y-29010000D03*
D22*
X45245000Y-30500000D03*
X45245000Y-31000000D03*
X45245000Y-31500000D03*
X45245000Y-32000000D03*
X45245000Y-32500000D03*
X45245000Y-33000000D03*
X45245000Y-33500000D03*
X45245000Y-34000000D03*
X45245000Y-34500000D03*
X45245000Y-35000000D03*
X45245000Y-35500000D03*
X45245000Y-36000000D03*
X46945000Y-36250000D03*
X46945000Y-35750000D03*
X46945000Y-35250000D03*
X46945000Y-34750000D03*
X46945000Y-34250000D03*
X46945000Y-33750000D03*
X46945000Y-33250000D03*
X46945000Y-32750000D03*
X46945000Y-32250000D03*
X46945000Y-31750000D03*
X46945000Y-31250000D03*
X46945000Y-30750000D03*
D23*
X46285000Y-37100000D03*
D24*
X46285000Y-29900000D03*
%TD*%
M02*
