%TF.GenerationSoftware,KiCad,Pcbnew,9.0.0*%
%TF.CreationDate,2025-04-14T15:20:47-05:00*%
%TF.ProjectId,Boat_Volt_Reg,426f6174-5f56-46f6-9c74-5f5265672e6b,rev?*%
%TF.SameCoordinates,Original*%
%TF.FileFunction,Legend,Top*%
%TF.FilePolarity,Positive*%
%FSLAX46Y46*%
G04 Gerber Fmt 4.6, Leading zero omitted, Abs format (unit mm)*
G04 Created by KiCad (PCBNEW 9.0.0) date 2025-04-14 15:20:47*
%MOMM*%
%LPD*%
G01*
G04 APERTURE LIST*
%ADD10C,0.150000*%
%ADD11C,0.100000*%
%ADD12C,0.120000*%
%ADD13C,0.000000*%
%ADD14C,0.152400*%
%ADD15C,0.200000*%
G04 APERTURE END LIST*
D10*
X42289160Y-51822200D02*
X42432017Y-51869819D01*
X42432017Y-51869819D02*
X42670112Y-51869819D01*
X42670112Y-51869819D02*
X42765350Y-51822200D01*
X42765350Y-51822200D02*
X42812969Y-51774580D01*
X42812969Y-51774580D02*
X42860588Y-51679342D01*
X42860588Y-51679342D02*
X42860588Y-51584104D01*
X42860588Y-51584104D02*
X42812969Y-51488866D01*
X42812969Y-51488866D02*
X42765350Y-51441247D01*
X42765350Y-51441247D02*
X42670112Y-51393628D01*
X42670112Y-51393628D02*
X42479636Y-51346009D01*
X42479636Y-51346009D02*
X42384398Y-51298390D01*
X42384398Y-51298390D02*
X42336779Y-51250771D01*
X42336779Y-51250771D02*
X42289160Y-51155533D01*
X42289160Y-51155533D02*
X42289160Y-51060295D01*
X42289160Y-51060295D02*
X42336779Y-50965057D01*
X42336779Y-50965057D02*
X42384398Y-50917438D01*
X42384398Y-50917438D02*
X42479636Y-50869819D01*
X42479636Y-50869819D02*
X42717731Y-50869819D01*
X42717731Y-50869819D02*
X42860588Y-50917438D01*
X43432017Y-51869819D02*
X43336779Y-51822200D01*
X43336779Y-51822200D02*
X43289160Y-51726961D01*
X43289160Y-51726961D02*
X43289160Y-50869819D01*
X44241541Y-51203152D02*
X44241541Y-51869819D01*
X43812970Y-51203152D02*
X43812970Y-51726961D01*
X43812970Y-51726961D02*
X43860589Y-51822200D01*
X43860589Y-51822200D02*
X43955827Y-51869819D01*
X43955827Y-51869819D02*
X44098684Y-51869819D01*
X44098684Y-51869819D02*
X44193922Y-51822200D01*
X44193922Y-51822200D02*
X44241541Y-51774580D01*
X45146303Y-51203152D02*
X45146303Y-52012676D01*
X45146303Y-52012676D02*
X45098684Y-52107914D01*
X45098684Y-52107914D02*
X45051065Y-52155533D01*
X45051065Y-52155533D02*
X44955827Y-52203152D01*
X44955827Y-52203152D02*
X44812970Y-52203152D01*
X44812970Y-52203152D02*
X44717732Y-52155533D01*
X45146303Y-51822200D02*
X45051065Y-51869819D01*
X45051065Y-51869819D02*
X44860589Y-51869819D01*
X44860589Y-51869819D02*
X44765351Y-51822200D01*
X44765351Y-51822200D02*
X44717732Y-51774580D01*
X44717732Y-51774580D02*
X44670113Y-51679342D01*
X44670113Y-51679342D02*
X44670113Y-51393628D01*
X44670113Y-51393628D02*
X44717732Y-51298390D01*
X44717732Y-51298390D02*
X44765351Y-51250771D01*
X44765351Y-51250771D02*
X44860589Y-51203152D01*
X44860589Y-51203152D02*
X45051065Y-51203152D01*
X45051065Y-51203152D02*
X45146303Y-51250771D01*
X46051065Y-51203152D02*
X46051065Y-52012676D01*
X46051065Y-52012676D02*
X46003446Y-52107914D01*
X46003446Y-52107914D02*
X45955827Y-52155533D01*
X45955827Y-52155533D02*
X45860589Y-52203152D01*
X45860589Y-52203152D02*
X45717732Y-52203152D01*
X45717732Y-52203152D02*
X45622494Y-52155533D01*
X46051065Y-51822200D02*
X45955827Y-51869819D01*
X45955827Y-51869819D02*
X45765351Y-51869819D01*
X45765351Y-51869819D02*
X45670113Y-51822200D01*
X45670113Y-51822200D02*
X45622494Y-51774580D01*
X45622494Y-51774580D02*
X45574875Y-51679342D01*
X45574875Y-51679342D02*
X45574875Y-51393628D01*
X45574875Y-51393628D02*
X45622494Y-51298390D01*
X45622494Y-51298390D02*
X45670113Y-51250771D01*
X45670113Y-51250771D02*
X45765351Y-51203152D01*
X45765351Y-51203152D02*
X45955827Y-51203152D01*
X45955827Y-51203152D02*
X46051065Y-51250771D01*
X46432018Y-51203152D02*
X46670113Y-51869819D01*
X46908208Y-51203152D02*
X46670113Y-51869819D01*
X46670113Y-51869819D02*
X46574875Y-52107914D01*
X46574875Y-52107914D02*
X46527256Y-52155533D01*
X46527256Y-52155533D02*
X46432018Y-52203152D01*
X48384399Y-51346009D02*
X48527256Y-51393628D01*
X48527256Y-51393628D02*
X48574875Y-51441247D01*
X48574875Y-51441247D02*
X48622494Y-51536485D01*
X48622494Y-51536485D02*
X48622494Y-51679342D01*
X48622494Y-51679342D02*
X48574875Y-51774580D01*
X48574875Y-51774580D02*
X48527256Y-51822200D01*
X48527256Y-51822200D02*
X48432018Y-51869819D01*
X48432018Y-51869819D02*
X48051066Y-51869819D01*
X48051066Y-51869819D02*
X48051066Y-50869819D01*
X48051066Y-50869819D02*
X48384399Y-50869819D01*
X48384399Y-50869819D02*
X48479637Y-50917438D01*
X48479637Y-50917438D02*
X48527256Y-50965057D01*
X48527256Y-50965057D02*
X48574875Y-51060295D01*
X48574875Y-51060295D02*
X48574875Y-51155533D01*
X48574875Y-51155533D02*
X48527256Y-51250771D01*
X48527256Y-51250771D02*
X48479637Y-51298390D01*
X48479637Y-51298390D02*
X48384399Y-51346009D01*
X48384399Y-51346009D02*
X48051066Y-51346009D01*
X49479637Y-51203152D02*
X49479637Y-51869819D01*
X49051066Y-51203152D02*
X49051066Y-51726961D01*
X49051066Y-51726961D02*
X49098685Y-51822200D01*
X49098685Y-51822200D02*
X49193923Y-51869819D01*
X49193923Y-51869819D02*
X49336780Y-51869819D01*
X49336780Y-51869819D02*
X49432018Y-51822200D01*
X49432018Y-51822200D02*
X49479637Y-51774580D01*
X50384399Y-51822200D02*
X50289161Y-51869819D01*
X50289161Y-51869819D02*
X50098685Y-51869819D01*
X50098685Y-51869819D02*
X50003447Y-51822200D01*
X50003447Y-51822200D02*
X49955828Y-51774580D01*
X49955828Y-51774580D02*
X49908209Y-51679342D01*
X49908209Y-51679342D02*
X49908209Y-51393628D01*
X49908209Y-51393628D02*
X49955828Y-51298390D01*
X49955828Y-51298390D02*
X50003447Y-51250771D01*
X50003447Y-51250771D02*
X50098685Y-51203152D01*
X50098685Y-51203152D02*
X50289161Y-51203152D01*
X50289161Y-51203152D02*
X50384399Y-51250771D01*
X50812971Y-51869819D02*
X50812971Y-50869819D01*
X50908209Y-51488866D02*
X51193923Y-51869819D01*
X51193923Y-51203152D02*
X50812971Y-51584104D01*
X51527257Y-51203152D02*
X51765352Y-51869819D01*
X52003447Y-51203152D02*
X51765352Y-51869819D01*
X51765352Y-51869819D02*
X51670114Y-52107914D01*
X51670114Y-52107914D02*
X51622495Y-52155533D01*
X51622495Y-52155533D02*
X51527257Y-52203152D01*
X61666666Y-48454819D02*
X61666666Y-49169104D01*
X61666666Y-49169104D02*
X61619047Y-49311961D01*
X61619047Y-49311961D02*
X61523809Y-49407200D01*
X61523809Y-49407200D02*
X61380952Y-49454819D01*
X61380952Y-49454819D02*
X61285714Y-49454819D01*
X62666666Y-49454819D02*
X62095238Y-49454819D01*
X62380952Y-49454819D02*
X62380952Y-48454819D01*
X62380952Y-48454819D02*
X62285714Y-48597676D01*
X62285714Y-48597676D02*
X62190476Y-48692914D01*
X62190476Y-48692914D02*
X62095238Y-48740533D01*
X48009580Y-33857143D02*
X48057200Y-33904762D01*
X48057200Y-33904762D02*
X48104819Y-34047619D01*
X48104819Y-34047619D02*
X48104819Y-34142857D01*
X48104819Y-34142857D02*
X48057200Y-34285714D01*
X48057200Y-34285714D02*
X47961961Y-34380952D01*
X47961961Y-34380952D02*
X47866723Y-34428571D01*
X47866723Y-34428571D02*
X47676247Y-34476190D01*
X47676247Y-34476190D02*
X47533390Y-34476190D01*
X47533390Y-34476190D02*
X47342914Y-34428571D01*
X47342914Y-34428571D02*
X47247676Y-34380952D01*
X47247676Y-34380952D02*
X47152438Y-34285714D01*
X47152438Y-34285714D02*
X47104819Y-34142857D01*
X47104819Y-34142857D02*
X47104819Y-34047619D01*
X47104819Y-34047619D02*
X47152438Y-33904762D01*
X47152438Y-33904762D02*
X47200057Y-33857143D01*
X48104819Y-33285714D02*
X48057200Y-33380952D01*
X48057200Y-33380952D02*
X48009580Y-33428571D01*
X48009580Y-33428571D02*
X47914342Y-33476190D01*
X47914342Y-33476190D02*
X47628628Y-33476190D01*
X47628628Y-33476190D02*
X47533390Y-33428571D01*
X47533390Y-33428571D02*
X47485771Y-33380952D01*
X47485771Y-33380952D02*
X47438152Y-33285714D01*
X47438152Y-33285714D02*
X47438152Y-33142857D01*
X47438152Y-33142857D02*
X47485771Y-33047619D01*
X47485771Y-33047619D02*
X47533390Y-33000000D01*
X47533390Y-33000000D02*
X47628628Y-32952381D01*
X47628628Y-32952381D02*
X47914342Y-32952381D01*
X47914342Y-32952381D02*
X48009580Y-33000000D01*
X48009580Y-33000000D02*
X48057200Y-33047619D01*
X48057200Y-33047619D02*
X48104819Y-33142857D01*
X48104819Y-33142857D02*
X48104819Y-33285714D01*
X47438152Y-32095238D02*
X48104819Y-32095238D01*
X47438152Y-32523809D02*
X47961961Y-32523809D01*
X47961961Y-32523809D02*
X48057200Y-32476190D01*
X48057200Y-32476190D02*
X48104819Y-32380952D01*
X48104819Y-32380952D02*
X48104819Y-32238095D01*
X48104819Y-32238095D02*
X48057200Y-32142857D01*
X48057200Y-32142857D02*
X48009580Y-32095238D01*
X47438152Y-31761904D02*
X47438152Y-31380952D01*
X47104819Y-31619047D02*
X47961961Y-31619047D01*
X47961961Y-31619047D02*
X48057200Y-31571428D01*
X48057200Y-31571428D02*
X48104819Y-31476190D01*
X48104819Y-31476190D02*
X48104819Y-31380952D01*
X48104819Y-30523809D02*
X48104819Y-31095237D01*
X48104819Y-30809523D02*
X47104819Y-30809523D01*
X47104819Y-30809523D02*
X47247676Y-30904761D01*
X47247676Y-30904761D02*
X47342914Y-30999999D01*
X47342914Y-30999999D02*
X47390533Y-31095237D01*
X52009580Y-33894643D02*
X52057200Y-33942262D01*
X52057200Y-33942262D02*
X52104819Y-34085119D01*
X52104819Y-34085119D02*
X52104819Y-34180357D01*
X52104819Y-34180357D02*
X52057200Y-34323214D01*
X52057200Y-34323214D02*
X51961961Y-34418452D01*
X51961961Y-34418452D02*
X51866723Y-34466071D01*
X51866723Y-34466071D02*
X51676247Y-34513690D01*
X51676247Y-34513690D02*
X51533390Y-34513690D01*
X51533390Y-34513690D02*
X51342914Y-34466071D01*
X51342914Y-34466071D02*
X51247676Y-34418452D01*
X51247676Y-34418452D02*
X51152438Y-34323214D01*
X51152438Y-34323214D02*
X51104819Y-34180357D01*
X51104819Y-34180357D02*
X51104819Y-34085119D01*
X51104819Y-34085119D02*
X51152438Y-33942262D01*
X51152438Y-33942262D02*
X51200057Y-33894643D01*
X52104819Y-33323214D02*
X52057200Y-33418452D01*
X52057200Y-33418452D02*
X52009580Y-33466071D01*
X52009580Y-33466071D02*
X51914342Y-33513690D01*
X51914342Y-33513690D02*
X51628628Y-33513690D01*
X51628628Y-33513690D02*
X51533390Y-33466071D01*
X51533390Y-33466071D02*
X51485771Y-33418452D01*
X51485771Y-33418452D02*
X51438152Y-33323214D01*
X51438152Y-33323214D02*
X51438152Y-33180357D01*
X51438152Y-33180357D02*
X51485771Y-33085119D01*
X51485771Y-33085119D02*
X51533390Y-33037500D01*
X51533390Y-33037500D02*
X51628628Y-32989881D01*
X51628628Y-32989881D02*
X51914342Y-32989881D01*
X51914342Y-32989881D02*
X52009580Y-33037500D01*
X52009580Y-33037500D02*
X52057200Y-33085119D01*
X52057200Y-33085119D02*
X52104819Y-33180357D01*
X52104819Y-33180357D02*
X52104819Y-33323214D01*
X51438152Y-32132738D02*
X52104819Y-32132738D01*
X51438152Y-32561309D02*
X51961961Y-32561309D01*
X51961961Y-32561309D02*
X52057200Y-32513690D01*
X52057200Y-32513690D02*
X52104819Y-32418452D01*
X52104819Y-32418452D02*
X52104819Y-32275595D01*
X52104819Y-32275595D02*
X52057200Y-32180357D01*
X52057200Y-32180357D02*
X52009580Y-32132738D01*
X51438152Y-31799404D02*
X51438152Y-31418452D01*
X51104819Y-31656547D02*
X51961961Y-31656547D01*
X51961961Y-31656547D02*
X52057200Y-31608928D01*
X52057200Y-31608928D02*
X52104819Y-31513690D01*
X52104819Y-31513690D02*
X52104819Y-31418452D01*
X51200057Y-31132737D02*
X51152438Y-31085118D01*
X51152438Y-31085118D02*
X51104819Y-30989880D01*
X51104819Y-30989880D02*
X51104819Y-30751785D01*
X51104819Y-30751785D02*
X51152438Y-30656547D01*
X51152438Y-30656547D02*
X51200057Y-30608928D01*
X51200057Y-30608928D02*
X51295295Y-30561309D01*
X51295295Y-30561309D02*
X51390533Y-30561309D01*
X51390533Y-30561309D02*
X51533390Y-30608928D01*
X51533390Y-30608928D02*
X52104819Y-31180356D01*
X52104819Y-31180356D02*
X52104819Y-30561309D01*
X71238095Y-38859580D02*
X71190476Y-38907200D01*
X71190476Y-38907200D02*
X71047619Y-38954819D01*
X71047619Y-38954819D02*
X70952381Y-38954819D01*
X70952381Y-38954819D02*
X70809524Y-38907200D01*
X70809524Y-38907200D02*
X70714286Y-38811961D01*
X70714286Y-38811961D02*
X70666667Y-38716723D01*
X70666667Y-38716723D02*
X70619048Y-38526247D01*
X70619048Y-38526247D02*
X70619048Y-38383390D01*
X70619048Y-38383390D02*
X70666667Y-38192914D01*
X70666667Y-38192914D02*
X70714286Y-38097676D01*
X70714286Y-38097676D02*
X70809524Y-38002438D01*
X70809524Y-38002438D02*
X70952381Y-37954819D01*
X70952381Y-37954819D02*
X71047619Y-37954819D01*
X71047619Y-37954819D02*
X71190476Y-38002438D01*
X71190476Y-38002438D02*
X71238095Y-38050057D01*
X71666667Y-38954819D02*
X71666667Y-38288152D01*
X71666667Y-37954819D02*
X71619048Y-38002438D01*
X71619048Y-38002438D02*
X71666667Y-38050057D01*
X71666667Y-38050057D02*
X71714286Y-38002438D01*
X71714286Y-38002438D02*
X71666667Y-37954819D01*
X71666667Y-37954819D02*
X71666667Y-38050057D01*
X72142857Y-38288152D02*
X72142857Y-38954819D01*
X72142857Y-38383390D02*
X72190476Y-38335771D01*
X72190476Y-38335771D02*
X72285714Y-38288152D01*
X72285714Y-38288152D02*
X72428571Y-38288152D01*
X72428571Y-38288152D02*
X72523809Y-38335771D01*
X72523809Y-38335771D02*
X72571428Y-38431009D01*
X72571428Y-38431009D02*
X72571428Y-38954819D01*
X72952381Y-38954819D02*
X73476190Y-38288152D01*
X72952381Y-38288152D02*
X73476190Y-38954819D01*
X74380952Y-38954819D02*
X73809524Y-38954819D01*
X74095238Y-38954819D02*
X74095238Y-37954819D01*
X74095238Y-37954819D02*
X74000000Y-38097676D01*
X74000000Y-38097676D02*
X73904762Y-38192914D01*
X73904762Y-38192914D02*
X73809524Y-38240533D01*
X75309523Y-33454819D02*
X74976190Y-32978628D01*
X74738095Y-33454819D02*
X74738095Y-32454819D01*
X74738095Y-32454819D02*
X75119047Y-32454819D01*
X75119047Y-32454819D02*
X75214285Y-32502438D01*
X75214285Y-32502438D02*
X75261904Y-32550057D01*
X75261904Y-32550057D02*
X75309523Y-32645295D01*
X75309523Y-32645295D02*
X75309523Y-32788152D01*
X75309523Y-32788152D02*
X75261904Y-32883390D01*
X75261904Y-32883390D02*
X75214285Y-32931009D01*
X75214285Y-32931009D02*
X75119047Y-32978628D01*
X75119047Y-32978628D02*
X74738095Y-32978628D01*
X75595238Y-32788152D02*
X75976190Y-32788152D01*
X75738095Y-33454819D02*
X75738095Y-32597676D01*
X75738095Y-32597676D02*
X75785714Y-32502438D01*
X75785714Y-32502438D02*
X75880952Y-32454819D01*
X75880952Y-32454819D02*
X75976190Y-32454819D01*
X76309524Y-33454819D02*
X76309524Y-32454819D01*
X76309524Y-32835771D02*
X76404762Y-32788152D01*
X76404762Y-32788152D02*
X76595238Y-32788152D01*
X76595238Y-32788152D02*
X76690476Y-32835771D01*
X76690476Y-32835771D02*
X76738095Y-32883390D01*
X76738095Y-32883390D02*
X76785714Y-32978628D01*
X76785714Y-32978628D02*
X76785714Y-33264342D01*
X76785714Y-33264342D02*
X76738095Y-33359580D01*
X76738095Y-33359580D02*
X76690476Y-33407200D01*
X76690476Y-33407200D02*
X76595238Y-33454819D01*
X76595238Y-33454819D02*
X76404762Y-33454819D01*
X76404762Y-33454819D02*
X76309524Y-33407200D01*
X77071429Y-32788152D02*
X77452381Y-32788152D01*
X77214286Y-32454819D02*
X77214286Y-33311961D01*
X77214286Y-33311961D02*
X77261905Y-33407200D01*
X77261905Y-33407200D02*
X77357143Y-33454819D01*
X77357143Y-33454819D02*
X77452381Y-33454819D01*
X78309524Y-33454819D02*
X77738096Y-33454819D01*
X78023810Y-33454819D02*
X78023810Y-32454819D01*
X78023810Y-32454819D02*
X77928572Y-32597676D01*
X77928572Y-32597676D02*
X77833334Y-32692914D01*
X77833334Y-32692914D02*
X77738096Y-32740533D01*
X71642857Y-43859580D02*
X71595238Y-43907200D01*
X71595238Y-43907200D02*
X71452381Y-43954819D01*
X71452381Y-43954819D02*
X71357143Y-43954819D01*
X71357143Y-43954819D02*
X71214286Y-43907200D01*
X71214286Y-43907200D02*
X71119048Y-43811961D01*
X71119048Y-43811961D02*
X71071429Y-43716723D01*
X71071429Y-43716723D02*
X71023810Y-43526247D01*
X71023810Y-43526247D02*
X71023810Y-43383390D01*
X71023810Y-43383390D02*
X71071429Y-43192914D01*
X71071429Y-43192914D02*
X71119048Y-43097676D01*
X71119048Y-43097676D02*
X71214286Y-43002438D01*
X71214286Y-43002438D02*
X71357143Y-42954819D01*
X71357143Y-42954819D02*
X71452381Y-42954819D01*
X71452381Y-42954819D02*
X71595238Y-43002438D01*
X71595238Y-43002438D02*
X71642857Y-43050057D01*
X72071429Y-43954819D02*
X72071429Y-43288152D01*
X72071429Y-42954819D02*
X72023810Y-43002438D01*
X72023810Y-43002438D02*
X72071429Y-43050057D01*
X72071429Y-43050057D02*
X72119048Y-43002438D01*
X72119048Y-43002438D02*
X72071429Y-42954819D01*
X72071429Y-42954819D02*
X72071429Y-43050057D01*
X72547619Y-43288152D02*
X72547619Y-43954819D01*
X72547619Y-43383390D02*
X72595238Y-43335771D01*
X72595238Y-43335771D02*
X72690476Y-43288152D01*
X72690476Y-43288152D02*
X72833333Y-43288152D01*
X72833333Y-43288152D02*
X72928571Y-43335771D01*
X72928571Y-43335771D02*
X72976190Y-43431009D01*
X72976190Y-43431009D02*
X72976190Y-43954819D01*
X73976190Y-43954819D02*
X73404762Y-43954819D01*
X73690476Y-43954819D02*
X73690476Y-42954819D01*
X73690476Y-42954819D02*
X73595238Y-43097676D01*
X73595238Y-43097676D02*
X73500000Y-43192914D01*
X73500000Y-43192914D02*
X73404762Y-43240533D01*
X44645180Y-33166666D02*
X43930895Y-33166666D01*
X43930895Y-33166666D02*
X43788038Y-33119047D01*
X43788038Y-33119047D02*
X43692800Y-33023809D01*
X43692800Y-33023809D02*
X43645180Y-32880952D01*
X43645180Y-32880952D02*
X43645180Y-32785714D01*
X44549942Y-33595238D02*
X44597561Y-33642857D01*
X44597561Y-33642857D02*
X44645180Y-33738095D01*
X44645180Y-33738095D02*
X44645180Y-33976190D01*
X44645180Y-33976190D02*
X44597561Y-34071428D01*
X44597561Y-34071428D02*
X44549942Y-34119047D01*
X44549942Y-34119047D02*
X44454704Y-34166666D01*
X44454704Y-34166666D02*
X44359466Y-34166666D01*
X44359466Y-34166666D02*
X44216609Y-34119047D01*
X44216609Y-34119047D02*
X43645180Y-33547619D01*
X43645180Y-33547619D02*
X43645180Y-34166666D01*
X75142856Y-40954819D02*
X74809523Y-40478628D01*
X74571428Y-40954819D02*
X74571428Y-39954819D01*
X74571428Y-39954819D02*
X74952380Y-39954819D01*
X74952380Y-39954819D02*
X75047618Y-40002438D01*
X75047618Y-40002438D02*
X75095237Y-40050057D01*
X75095237Y-40050057D02*
X75142856Y-40145295D01*
X75142856Y-40145295D02*
X75142856Y-40288152D01*
X75142856Y-40288152D02*
X75095237Y-40383390D01*
X75095237Y-40383390D02*
X75047618Y-40431009D01*
X75047618Y-40431009D02*
X74952380Y-40478628D01*
X74952380Y-40478628D02*
X74571428Y-40478628D01*
X76142856Y-40954819D02*
X75809523Y-40478628D01*
X75571428Y-40954819D02*
X75571428Y-39954819D01*
X75571428Y-39954819D02*
X75952380Y-39954819D01*
X75952380Y-39954819D02*
X76047618Y-40002438D01*
X76047618Y-40002438D02*
X76095237Y-40050057D01*
X76095237Y-40050057D02*
X76142856Y-40145295D01*
X76142856Y-40145295D02*
X76142856Y-40288152D01*
X76142856Y-40288152D02*
X76095237Y-40383390D01*
X76095237Y-40383390D02*
X76047618Y-40431009D01*
X76047618Y-40431009D02*
X75952380Y-40478628D01*
X75952380Y-40478628D02*
X75571428Y-40478628D01*
X76428571Y-40288152D02*
X76809523Y-40288152D01*
X76571428Y-40954819D02*
X76571428Y-40097676D01*
X76571428Y-40097676D02*
X76619047Y-40002438D01*
X76619047Y-40002438D02*
X76714285Y-39954819D01*
X76714285Y-39954819D02*
X76809523Y-39954819D01*
X77142857Y-40954819D02*
X77142857Y-39954819D01*
X77142857Y-40335771D02*
X77238095Y-40288152D01*
X77238095Y-40288152D02*
X77428571Y-40288152D01*
X77428571Y-40288152D02*
X77523809Y-40335771D01*
X77523809Y-40335771D02*
X77571428Y-40383390D01*
X77571428Y-40383390D02*
X77619047Y-40478628D01*
X77619047Y-40478628D02*
X77619047Y-40764342D01*
X77619047Y-40764342D02*
X77571428Y-40859580D01*
X77571428Y-40859580D02*
X77523809Y-40907200D01*
X77523809Y-40907200D02*
X77428571Y-40954819D01*
X77428571Y-40954819D02*
X77238095Y-40954819D01*
X77238095Y-40954819D02*
X77142857Y-40907200D01*
X78047619Y-40954819D02*
X78047619Y-39954819D01*
X78047619Y-40335771D02*
X78142857Y-40288152D01*
X78142857Y-40288152D02*
X78333333Y-40288152D01*
X78333333Y-40288152D02*
X78428571Y-40335771D01*
X78428571Y-40335771D02*
X78476190Y-40383390D01*
X78476190Y-40383390D02*
X78523809Y-40478628D01*
X78523809Y-40478628D02*
X78523809Y-40764342D01*
X78523809Y-40764342D02*
X78476190Y-40859580D01*
X78476190Y-40859580D02*
X78428571Y-40907200D01*
X78428571Y-40907200D02*
X78333333Y-40954819D01*
X78333333Y-40954819D02*
X78142857Y-40954819D01*
X78142857Y-40954819D02*
X78047619Y-40907200D01*
X79476190Y-40954819D02*
X78904762Y-40954819D01*
X79190476Y-40954819D02*
X79190476Y-39954819D01*
X79190476Y-39954819D02*
X79095238Y-40097676D01*
X79095238Y-40097676D02*
X79000000Y-40192914D01*
X79000000Y-40192914D02*
X78904762Y-40240533D01*
X56333333Y-42454819D02*
X55857143Y-42454819D01*
X55857143Y-42454819D02*
X55857143Y-41454819D01*
X57190476Y-42454819D02*
X56619048Y-42454819D01*
X56904762Y-42454819D02*
X56904762Y-41454819D01*
X56904762Y-41454819D02*
X56809524Y-41597676D01*
X56809524Y-41597676D02*
X56714286Y-41692914D01*
X56714286Y-41692914D02*
X56619048Y-41740533D01*
X71642857Y-41359580D02*
X71595238Y-41407200D01*
X71595238Y-41407200D02*
X71452381Y-41454819D01*
X71452381Y-41454819D02*
X71357143Y-41454819D01*
X71357143Y-41454819D02*
X71214286Y-41407200D01*
X71214286Y-41407200D02*
X71119048Y-41311961D01*
X71119048Y-41311961D02*
X71071429Y-41216723D01*
X71071429Y-41216723D02*
X71023810Y-41026247D01*
X71023810Y-41026247D02*
X71023810Y-40883390D01*
X71023810Y-40883390D02*
X71071429Y-40692914D01*
X71071429Y-40692914D02*
X71119048Y-40597676D01*
X71119048Y-40597676D02*
X71214286Y-40502438D01*
X71214286Y-40502438D02*
X71357143Y-40454819D01*
X71357143Y-40454819D02*
X71452381Y-40454819D01*
X71452381Y-40454819D02*
X71595238Y-40502438D01*
X71595238Y-40502438D02*
X71642857Y-40550057D01*
X72071429Y-41454819D02*
X72071429Y-40788152D01*
X72071429Y-40454819D02*
X72023810Y-40502438D01*
X72023810Y-40502438D02*
X72071429Y-40550057D01*
X72071429Y-40550057D02*
X72119048Y-40502438D01*
X72119048Y-40502438D02*
X72071429Y-40454819D01*
X72071429Y-40454819D02*
X72071429Y-40550057D01*
X72547619Y-40788152D02*
X72547619Y-41454819D01*
X72547619Y-40883390D02*
X72595238Y-40835771D01*
X72595238Y-40835771D02*
X72690476Y-40788152D01*
X72690476Y-40788152D02*
X72833333Y-40788152D01*
X72833333Y-40788152D02*
X72928571Y-40835771D01*
X72928571Y-40835771D02*
X72976190Y-40931009D01*
X72976190Y-40931009D02*
X72976190Y-41454819D01*
X73404762Y-40550057D02*
X73452381Y-40502438D01*
X73452381Y-40502438D02*
X73547619Y-40454819D01*
X73547619Y-40454819D02*
X73785714Y-40454819D01*
X73785714Y-40454819D02*
X73880952Y-40502438D01*
X73880952Y-40502438D02*
X73928571Y-40550057D01*
X73928571Y-40550057D02*
X73976190Y-40645295D01*
X73976190Y-40645295D02*
X73976190Y-40740533D01*
X73976190Y-40740533D02*
X73928571Y-40883390D01*
X73928571Y-40883390D02*
X73357143Y-41454819D01*
X73357143Y-41454819D02*
X73976190Y-41454819D01*
X70652975Y-28359580D02*
X70605356Y-28407200D01*
X70605356Y-28407200D02*
X70462499Y-28454819D01*
X70462499Y-28454819D02*
X70367261Y-28454819D01*
X70367261Y-28454819D02*
X70224404Y-28407200D01*
X70224404Y-28407200D02*
X70129166Y-28311961D01*
X70129166Y-28311961D02*
X70081547Y-28216723D01*
X70081547Y-28216723D02*
X70033928Y-28026247D01*
X70033928Y-28026247D02*
X70033928Y-27883390D01*
X70033928Y-27883390D02*
X70081547Y-27692914D01*
X70081547Y-27692914D02*
X70129166Y-27597676D01*
X70129166Y-27597676D02*
X70224404Y-27502438D01*
X70224404Y-27502438D02*
X70367261Y-27454819D01*
X70367261Y-27454819D02*
X70462499Y-27454819D01*
X70462499Y-27454819D02*
X70605356Y-27502438D01*
X70605356Y-27502438D02*
X70652975Y-27550057D01*
X71081547Y-28454819D02*
X71081547Y-27454819D01*
X71081547Y-27835771D02*
X71176785Y-27788152D01*
X71176785Y-27788152D02*
X71367261Y-27788152D01*
X71367261Y-27788152D02*
X71462499Y-27835771D01*
X71462499Y-27835771D02*
X71510118Y-27883390D01*
X71510118Y-27883390D02*
X71557737Y-27978628D01*
X71557737Y-27978628D02*
X71557737Y-28264342D01*
X71557737Y-28264342D02*
X71510118Y-28359580D01*
X71510118Y-28359580D02*
X71462499Y-28407200D01*
X71462499Y-28407200D02*
X71367261Y-28454819D01*
X71367261Y-28454819D02*
X71176785Y-28454819D01*
X71176785Y-28454819D02*
X71081547Y-28407200D01*
X71938690Y-28407200D02*
X72033928Y-28454819D01*
X72033928Y-28454819D02*
X72224404Y-28454819D01*
X72224404Y-28454819D02*
X72319642Y-28407200D01*
X72319642Y-28407200D02*
X72367261Y-28311961D01*
X72367261Y-28311961D02*
X72367261Y-28264342D01*
X72367261Y-28264342D02*
X72319642Y-28169104D01*
X72319642Y-28169104D02*
X72224404Y-28121485D01*
X72224404Y-28121485D02*
X72081547Y-28121485D01*
X72081547Y-28121485D02*
X71986309Y-28073866D01*
X71986309Y-28073866D02*
X71938690Y-27978628D01*
X71938690Y-27978628D02*
X71938690Y-27931009D01*
X71938690Y-27931009D02*
X71986309Y-27835771D01*
X71986309Y-27835771D02*
X72081547Y-27788152D01*
X72081547Y-27788152D02*
X72224404Y-27788152D01*
X72224404Y-27788152D02*
X72319642Y-27835771D01*
X72652976Y-27788152D02*
X73033928Y-27788152D01*
X72795833Y-27454819D02*
X72795833Y-28311961D01*
X72795833Y-28311961D02*
X72843452Y-28407200D01*
X72843452Y-28407200D02*
X72938690Y-28454819D01*
X72938690Y-28454819D02*
X73033928Y-28454819D01*
X73891071Y-28454819D02*
X73319643Y-28454819D01*
X73605357Y-28454819D02*
X73605357Y-27454819D01*
X73605357Y-27454819D02*
X73510119Y-27597676D01*
X73510119Y-27597676D02*
X73414881Y-27692914D01*
X73414881Y-27692914D02*
X73319643Y-27740533D01*
X67363096Y-31454819D02*
X67363096Y-32264342D01*
X67363096Y-32264342D02*
X67410715Y-32359580D01*
X67410715Y-32359580D02*
X67458334Y-32407200D01*
X67458334Y-32407200D02*
X67553572Y-32454819D01*
X67553572Y-32454819D02*
X67744048Y-32454819D01*
X67744048Y-32454819D02*
X67839286Y-32407200D01*
X67839286Y-32407200D02*
X67886905Y-32359580D01*
X67886905Y-32359580D02*
X67934524Y-32264342D01*
X67934524Y-32264342D02*
X67934524Y-31454819D01*
X68934524Y-32454819D02*
X68363096Y-32454819D01*
X68648810Y-32454819D02*
X68648810Y-31454819D01*
X68648810Y-31454819D02*
X68553572Y-31597676D01*
X68553572Y-31597676D02*
X68458334Y-31692914D01*
X68458334Y-31692914D02*
X68363096Y-31740533D01*
D11*
%TO.C,J1*%
X63400000Y-45150000D02*
X63400000Y-45600000D01*
X63400000Y-45150000D02*
X63900000Y-45150000D01*
X63400000Y-52850000D02*
X63400000Y-52350000D01*
X63400000Y-52850000D02*
X63900000Y-52850000D01*
X73600000Y-45150000D02*
X73100000Y-45150000D01*
X73600000Y-45150000D02*
X73600000Y-45600000D01*
X73600000Y-52850000D02*
X73100000Y-52850000D01*
X73600000Y-52850000D02*
X73600000Y-52350000D01*
D12*
%TO.C,Cout1*%
X48590000Y-33211252D02*
X48590000Y-31788748D01*
X50410000Y-33211252D02*
X50410000Y-31788748D01*
%TO.C,Cout2*%
X52590000Y-33248752D02*
X52590000Y-31826248D01*
X54410000Y-33248752D02*
X54410000Y-31826248D01*
%TO.C,Cinx1*%
X67288748Y-37590000D02*
X68711252Y-37590000D01*
X67288748Y-39410000D02*
X68711252Y-39410000D01*
D13*
%TO.C,G\u002A\u002A\u002A*%
G36*
X60317731Y-27744953D02*
G01*
X60328123Y-27750646D01*
X60369047Y-27783155D01*
X60393613Y-27822865D01*
X60403747Y-27874036D01*
X60403392Y-27917303D01*
X60396086Y-27974374D01*
X60382315Y-28013001D01*
X60377498Y-28020466D01*
X60337118Y-28058318D01*
X60285662Y-28080747D01*
X60227980Y-28087100D01*
X60168921Y-28076722D01*
X60122249Y-28054884D01*
X60089665Y-28031427D01*
X60071898Y-28009171D01*
X60064007Y-27984385D01*
X60056753Y-27957287D01*
X60048366Y-27940967D01*
X60047165Y-27939982D01*
X60038473Y-27923286D01*
X60037543Y-27893969D01*
X60043505Y-27859340D01*
X60055489Y-27826708D01*
X60061970Y-27815561D01*
X60100694Y-27775475D01*
X60151500Y-27746940D01*
X60208521Y-27731387D01*
X60265887Y-27730247D01*
X60317731Y-27744953D01*
G37*
G36*
X59499705Y-27893068D02*
G01*
X59530374Y-27897582D01*
X59552655Y-27906821D01*
X59565007Y-27915418D01*
X59600081Y-27956614D01*
X59620117Y-28012445D01*
X59624882Y-28064433D01*
X59621881Y-28102801D01*
X59610204Y-28134120D01*
X59589295Y-28165230D01*
X59561143Y-28196489D01*
X59529950Y-28222650D01*
X59515995Y-28231214D01*
X59475471Y-28243678D01*
X59423183Y-28248939D01*
X59367965Y-28246670D01*
X59324435Y-28238318D01*
X59294294Y-28223122D01*
X59265421Y-28198898D01*
X59261994Y-28195027D01*
X59246896Y-28174247D01*
X59238390Y-28152286D01*
X59234677Y-28121992D01*
X59233945Y-28083556D01*
X59234859Y-28040849D01*
X59238976Y-28012308D01*
X59248364Y-27990412D01*
X59265090Y-27967637D01*
X59266147Y-27966352D01*
X59303355Y-27929647D01*
X59345756Y-27906441D01*
X59398736Y-27894601D01*
X59454024Y-27891876D01*
X59499705Y-27893068D01*
G37*
G36*
X60359442Y-28602738D02*
G01*
X60401476Y-28619811D01*
X60446640Y-28656489D01*
X60448245Y-28658085D01*
X60474522Y-28685675D01*
X60488084Y-28705877D01*
X60492202Y-28726004D01*
X60490288Y-28752168D01*
X60471390Y-28848134D01*
X60438963Y-28928869D01*
X60391795Y-28997033D01*
X60366478Y-29023331D01*
X60326549Y-29054230D01*
X60269155Y-29089055D01*
X60197860Y-29126301D01*
X60116228Y-29164465D01*
X60027824Y-29202043D01*
X59936210Y-29237530D01*
X59844952Y-29269423D01*
X59757613Y-29296218D01*
X59677758Y-29316410D01*
X59666062Y-29318897D01*
X59616077Y-29328758D01*
X59580996Y-29333810D01*
X59554555Y-29334106D01*
X59530491Y-29329697D01*
X59502539Y-29320635D01*
X59501490Y-29320262D01*
X59448705Y-29293179D01*
X59410533Y-29253747D01*
X59385811Y-29200008D01*
X59373371Y-29130003D01*
X59371737Y-29102276D01*
X59371660Y-29068942D01*
X59376669Y-29045748D01*
X59390283Y-29024430D01*
X59416019Y-28996720D01*
X59417162Y-28995554D01*
X59464280Y-28956240D01*
X59511652Y-28935310D01*
X59512713Y-28935039D01*
X59564768Y-28919288D01*
X59631433Y-28895147D01*
X59708237Y-28864602D01*
X59790711Y-28829642D01*
X59874384Y-28792252D01*
X59954787Y-28754421D01*
X60027451Y-28718135D01*
X60087905Y-28685381D01*
X60124411Y-28663098D01*
X60172311Y-28637856D01*
X60229062Y-28617724D01*
X60286981Y-28604675D01*
X60338383Y-28600683D01*
X60359442Y-28602738D01*
G37*
G36*
X60563897Y-25298253D02*
G01*
X60618540Y-25308503D01*
X60629241Y-25312156D01*
X60685197Y-25343642D01*
X60738730Y-25392765D01*
X60785859Y-25455497D01*
X60805835Y-25490819D01*
X60832566Y-25557790D01*
X60840795Y-25621142D01*
X60830867Y-25687322D01*
X60818389Y-25725672D01*
X60800677Y-25764834D01*
X60777610Y-25796157D01*
X60742872Y-25827826D01*
X60734229Y-25834716D01*
X60693409Y-25864619D01*
X60649533Y-25893449D01*
X60618249Y-25911596D01*
X60563689Y-25940209D01*
X60528851Y-26066299D01*
X60514389Y-26120856D01*
X60497039Y-26189774D01*
X60478481Y-26266179D01*
X60460394Y-26343199D01*
X60450241Y-26387857D01*
X60430542Y-26474995D01*
X60414079Y-26545097D01*
X60399600Y-26602376D01*
X60385851Y-26651044D01*
X60371578Y-26695316D01*
X60355527Y-26739403D01*
X60336446Y-26787520D01*
X60318217Y-26831600D01*
X60298326Y-26879967D01*
X60282282Y-26920414D01*
X60271553Y-26949126D01*
X60267611Y-26962289D01*
X60267712Y-26962700D01*
X60278891Y-26967440D01*
X60304008Y-26977140D01*
X60324577Y-26984850D01*
X60363093Y-27004386D01*
X60409416Y-27036002D01*
X60454889Y-27073324D01*
X60501168Y-27113516D01*
X60553555Y-27157237D01*
X60601939Y-27196074D01*
X60609339Y-27201817D01*
X60661257Y-27244123D01*
X60725250Y-27300041D01*
X60798734Y-27367164D01*
X60879120Y-27443083D01*
X60963823Y-27525388D01*
X61050256Y-27611672D01*
X61058990Y-27620523D01*
X61151620Y-27721709D01*
X61227593Y-27821517D01*
X61290793Y-27925630D01*
X61344572Y-28038477D01*
X61366246Y-28088979D01*
X61389301Y-28141691D01*
X61409145Y-28186131D01*
X61411137Y-28190508D01*
X61436664Y-28259282D01*
X61458611Y-28343838D01*
X61475761Y-28438369D01*
X61486899Y-28537068D01*
X61488481Y-28559726D01*
X61489822Y-28629521D01*
X61484388Y-28697852D01*
X61471241Y-28769005D01*
X61449442Y-28847266D01*
X61418052Y-28936918D01*
X61390419Y-29007391D01*
X61358687Y-29081374D01*
X61326688Y-29145081D01*
X61291351Y-29202856D01*
X61249605Y-29259042D01*
X61198379Y-29317983D01*
X61134602Y-29384021D01*
X61099884Y-29418290D01*
X61038464Y-29476855D01*
X60985333Y-29523538D01*
X60934464Y-29562790D01*
X60879829Y-29599060D01*
X60815400Y-29636799D01*
X60770542Y-29661454D01*
X60685287Y-29707297D01*
X60615180Y-29744136D01*
X60556485Y-29773685D01*
X60505461Y-29797661D01*
X60458370Y-29817780D01*
X60411474Y-29835757D01*
X60361033Y-29853309D01*
X60330739Y-29863301D01*
X60268127Y-29883815D01*
X60205714Y-29904503D01*
X60149733Y-29923284D01*
X60106417Y-29938078D01*
X60097263Y-29941272D01*
X60051627Y-29957294D01*
X59995199Y-29977069D01*
X59937697Y-29997193D01*
X59917096Y-30004395D01*
X59862313Y-30022070D01*
X59804969Y-30038188D01*
X59754525Y-30050166D01*
X59737917Y-30053300D01*
X59698126Y-30060911D01*
X59644224Y-30072559D01*
X59583090Y-30086700D01*
X59521602Y-30101787D01*
X59517671Y-30102786D01*
X59461463Y-30116488D01*
X59410041Y-30127914D01*
X59368450Y-30136018D01*
X59341735Y-30139756D01*
X59338492Y-30139889D01*
X59308510Y-30142927D01*
X59268907Y-30150560D01*
X59244805Y-30156615D01*
X59210505Y-30163422D01*
X59160870Y-30169774D01*
X59102280Y-30174993D01*
X59041119Y-30178403D01*
X59038477Y-30178500D01*
X58968448Y-30181464D01*
X58900331Y-30185379D01*
X58829199Y-30190638D01*
X58750122Y-30197634D01*
X58658172Y-30206761D01*
X58576955Y-30215332D01*
X58480965Y-30224281D01*
X58367124Y-30232611D01*
X58239031Y-30240217D01*
X58100283Y-30246997D01*
X57954479Y-30252848D01*
X57805216Y-30257668D01*
X57656093Y-30261353D01*
X57510707Y-30263800D01*
X57372657Y-30264907D01*
X57245540Y-30264571D01*
X57132955Y-30262689D01*
X57040358Y-30259255D01*
X56916080Y-30252422D01*
X56810288Y-30245528D01*
X56719751Y-30238228D01*
X56641239Y-30230176D01*
X56571521Y-30221030D01*
X56507366Y-30210443D01*
X56445543Y-30198072D01*
X56425848Y-30193708D01*
X56320837Y-30169832D01*
X56234469Y-30149661D01*
X56164186Y-30132175D01*
X56107432Y-30116354D01*
X56061649Y-30101181D01*
X56024282Y-30085636D01*
X55992772Y-30068699D01*
X55964565Y-30049352D01*
X55937101Y-30026575D01*
X55907826Y-29999349D01*
X55886586Y-29978757D01*
X55824257Y-29912942D01*
X55779895Y-29853325D01*
X55751974Y-29796528D01*
X55738967Y-29739175D01*
X55739124Y-29713879D01*
X55835213Y-29713879D01*
X55838211Y-29753646D01*
X55849274Y-29789771D01*
X55870833Y-29826541D01*
X55905321Y-29868240D01*
X55947379Y-29911512D01*
X55983087Y-29945251D01*
X56016404Y-29972366D01*
X56051006Y-29994474D01*
X56090565Y-30013189D01*
X56138755Y-30030131D01*
X56199250Y-30046913D01*
X56275723Y-30065154D01*
X56318212Y-30074687D01*
X56419278Y-30096565D01*
X56508597Y-30114496D01*
X56590596Y-30129022D01*
X56669701Y-30140687D01*
X56750341Y-30150035D01*
X56836941Y-30157609D01*
X56933930Y-30163952D01*
X57045733Y-30169609D01*
X57116374Y-30172675D01*
X57177858Y-30174986D01*
X57237440Y-30176626D01*
X57297790Y-30177562D01*
X57361581Y-30177761D01*
X57431481Y-30177190D01*
X57510162Y-30175817D01*
X57600295Y-30173609D01*
X57704550Y-30170532D01*
X57825597Y-30166554D01*
X57941684Y-30162511D01*
X58073613Y-30157469D01*
X58188867Y-30152179D01*
X58292488Y-30146294D01*
X58389518Y-30139465D01*
X58485002Y-30131345D01*
X58583980Y-30121587D01*
X58669260Y-30112345D01*
X58733687Y-30106024D01*
X58810474Y-30099846D01*
X58890267Y-30094497D01*
X58963715Y-30090660D01*
X58967892Y-30090485D01*
X59027345Y-30087475D01*
X59080914Y-30083705D01*
X59123968Y-30079580D01*
X59151873Y-30075502D01*
X59157930Y-30073913D01*
X59180892Y-30068246D01*
X59218673Y-30061680D01*
X59264467Y-30055345D01*
X59282173Y-30053276D01*
X59311414Y-30049697D01*
X59342366Y-30045076D01*
X59377491Y-30038885D01*
X59419253Y-30030600D01*
X59470115Y-30019694D01*
X59532539Y-30005641D01*
X59608989Y-29987916D01*
X59701929Y-29965991D01*
X59797952Y-29943131D01*
X59847278Y-29929607D01*
X59907760Y-29910451D01*
X59970578Y-29888555D01*
X60011470Y-29873049D01*
X60060305Y-29854258D01*
X60102763Y-29838892D01*
X60134242Y-29828552D01*
X60150027Y-29824839D01*
X60165762Y-29821391D01*
X60197876Y-29811901D01*
X60242302Y-29797651D01*
X60294971Y-29779924D01*
X60319855Y-29771302D01*
X60394399Y-29742492D01*
X60481181Y-29704485D01*
X60574409Y-29660186D01*
X60668287Y-29612502D01*
X60757022Y-29564340D01*
X60834819Y-29518606D01*
X60874650Y-29492994D01*
X60910512Y-29465585D01*
X60956456Y-29425697D01*
X61008427Y-29377337D01*
X61062370Y-29324514D01*
X61114232Y-29271237D01*
X61159957Y-29221515D01*
X61195491Y-29179356D01*
X61206135Y-29165241D01*
X61235390Y-29118122D01*
X61267635Y-29055691D01*
X61300396Y-28983658D01*
X61331197Y-28907730D01*
X61357566Y-28833617D01*
X61374486Y-28776912D01*
X61388436Y-28698383D01*
X61393658Y-28607067D01*
X61390597Y-28509861D01*
X61379698Y-28413666D01*
X61361405Y-28325380D01*
X61341423Y-28264277D01*
X61293694Y-28149430D01*
X61249791Y-28052050D01*
X61207639Y-27968704D01*
X61165165Y-27895957D01*
X61120293Y-27830375D01*
X61070949Y-27768524D01*
X61015057Y-27706969D01*
X60987914Y-27679152D01*
X60912617Y-27604203D01*
X60837980Y-27531476D01*
X60766434Y-27463238D01*
X60700408Y-27401753D01*
X60642334Y-27349288D01*
X60594642Y-27308107D01*
X60561848Y-27282005D01*
X60526868Y-27254680D01*
X60483669Y-27218813D01*
X60439839Y-27180757D01*
X60425643Y-27167994D01*
X60365166Y-27117065D01*
X60312978Y-27082614D01*
X60265678Y-27062812D01*
X60219864Y-27055834D01*
X60216716Y-27055779D01*
X60183883Y-27053841D01*
X60161807Y-27047101D01*
X60150335Y-27033098D01*
X60149312Y-27009374D01*
X60158586Y-26973467D01*
X60178002Y-26922918D01*
X60204593Y-26861589D01*
X60234828Y-26792160D01*
X60259717Y-26730930D01*
X60280818Y-26672980D01*
X60299689Y-26613388D01*
X60317888Y-26547233D01*
X60336972Y-26469594D01*
X60358499Y-26375550D01*
X60358592Y-26375136D01*
X60375530Y-26300841D01*
X60392857Y-26227204D01*
X60409356Y-26159223D01*
X60423812Y-26101895D01*
X60435011Y-26060218D01*
X60436037Y-26056647D01*
X60449358Y-26008779D01*
X60461011Y-25963385D01*
X60468963Y-25928493D01*
X60470250Y-25921692D01*
X60475216Y-25900130D01*
X60484035Y-25884129D01*
X60500993Y-25869660D01*
X60530379Y-25852696D01*
X60559760Y-25837623D01*
X60637077Y-25792968D01*
X60693450Y-25747369D01*
X60729653Y-25700107D01*
X60743061Y-25666968D01*
X60749577Y-25631475D01*
X60750392Y-25600223D01*
X60749188Y-25592711D01*
X60732041Y-25547993D01*
X60704287Y-25499581D01*
X60671096Y-25455147D01*
X60637643Y-25422365D01*
X60631271Y-25417812D01*
X60606393Y-25403064D01*
X60582433Y-25394374D01*
X60552362Y-25390240D01*
X60509150Y-25389156D01*
X60497441Y-25389177D01*
X60451223Y-25390089D01*
X60419641Y-25393496D01*
X60395627Y-25401107D01*
X60372110Y-25414636D01*
X60361128Y-25422180D01*
X60304720Y-25473144D01*
X60265736Y-25535383D01*
X60242807Y-25611186D01*
X60240747Y-25623352D01*
X60234885Y-25673140D01*
X60235614Y-25709040D01*
X60241860Y-25734843D01*
X60250845Y-25763433D01*
X60253253Y-25787461D01*
X60248195Y-25813674D01*
X60234782Y-25848820D01*
X60223447Y-25874568D01*
X60207752Y-25912586D01*
X60188164Y-25964518D01*
X60167184Y-26023519D01*
X60147381Y-26082544D01*
X60129319Y-26136919D01*
X60112076Y-26186364D01*
X60097464Y-26225843D01*
X60087294Y-26250320D01*
X60086354Y-26252211D01*
X60075709Y-26275852D01*
X60060328Y-26313810D01*
X60042668Y-26359910D01*
X60032135Y-26388536D01*
X60009913Y-26447361D01*
X59984027Y-26512047D01*
X59959067Y-26571218D01*
X59951966Y-26587260D01*
X59928206Y-26642364D01*
X59903509Y-26703299D01*
X59882534Y-26758509D01*
X59879165Y-26767934D01*
X59853692Y-26835214D01*
X59830804Y-26882832D01*
X59808713Y-26912399D01*
X59785631Y-26925526D01*
X59759769Y-26923825D01*
X59729339Y-26908907D01*
X59725472Y-26906421D01*
X59708938Y-26898139D01*
X59686463Y-26892584D01*
X59653838Y-26889271D01*
X59606860Y-26887718D01*
X59559946Y-26887417D01*
X59502008Y-26887719D01*
X59460554Y-26889192D01*
X59430350Y-26892638D01*
X59406163Y-26898862D01*
X59382762Y-26908666D01*
X59365666Y-26917250D01*
X59331220Y-26933445D01*
X59302117Y-26944290D01*
X59288372Y-26947113D01*
X59277134Y-26943925D01*
X59264250Y-26933462D01*
X59249041Y-26914374D01*
X59230826Y-26885312D01*
X59208926Y-26844927D01*
X59182661Y-26791870D01*
X59151351Y-26724792D01*
X59114317Y-26642343D01*
X59070878Y-26543174D01*
X59020355Y-26425937D01*
X58990160Y-26355279D01*
X58902967Y-26166273D01*
X58809960Y-25994099D01*
X58804045Y-25984067D01*
X58774183Y-25932872D01*
X58754514Y-25895959D01*
X58743735Y-25869185D01*
X58740545Y-25848405D01*
X58743642Y-25829474D01*
X58750048Y-25812208D01*
X58770432Y-25740595D01*
X58770783Y-25674551D01*
X58752440Y-25615786D01*
X58716743Y-25566011D01*
X58665034Y-25526936D01*
X58598651Y-25500272D01*
X58518934Y-25487730D01*
X58495285Y-25486986D01*
X58419838Y-25495238D01*
X58355491Y-25521385D01*
X58301591Y-25565958D01*
X58257485Y-25629484D01*
X58224744Y-25705859D01*
X58211279Y-25747721D01*
X58205008Y-25776722D01*
X58205162Y-25800205D01*
X58210971Y-25825516D01*
X58211888Y-25828614D01*
X58228287Y-25865600D01*
X58252753Y-25902922D01*
X58261107Y-25912820D01*
X58296751Y-25951713D01*
X58359977Y-25939016D01*
X58399899Y-25933675D01*
X58435131Y-25936046D01*
X58467566Y-25947877D01*
X58499094Y-25970914D01*
X58531607Y-26006904D01*
X58566997Y-26057593D01*
X58607155Y-26124729D01*
X58653971Y-26210058D01*
X58654462Y-26210976D01*
X58723225Y-26346834D01*
X58785060Y-26484974D01*
X58843078Y-26632655D01*
X58881441Y-26740786D01*
X58907274Y-26817261D01*
X58926319Y-26876241D01*
X58939301Y-26920608D01*
X58946946Y-26953246D01*
X58949979Y-26977035D01*
X58949127Y-26994860D01*
X58947378Y-27002765D01*
X58932392Y-27026791D01*
X58898729Y-27060035D01*
X58847093Y-27101919D01*
X58778190Y-27151865D01*
X58707267Y-27199768D01*
X58652753Y-27236137D01*
X58593747Y-27276303D01*
X58538903Y-27314343D01*
X58510454Y-27334500D01*
X58469998Y-27363474D01*
X58417457Y-27401041D01*
X58358440Y-27443194D01*
X58298552Y-27485927D01*
X58271548Y-27505180D01*
X58178488Y-27571935D01*
X58099538Y-27629584D01*
X58030756Y-27681095D01*
X57968200Y-27729435D01*
X57907925Y-27777573D01*
X57887387Y-27794309D01*
X57839906Y-27832135D01*
X57784301Y-27874871D01*
X57730311Y-27915074D01*
X57713822Y-27927008D01*
X57665619Y-27963265D01*
X57609917Y-28007790D01*
X57554959Y-28053890D01*
X57523783Y-28081310D01*
X57472190Y-28126356D01*
X57411914Y-28176743D01*
X57351882Y-28225097D01*
X57317272Y-28251905D01*
X57273468Y-28285728D01*
X57234323Y-28317088D01*
X57204091Y-28342501D01*
X57187023Y-28358489D01*
X57186960Y-28358560D01*
X57167308Y-28377415D01*
X57134436Y-28405681D01*
X57092643Y-28439935D01*
X57046228Y-28476756D01*
X56999491Y-28512719D01*
X56956732Y-28544403D01*
X56929196Y-28563749D01*
X56898194Y-28588381D01*
X56860368Y-28623692D01*
X56822379Y-28663337D01*
X56810429Y-28676885D01*
X56770997Y-28720176D01*
X56726702Y-28764874D01*
X56685750Y-28802777D01*
X56677257Y-28810012D01*
X56645095Y-28838470D01*
X56602314Y-28878781D01*
X56551618Y-28928165D01*
X56495712Y-28983844D01*
X56437302Y-29043041D01*
X56379092Y-29102976D01*
X56323787Y-29160872D01*
X56274091Y-29213949D01*
X56232711Y-29259429D01*
X56202351Y-29294533D01*
X56189120Y-29311422D01*
X56167144Y-29338205D01*
X56132711Y-29375515D01*
X56089604Y-29419458D01*
X56041607Y-29466139D01*
X56010741Y-29495036D01*
X55953553Y-29547858D01*
X55910390Y-29588462D01*
X55879275Y-29619312D01*
X55858231Y-29642874D01*
X55845280Y-29661613D01*
X55838445Y-29677995D01*
X55835749Y-29694484D01*
X55835215Y-29713546D01*
X55835213Y-29713879D01*
X55739124Y-29713879D01*
X55739347Y-29677888D01*
X55741795Y-29658546D01*
X55745219Y-29641160D01*
X55751300Y-29625059D01*
X55762252Y-29607664D01*
X55780286Y-29586397D01*
X55807617Y-29558679D01*
X55846457Y-29521930D01*
X55899018Y-29473573D01*
X55905962Y-29467224D01*
X55958926Y-29417715D01*
X56009973Y-29367994D01*
X56055434Y-29321787D01*
X56091638Y-29282815D01*
X56113539Y-29256655D01*
X56138739Y-29225970D01*
X56176780Y-29183162D01*
X56224823Y-29131141D01*
X56280035Y-29072818D01*
X56339579Y-29011101D01*
X56400619Y-28948901D01*
X56460318Y-28889128D01*
X56515842Y-28834692D01*
X56564354Y-28788501D01*
X56603018Y-28753467D01*
X56608730Y-28748556D01*
X56646281Y-28715302D01*
X56680911Y-28682341D01*
X56706488Y-28655569D01*
X56711090Y-28650113D01*
X56753948Y-28600050D01*
X56798646Y-28553323D01*
X56840485Y-28514546D01*
X56874770Y-28488335D01*
X56877468Y-28486663D01*
X56914662Y-28461843D01*
X56962235Y-28426674D01*
X57014621Y-28385554D01*
X57066256Y-28342882D01*
X57111574Y-28303056D01*
X57121803Y-28293552D01*
X57153432Y-28265443D01*
X57196296Y-28229669D01*
X57244108Y-28191392D01*
X57279264Y-28164274D01*
X57331948Y-28123149D01*
X57391923Y-28074370D01*
X57450549Y-28025047D01*
X57485591Y-27994508D01*
X57535241Y-27951832D01*
X57595189Y-27902514D01*
X57658051Y-27852521D01*
X57716442Y-27807822D01*
X57719067Y-27805866D01*
X57773838Y-27764706D01*
X57830619Y-27721332D01*
X57883229Y-27680509D01*
X57925483Y-27647002D01*
X57930824Y-27642675D01*
X57966764Y-27614443D01*
X58015817Y-27577321D01*
X58073260Y-27534809D01*
X58134372Y-27490408D01*
X58184646Y-27454524D01*
X58245722Y-27411285D01*
X58307716Y-27367317D01*
X58365744Y-27326087D01*
X58414924Y-27291064D01*
X58445270Y-27269377D01*
X58493042Y-27235718D01*
X58550402Y-27196161D01*
X58608715Y-27156630D01*
X58642111Y-27134367D01*
X58722977Y-27079276D01*
X58784424Y-27033715D01*
X58826520Y-26997627D01*
X58849334Y-26970957D01*
X58853868Y-26958051D01*
X58850123Y-26939680D01*
X58840084Y-26906793D01*
X58825544Y-26865031D01*
X58817049Y-26842325D01*
X58799726Y-26795319D01*
X58784779Y-26751521D01*
X58774549Y-26717921D01*
X58772197Y-26708412D01*
X58760440Y-26668058D01*
X58739828Y-26612850D01*
X58712137Y-26546446D01*
X58679144Y-26472501D01*
X58642624Y-26394675D01*
X58604356Y-26316624D01*
X58566115Y-26242006D01*
X58529677Y-26174478D01*
X58496821Y-26117698D01*
X58469322Y-26075322D01*
X58456790Y-26059092D01*
X58423500Y-26020399D01*
X58365540Y-26031860D01*
X58318292Y-26037501D01*
X58279804Y-26035138D01*
X58274652Y-26033876D01*
X58229241Y-26010633D01*
X58187401Y-25970706D01*
X58152398Y-25919130D01*
X58127495Y-25860938D01*
X58115959Y-25801162D01*
X58115539Y-25788573D01*
X58121871Y-25736017D01*
X58139080Y-25674189D01*
X58164229Y-25610575D01*
X58194379Y-25552663D01*
X58224905Y-25509831D01*
X58257758Y-25479187D01*
X58299728Y-25448711D01*
X58328801Y-25431823D01*
X58362870Y-25415850D01*
X58392587Y-25406210D01*
X58425705Y-25401356D01*
X58469976Y-25399743D01*
X58490081Y-25399657D01*
X58572710Y-25403194D01*
X58639449Y-25414939D01*
X58695129Y-25436592D01*
X58744580Y-25469851D01*
X58778136Y-25501011D01*
X58819353Y-25548950D01*
X58845696Y-25592163D01*
X58851437Y-25607245D01*
X58861936Y-25665304D01*
X58863029Y-25729732D01*
X58854870Y-25789790D01*
X58848513Y-25811716D01*
X58841798Y-25832250D01*
X58839874Y-25848982D01*
X58844247Y-25867123D01*
X58856423Y-25891884D01*
X58877907Y-25928472D01*
X58886237Y-25942277D01*
X58925984Y-26012271D01*
X58970630Y-26098201D01*
X59017912Y-26195501D01*
X59065571Y-26299602D01*
X59085229Y-26344420D01*
X59133758Y-26456530D01*
X59174422Y-26550315D01*
X59207995Y-26627379D01*
X59235249Y-26689324D01*
X59256956Y-26737755D01*
X59273888Y-26774274D01*
X59286818Y-26800484D01*
X59296518Y-26817988D01*
X59303761Y-26828391D01*
X59309318Y-26833294D01*
X59313963Y-26834301D01*
X59318467Y-26833015D01*
X59320262Y-26832276D01*
X59361439Y-26816346D01*
X59397175Y-26805665D01*
X59433338Y-26799450D01*
X59475796Y-26796919D01*
X59530418Y-26797291D01*
X59572801Y-26798630D01*
X59628754Y-26800872D01*
X59678645Y-26803254D01*
X59717514Y-26805513D01*
X59740405Y-26807386D01*
X59742207Y-26807625D01*
X59757054Y-26807141D01*
X59768325Y-26797440D01*
X59779461Y-26774130D01*
X59788688Y-26748343D01*
X59802955Y-26709508D01*
X59822801Y-26659423D01*
X59844811Y-26606607D01*
X59853970Y-26585453D01*
X59876667Y-26532118D01*
X59902982Y-26467799D01*
X59929101Y-26401922D01*
X59944930Y-26360709D01*
X59967325Y-26301413D01*
X59990843Y-26239201D01*
X60012284Y-26182537D01*
X60025008Y-26148952D01*
X60059689Y-26057038D01*
X60087288Y-25982302D01*
X60108618Y-25921689D01*
X60124495Y-25872144D01*
X60135733Y-25830614D01*
X60143144Y-25794043D01*
X60147544Y-25759376D01*
X60149747Y-25723560D01*
X60150567Y-25683540D01*
X60150616Y-25677686D01*
X60151641Y-25619806D01*
X60154230Y-25578137D01*
X60159178Y-25547186D01*
X60167281Y-25521457D01*
X60176045Y-25502000D01*
X60217531Y-25434950D01*
X60269993Y-25376278D01*
X60327123Y-25332864D01*
X60373919Y-25313906D01*
X60434023Y-25301473D01*
X60499870Y-25296082D01*
X60563897Y-25298253D01*
G37*
D12*
%TO.C,Rfbt1*%
X75227064Y-34090000D02*
X73772936Y-34090000D01*
X75227064Y-35910000D02*
X73772936Y-35910000D01*
%TO.C,Cin1*%
X67288748Y-42590000D02*
X68711252Y-42590000D01*
X67288748Y-44410000D02*
X68711252Y-44410000D01*
D13*
%TO.C,G\u002A\u002A\u002A*%
G36*
X49909406Y-43782554D02*
G01*
X49921018Y-43831198D01*
X49900145Y-43903858D01*
X49848216Y-43906222D01*
X49823700Y-43886809D01*
X49795628Y-43820009D01*
X49819750Y-43761789D01*
X49858456Y-43747783D01*
X49909406Y-43782554D01*
G37*
G36*
X42654177Y-43965768D02*
G01*
X42683072Y-44031518D01*
X42677787Y-44063640D01*
X42624186Y-44116967D01*
X42554017Y-44109477D01*
X42511051Y-44057787D01*
X42512820Y-43976581D01*
X42531446Y-43946944D01*
X42593460Y-43929463D01*
X42654177Y-43965768D01*
G37*
G36*
X46740804Y-47634541D02*
G01*
X46801569Y-47681778D01*
X46813793Y-47727965D01*
X46789393Y-47803146D01*
X46734849Y-47828045D01*
X46696490Y-47808203D01*
X46664907Y-47738977D01*
X46677430Y-47668768D01*
X46724853Y-47633659D01*
X46740804Y-47634541D01*
G37*
G36*
X47209018Y-47557839D02*
G01*
X47230361Y-47623802D01*
X47223928Y-47650504D01*
X47168976Y-47703580D01*
X47095822Y-47697833D01*
X47062910Y-47666481D01*
X47063481Y-47602237D01*
X47086836Y-47561698D01*
X47150678Y-47530337D01*
X47209018Y-47557839D01*
G37*
G36*
X47283005Y-43505476D02*
G01*
X47343770Y-43552714D01*
X47355993Y-43598901D01*
X47331594Y-43674082D01*
X47277050Y-43698981D01*
X47238690Y-43679139D01*
X47207107Y-43609913D01*
X47219631Y-43539704D01*
X47267053Y-43504595D01*
X47283005Y-43505476D01*
G37*
G36*
X42174037Y-44071808D02*
G01*
X42221855Y-44127646D01*
X42220058Y-44203511D01*
X42205090Y-44227422D01*
X42133452Y-44285720D01*
X42071595Y-44267435D01*
X42066064Y-44262178D01*
X42038343Y-44188414D01*
X42056907Y-44106222D01*
X42097771Y-44067532D01*
X42174037Y-44071808D01*
G37*
G36*
X46882317Y-43615743D02*
G01*
X46911761Y-43681307D01*
X46910239Y-43695043D01*
X46867194Y-43761574D01*
X46796515Y-43780931D01*
X46735052Y-43746726D01*
X46724713Y-43727208D01*
X46724232Y-43645709D01*
X46742890Y-43614318D01*
X46813875Y-43587552D01*
X46882317Y-43615743D01*
G37*
G36*
X48341628Y-45426609D02*
G01*
X48406542Y-45469454D01*
X48419540Y-45498163D01*
X48385923Y-45530982D01*
X48310289Y-45540020D01*
X48230460Y-45525651D01*
X48187901Y-45495873D01*
X48184777Y-45432055D01*
X48195867Y-45416815D01*
X48257857Y-45404136D01*
X48341628Y-45426609D01*
G37*
G36*
X48584377Y-43155313D02*
G01*
X48643544Y-43229614D01*
X48669786Y-43307110D01*
X48643776Y-43333905D01*
X48585675Y-43316177D01*
X48525380Y-43265224D01*
X48512988Y-43247856D01*
X48468068Y-43164480D01*
X48475687Y-43128733D01*
X48522342Y-43122167D01*
X48584377Y-43155313D01*
G37*
G36*
X49647410Y-43764770D02*
G01*
X49713216Y-43812388D01*
X49771617Y-43880177D01*
X49795895Y-43941932D01*
X49772488Y-43993149D01*
X49717543Y-43987781D01*
X49653970Y-43932437D01*
X49629097Y-43893823D01*
X49597345Y-43809820D01*
X49600940Y-43762004D01*
X49647410Y-43764770D01*
G37*
G36*
X41422621Y-44366824D02*
G01*
X41441993Y-44475958D01*
X41444872Y-44540229D01*
X41437852Y-44665007D01*
X41414618Y-44738748D01*
X41381929Y-44750395D01*
X41349268Y-44696633D01*
X41321183Y-44573930D01*
X41319777Y-44454717D01*
X41342506Y-44365243D01*
X41384675Y-44331691D01*
X41422621Y-44366824D01*
G37*
G36*
X46192773Y-44741549D02*
G01*
X46248439Y-44822609D01*
X46286430Y-44916635D01*
X46292446Y-44959269D01*
X46270072Y-44998076D01*
X46215825Y-44978142D01*
X46149024Y-44906589D01*
X46148834Y-44906319D01*
X46093414Y-44800678D01*
X46093177Y-44729649D01*
X46139775Y-44707060D01*
X46192773Y-44741549D01*
G37*
G36*
X48131050Y-45537747D02*
G01*
X48225208Y-45582091D01*
X48278469Y-45625863D01*
X48281763Y-45641738D01*
X48231677Y-45691315D01*
X48133890Y-45675760D01*
X48085878Y-45654028D01*
X48016679Y-45602244D01*
X47981464Y-45546301D01*
X47990207Y-45509630D01*
X48023317Y-45507066D01*
X48131050Y-45537747D01*
G37*
G36*
X41196966Y-44426634D02*
G01*
X41218273Y-44518808D01*
X41229474Y-44629103D01*
X41228114Y-44727883D01*
X41211742Y-44785511D01*
X41201790Y-44790476D01*
X41158811Y-44755814D01*
X41117344Y-44677408D01*
X41095160Y-44572139D01*
X41099926Y-44470072D01*
X41127003Y-44398239D01*
X41168003Y-44382219D01*
X41196966Y-44426634D01*
G37*
G36*
X46077356Y-44949794D02*
G01*
X46099924Y-44988587D01*
X46135480Y-45080519D01*
X46149972Y-45113711D01*
X46145361Y-45156205D01*
X46094855Y-45162548D01*
X46027939Y-45132306D01*
X46008834Y-45115796D01*
X45966446Y-45040547D01*
X45964253Y-44963278D01*
X46000958Y-44917958D01*
X46016482Y-44915599D01*
X46077356Y-44949794D01*
G37*
G36*
X48362230Y-43152710D02*
G01*
X48433375Y-43224615D01*
X48480491Y-43308296D01*
X48481373Y-43373591D01*
X48427647Y-43412643D01*
X48376136Y-43375439D01*
X48358201Y-43334559D01*
X48308770Y-43256765D01*
X48271975Y-43231598D01*
X48215696Y-43185241D01*
X48229444Y-43138561D01*
X48289620Y-43122167D01*
X48362230Y-43152710D01*
G37*
G36*
X42781594Y-48773502D02*
G01*
X42788998Y-48827783D01*
X42756608Y-48930540D01*
X42678034Y-48990221D01*
X42581171Y-48995835D01*
X42498560Y-48942221D01*
X42466586Y-48869828D01*
X42487637Y-48823397D01*
X42544768Y-48827211D01*
X42567832Y-48842952D01*
X42627424Y-48871862D01*
X42679417Y-48829511D01*
X42683413Y-48824123D01*
X42745964Y-48760154D01*
X42781594Y-48773502D01*
G37*
G36*
X42254628Y-48854415D02*
G01*
X42269339Y-48888790D01*
X42271731Y-48982286D01*
X42217234Y-49050893D01*
X42131516Y-49081664D01*
X42040243Y-49061651D01*
X41998068Y-49025636D01*
X41966563Y-48954019D01*
X41986388Y-48906594D01*
X42041355Y-48908341D01*
X42064130Y-48923703D01*
X42121250Y-48948273D01*
X42175787Y-48903448D01*
X42182561Y-48894448D01*
X42228647Y-48840633D01*
X42254628Y-48854415D01*
G37*
G36*
X49194094Y-49866974D02*
G01*
X49309861Y-49964473D01*
X49397184Y-50046405D01*
X49517883Y-50165928D01*
X49611376Y-50265407D01*
X49664019Y-50329987D01*
X49670771Y-50344213D01*
X49645145Y-50379025D01*
X49568233Y-50348247D01*
X49439983Y-50251851D01*
X49298755Y-50125949D01*
X49163607Y-49993716D01*
X49088881Y-49903776D01*
X49068522Y-49848036D01*
X49077303Y-49829987D01*
X49119364Y-49824032D01*
X49194094Y-49866974D01*
G37*
G36*
X49389244Y-49714314D02*
G01*
X49437743Y-49746298D01*
X49517837Y-49826636D01*
X49612991Y-49935556D01*
X49706671Y-50053282D01*
X49782344Y-50160040D01*
X49821924Y-50231780D01*
X49831546Y-50292839D01*
X49796630Y-50296962D01*
X49726995Y-50250486D01*
X49632458Y-50159748D01*
X49535221Y-50046758D01*
X49417110Y-49891558D01*
X49354034Y-49789108D01*
X49342890Y-49732342D01*
X49380574Y-49714191D01*
X49389244Y-49714314D01*
G37*
G36*
X42714411Y-49284296D02*
G01*
X42715248Y-49337858D01*
X42668592Y-49467023D01*
X42578419Y-49535984D01*
X42464617Y-49538740D01*
X42347074Y-49469288D01*
X42331608Y-49453629D01*
X42276146Y-49367797D01*
X42288119Y-49320320D01*
X42342411Y-49311929D01*
X42384948Y-49353821D01*
X42464661Y-49410162D01*
X42549228Y-49400996D01*
X42607342Y-49333308D01*
X42614956Y-49302506D01*
X42644307Y-49233557D01*
X42685811Y-49230431D01*
X42714411Y-49284296D01*
G37*
G36*
X47334335Y-44032775D02*
G01*
X47335139Y-44058226D01*
X47300510Y-44172497D01*
X47213506Y-44249263D01*
X47099456Y-44281360D01*
X46983687Y-44261625D01*
X46891970Y-44183572D01*
X46848682Y-44088696D01*
X46866290Y-44033118D01*
X46913947Y-44021853D01*
X46957373Y-44076967D01*
X47032731Y-44151525D01*
X47122971Y-44155140D01*
X47201881Y-44089463D01*
X47217605Y-44060591D01*
X47271313Y-43975044D01*
X47313421Y-43965708D01*
X47334335Y-44032775D01*
G37*
G36*
X49621350Y-49536237D02*
G01*
X49685494Y-49620800D01*
X49764255Y-49736429D01*
X49844299Y-49862416D01*
X49912291Y-49978054D01*
X49954896Y-50062636D01*
X49962725Y-50089765D01*
X49938452Y-50127160D01*
X49881331Y-50107669D01*
X49836566Y-50065254D01*
X49786287Y-49996396D01*
X49710870Y-49884111D01*
X49647053Y-49784867D01*
X49563626Y-49638845D01*
X49534387Y-49548553D01*
X49557919Y-49507543D01*
X49585159Y-49503448D01*
X49621350Y-49536237D01*
G37*
G36*
X48772770Y-49903586D02*
G01*
X48872062Y-49968078D01*
X48994022Y-50057571D01*
X49119995Y-50157341D01*
X49231327Y-50252667D01*
X49309365Y-50328825D01*
X49335718Y-50368883D01*
X49312328Y-50415905D01*
X49240750Y-50399564D01*
X49125214Y-50321383D01*
X49066009Y-50271712D01*
X48945632Y-50173696D01*
X48829488Y-50090856D01*
X48784482Y-50063668D01*
X48708344Y-50003298D01*
X48670530Y-49937415D01*
X48679851Y-49889389D01*
X48714798Y-49878817D01*
X48772770Y-49903586D01*
G37*
G36*
X42732396Y-44453698D02*
G01*
X42740215Y-44491534D01*
X42722974Y-44611515D01*
X42649726Y-44698186D01*
X42544620Y-44740125D01*
X42431808Y-44725915D01*
X42357531Y-44672495D01*
X42303816Y-44594883D01*
X42288505Y-44547372D01*
X42312507Y-44502455D01*
X42361728Y-44511849D01*
X42398546Y-44561083D01*
X42454500Y-44610199D01*
X42519590Y-44623645D01*
X42595384Y-44602924D01*
X42627522Y-44526183D01*
X42629824Y-44508949D01*
X42656915Y-44418536D01*
X42697215Y-44399155D01*
X42732396Y-44453698D01*
G37*
G36*
X47268362Y-47956864D02*
G01*
X47272850Y-47960488D01*
X47316358Y-48036856D01*
X47347869Y-48164793D01*
X47363853Y-48312885D01*
X47360782Y-48449716D01*
X47337846Y-48539113D01*
X47259299Y-48609504D01*
X47152045Y-48624902D01*
X47054243Y-48580186D01*
X47051527Y-48577537D01*
X47004390Y-48507865D01*
X47033118Y-48471815D01*
X47116174Y-48469603D01*
X47193537Y-48469409D01*
X47225045Y-48431037D01*
X47230870Y-48338329D01*
X47225211Y-48245534D01*
X47191983Y-48204475D01*
X47106811Y-48193192D01*
X47068835Y-48192352D01*
X46929254Y-48169223D01*
X46861772Y-48118667D01*
X46838872Y-48045776D01*
X46864014Y-48008442D01*
X46919570Y-48028967D01*
X46927099Y-48036031D01*
X47022489Y-48082852D01*
X47118686Y-48057588D01*
X47169750Y-47999277D01*
X47216495Y-47941667D01*
X47268362Y-47956864D01*
G37*
G36*
X43363861Y-47592817D02*
G01*
X43442679Y-47622014D01*
X43450857Y-47680622D01*
X43394263Y-47776779D01*
X43369879Y-47808661D01*
X43314148Y-47883181D01*
X43309723Y-47912963D01*
X43355967Y-47918537D01*
X43366468Y-47918555D01*
X43487957Y-47936147D01*
X43561917Y-47978859D01*
X43580007Y-48031590D01*
X43533888Y-48079242D01*
X43466748Y-48100115D01*
X43275908Y-48133965D01*
X43149897Y-48150578D01*
X43072018Y-48150373D01*
X43025572Y-48133764D01*
X43002079Y-48111712D01*
X42981311Y-48057492D01*
X43012882Y-47986598D01*
X43058864Y-47927627D01*
X43139169Y-47823087D01*
X43158849Y-47769664D01*
X43118830Y-47762173D01*
X43086840Y-47770709D01*
X43007633Y-47765081D01*
X42944497Y-47716133D01*
X42925468Y-47649938D01*
X42933846Y-47628428D01*
X42986997Y-47605124D01*
X43097184Y-47589326D01*
X43208537Y-47584893D01*
X43363861Y-47592817D01*
G37*
G36*
X44014801Y-47138059D02*
G01*
X44076982Y-47178983D01*
X44073099Y-47258184D01*
X44005880Y-47384400D01*
X43977668Y-47427021D01*
X43914812Y-47522155D01*
X43877680Y-47583445D01*
X43873399Y-47593408D01*
X43910562Y-47598159D01*
X44004622Y-47595309D01*
X44061083Y-47591421D01*
X44180804Y-47588129D01*
X44237106Y-47606514D01*
X44248768Y-47640793D01*
X44229155Y-47710789D01*
X44214087Y-47726527D01*
X44144021Y-47748100D01*
X44026323Y-47765492D01*
X43887459Y-47777107D01*
X43753895Y-47781348D01*
X43652098Y-47776620D01*
X43609270Y-47763004D01*
X43615852Y-47707899D01*
X43659634Y-47609620D01*
X43705453Y-47530806D01*
X43826844Y-47339393D01*
X43673210Y-47326593D01*
X43551353Y-47298153D01*
X43506783Y-47246197D01*
X43528177Y-47185711D01*
X43621957Y-47146882D01*
X43791808Y-47128544D01*
X43883826Y-47126677D01*
X44014801Y-47138059D01*
G37*
G36*
X44614123Y-46555210D02*
G01*
X44756224Y-46590979D01*
X44826015Y-46656477D01*
X44832676Y-46691857D01*
X44810365Y-46763441D01*
X44754334Y-46867917D01*
X44727503Y-46909355D01*
X44622329Y-47063546D01*
X44758616Y-47077381D01*
X44908477Y-47114301D01*
X44986110Y-47188800D01*
X44999507Y-47256338D01*
X44987361Y-47302710D01*
X44937809Y-47326445D01*
X44831182Y-47334618D01*
X44780541Y-47335106D01*
X44617245Y-47340611D01*
X44459286Y-47353980D01*
X44405172Y-47361417D01*
X44302628Y-47372782D01*
X44258109Y-47355350D01*
X44248768Y-47304672D01*
X44271290Y-47223989D01*
X44328815Y-47108923D01*
X44372711Y-47038542D01*
X44496653Y-46855008D01*
X44362284Y-46819307D01*
X44252321Y-46789625D01*
X44173850Y-46767652D01*
X44172854Y-46767359D01*
X44134872Y-46719132D01*
X44131147Y-46657083D01*
X44147043Y-46604824D01*
X44189369Y-46574646D01*
X44278153Y-46558743D01*
X44404240Y-46550661D01*
X44614123Y-46555210D01*
G37*
G36*
X47292208Y-46434814D02*
G01*
X47333972Y-46459862D01*
X47358269Y-46518882D01*
X47374865Y-46630540D01*
X47385703Y-46735729D01*
X47414276Y-46927095D01*
X47458447Y-47122947D01*
X47499792Y-47255597D01*
X47544478Y-47400644D01*
X47554377Y-47494299D01*
X47535043Y-47529093D01*
X47492030Y-47497557D01*
X47430892Y-47392219D01*
X47418455Y-47364990D01*
X47364553Y-47220054D01*
X47316862Y-47051602D01*
X47280691Y-46884536D01*
X47261348Y-46743758D01*
X47264139Y-46654171D01*
X47265841Y-46648984D01*
X47268869Y-46574203D01*
X47233636Y-46520854D01*
X47181825Y-46515693D01*
X47166920Y-46526905D01*
X47143607Y-46582474D01*
X47146726Y-46687169D01*
X47169052Y-46821019D01*
X47194100Y-46977260D01*
X47193480Y-47088997D01*
X47165834Y-47191519D01*
X47153629Y-47222034D01*
X47056425Y-47364269D01*
X46916182Y-47458985D01*
X46757615Y-47492456D01*
X46683594Y-47483077D01*
X46555938Y-47418269D01*
X46421292Y-47298160D01*
X46300696Y-47146014D01*
X46215191Y-46985095D01*
X46203683Y-46952434D01*
X46153550Y-46831476D01*
X46105137Y-46778780D01*
X46065726Y-46799107D01*
X46048852Y-46851268D01*
X46064919Y-46933681D01*
X46117843Y-47015133D01*
X46204925Y-47141391D01*
X46298708Y-47340390D01*
X46397673Y-47605747D01*
X46425945Y-47717874D01*
X46456470Y-47886916D01*
X46484886Y-48086637D01*
X46500657Y-48225369D01*
X46537185Y-48501647D01*
X46584285Y-48722910D01*
X46632442Y-48861136D01*
X46767772Y-49056016D01*
X46975404Y-49229168D01*
X47246197Y-49376904D01*
X47571011Y-49495533D01*
X47940705Y-49581367D01*
X48346140Y-49630717D01*
X48563781Y-49640649D01*
X48760634Y-49641199D01*
X48901748Y-49630375D01*
X49014492Y-49603912D01*
X49126240Y-49557543D01*
X49140136Y-49550804D01*
X49324548Y-49427237D01*
X49430479Y-49275587D01*
X49457954Y-49095735D01*
X49406999Y-48887563D01*
X49319509Y-48716357D01*
X49201026Y-48535715D01*
X49087524Y-48404974D01*
X48953904Y-48302156D01*
X48775067Y-48205287D01*
X48690640Y-48165743D01*
X48515316Y-48080110D01*
X48324439Y-47977854D01*
X48132172Y-47867692D01*
X47952676Y-47758343D01*
X47800115Y-47658523D01*
X47688650Y-47576951D01*
X47632444Y-47522344D01*
X47628440Y-47511904D01*
X47636523Y-47473171D01*
X47671409Y-47467126D01*
X47744892Y-47497871D01*
X47868767Y-47569504D01*
X47963621Y-47628428D01*
X48120233Y-47720991D01*
X48320957Y-47831322D01*
X48534142Y-47942297D01*
X48648932Y-47999196D01*
X48879210Y-48116924D01*
X49051234Y-48223917D01*
X49185204Y-48337785D01*
X49301317Y-48476139D01*
X49419771Y-48656590D01*
X49438579Y-48687694D01*
X49551358Y-48929759D01*
X49584809Y-49147207D01*
X49539183Y-49339023D01*
X49414728Y-49504194D01*
X49211695Y-49641707D01*
X49202214Y-49646483D01*
X49091237Y-49696982D01*
X48988077Y-49728376D01*
X48867680Y-49744743D01*
X48704996Y-49750163D01*
X48567755Y-49749775D01*
X48350273Y-49742184D01*
X48128046Y-49725262D01*
X47937654Y-49702094D01*
X47877340Y-49691517D01*
X47459292Y-49583099D01*
X47107757Y-49439667D01*
X46825660Y-49263164D01*
X46615929Y-49055536D01*
X46481490Y-48818728D01*
X46458028Y-48748468D01*
X46436635Y-48646059D01*
X46412317Y-48486377D01*
X46388764Y-48295301D01*
X46376724Y-48178351D01*
X46326848Y-47841855D01*
X46246488Y-47533673D01*
X46141492Y-47271724D01*
X46017713Y-47073926D01*
X46015108Y-47070773D01*
X45948759Y-46965864D01*
X45917444Y-46866915D01*
X45917077Y-46858272D01*
X45946268Y-46762311D01*
X46015367Y-46674261D01*
X46096661Y-46627199D01*
X46112008Y-46625615D01*
X46184286Y-46662491D01*
X46254841Y-46756746D01*
X46306326Y-46883821D01*
X46312466Y-46909388D01*
X46366460Y-47039835D01*
X46462627Y-47172698D01*
X46580151Y-47286614D01*
X46698213Y-47360223D01*
X46767523Y-47376354D01*
X46880145Y-47344451D01*
X46988786Y-47265515D01*
X47065368Y-47164707D01*
X47084893Y-47091989D01*
X47077311Y-47006174D01*
X47057968Y-46875396D01*
X47043598Y-46794625D01*
X47022944Y-46609912D01*
X47046495Y-46491346D01*
X47117390Y-46432468D01*
X47223214Y-46425068D01*
X47292208Y-46434814D01*
G37*
G36*
X42385310Y-47469426D02*
G01*
X42467574Y-47580022D01*
X42544211Y-47766281D01*
X42573664Y-47860418D01*
X42623954Y-48020169D01*
X42671371Y-48151652D01*
X42707420Y-48231787D01*
X42713895Y-48241378D01*
X42783540Y-48271386D01*
X42933063Y-48288828D01*
X43139858Y-48293924D01*
X43571717Y-48326237D01*
X43960428Y-48421384D01*
X44300930Y-48576681D01*
X44588160Y-48789443D01*
X44817057Y-49056984D01*
X44922880Y-49239815D01*
X45024647Y-49495357D01*
X45066248Y-49721002D01*
X45047433Y-49908245D01*
X44967952Y-50048580D01*
X44947304Y-50068099D01*
X44825409Y-50147938D01*
X44685240Y-50207689D01*
X44676203Y-50210305D01*
X44551585Y-50229732D01*
X44346895Y-50241588D01*
X44065130Y-50245870D01*
X43709292Y-50242573D01*
X43282377Y-50231695D01*
X42787385Y-50213232D01*
X42768144Y-50212418D01*
X42439852Y-50193484D01*
X42183080Y-50165746D01*
X41986113Y-50125904D01*
X41837237Y-50070658D01*
X41724738Y-49996709D01*
X41636902Y-49900755D01*
X41630539Y-49891958D01*
X41574708Y-49804431D01*
X41535584Y-49713493D01*
X41509904Y-49601601D01*
X41494401Y-49451215D01*
X41485811Y-49244795D01*
X41482804Y-49098244D01*
X41478328Y-48894568D01*
X41468827Y-48748345D01*
X41448261Y-48633621D01*
X41410587Y-48524441D01*
X41349763Y-48394849D01*
X41293293Y-48284149D01*
X41207543Y-48111591D01*
X41158584Y-47994416D01*
X41141265Y-47915902D01*
X41144290Y-47897243D01*
X41261071Y-47897243D01*
X41266723Y-47979668D01*
X41321899Y-48084379D01*
X41323488Y-48086542D01*
X41394250Y-48201174D01*
X41463294Y-48343626D01*
X41520961Y-48489289D01*
X41557595Y-48613554D01*
X41563536Y-48691810D01*
X41562403Y-48695330D01*
X41566910Y-48759715D01*
X41581649Y-48774907D01*
X41598289Y-48825367D01*
X41609020Y-48940898D01*
X41612590Y-49103288D01*
X41611108Y-49203747D01*
X41608528Y-49403608D01*
X41615465Y-49542534D01*
X41634899Y-49642749D01*
X41669815Y-49726477D01*
X41684904Y-49753694D01*
X41759499Y-49859505D01*
X41852659Y-49939824D01*
X41976838Y-49998665D01*
X42144493Y-50040043D01*
X42368079Y-50067970D01*
X42660052Y-50086461D01*
X42726436Y-50089327D01*
X43193772Y-50106137D01*
X43609147Y-50116508D01*
X43966803Y-50120449D01*
X44260980Y-50117972D01*
X44485919Y-50109089D01*
X44635862Y-50093811D01*
X44675043Y-50085502D01*
X44831236Y-50014867D01*
X44922793Y-49904459D01*
X44951170Y-49749062D01*
X44917825Y-49543456D01*
X44868408Y-49392782D01*
X44725422Y-49127240D01*
X44508238Y-48889378D01*
X44223292Y-48685516D01*
X44061149Y-48600077D01*
X43920726Y-48536255D01*
X43801103Y-48492126D01*
X43678684Y-48462605D01*
X43529871Y-48442610D01*
X43331065Y-48427058D01*
X43228451Y-48420716D01*
X42991319Y-48402500D01*
X42806028Y-48379836D01*
X42684363Y-48354421D01*
X42644014Y-48336456D01*
X42603015Y-48273989D01*
X42548895Y-48153188D01*
X42491083Y-47996027D01*
X42469813Y-47930398D01*
X42397061Y-47724023D01*
X42331112Y-47596804D01*
X42269212Y-47545030D01*
X42208608Y-47564989D01*
X42202829Y-47570471D01*
X42200229Y-47628261D01*
X42248586Y-47730442D01*
X42274689Y-47771039D01*
X42362241Y-47961143D01*
X42382995Y-48159066D01*
X42340880Y-48345997D01*
X42239826Y-48503122D01*
X42100703Y-48603992D01*
X41937211Y-48649866D01*
X41784014Y-48637344D01*
X41666861Y-48569066D01*
X41657522Y-48558556D01*
X41619427Y-48490035D01*
X41566419Y-48366272D01*
X41508733Y-48211560D01*
X41497399Y-48178638D01*
X41422680Y-47984058D01*
X41358488Y-47871721D01*
X41304949Y-47841776D01*
X41262191Y-47894375D01*
X41261071Y-47897243D01*
X41144290Y-47897243D01*
X41150436Y-47859328D01*
X41157699Y-47843918D01*
X41241803Y-47751639D01*
X41345741Y-47725043D01*
X41444948Y-47769540D01*
X41454168Y-47778638D01*
X41501770Y-47855751D01*
X41558604Y-47986665D01*
X41613098Y-48144403D01*
X41617805Y-48160047D01*
X41688971Y-48359337D01*
X41766102Y-48481973D01*
X41858134Y-48534661D01*
X41974000Y-48524110D01*
X42058028Y-48490526D01*
X42167447Y-48415708D01*
X42234747Y-48302143D01*
X42253156Y-48247440D01*
X42280195Y-48139689D01*
X42278553Y-48056640D01*
X42242591Y-47963078D01*
X42192784Y-47870330D01*
X42110516Y-47700435D01*
X42085106Y-47580187D01*
X42116278Y-47498449D01*
X42182528Y-47452959D01*
X42292076Y-47428928D01*
X42385310Y-47469426D01*
G37*
G36*
X47712894Y-42029583D02*
G01*
X47769302Y-42124584D01*
X47772825Y-42272701D01*
X47758706Y-42344574D01*
X47725024Y-42508837D01*
X47699976Y-42685328D01*
X47685476Y-42851227D01*
X47683442Y-42983713D01*
X47695787Y-43059966D01*
X47698297Y-43064213D01*
X47755679Y-43113332D01*
X47852467Y-43172423D01*
X47866467Y-43179750D01*
X47970076Y-43244877D01*
X48102282Y-43343888D01*
X48211249Y-43435195D01*
X48333106Y-43534268D01*
X48444059Y-43608929D01*
X48514076Y-43640968D01*
X48608502Y-43660276D01*
X48745694Y-43687767D01*
X48826777Y-43703836D01*
X49073818Y-43766139D01*
X49270067Y-43851753D01*
X49447796Y-43976358D01*
X49522000Y-44041614D01*
X49733247Y-44269659D01*
X49867322Y-44499491D01*
X49929528Y-44745404D01*
X49925166Y-45021694D01*
X49914042Y-45098718D01*
X49880738Y-45260902D01*
X49834587Y-45372429D01*
X49760992Y-45442432D01*
X49645356Y-45480045D01*
X49473081Y-45494402D01*
X49280354Y-45495238D01*
X49085590Y-45490379D01*
X48908875Y-45480823D01*
X48775620Y-45468184D01*
X48728707Y-45460186D01*
X48622730Y-45429464D01*
X48552596Y-45400141D01*
X48478089Y-45373401D01*
X48341275Y-45340622D01*
X48162719Y-45305286D01*
X47962982Y-45270877D01*
X47762630Y-45240878D01*
X47582225Y-45218774D01*
X47442331Y-45208048D01*
X47415780Y-45207553D01*
X47161986Y-45185751D01*
X46917654Y-45125486D01*
X46700701Y-45034472D01*
X46529047Y-44920424D01*
X46420610Y-44791054D01*
X46413188Y-44775950D01*
X46360003Y-44669292D01*
X46312124Y-44581937D01*
X46282980Y-44495732D01*
X46262543Y-44366684D01*
X46251057Y-44215371D01*
X46248766Y-44062376D01*
X46255913Y-43928278D01*
X46272741Y-43833658D01*
X46299494Y-43799096D01*
X46302873Y-43799784D01*
X46333604Y-43852415D01*
X46358926Y-43988023D01*
X46378792Y-44206341D01*
X46380729Y-44236811D01*
X46393588Y-44428397D01*
X46408046Y-44556679D01*
X46430184Y-44641649D01*
X46466081Y-44703297D01*
X46521819Y-44761615D01*
X46547560Y-44785322D01*
X46755162Y-44927213D01*
X47010418Y-45028765D01*
X47282901Y-45078991D01*
X47370367Y-45082430D01*
X47544566Y-45092890D01*
X47771953Y-45121061D01*
X48025399Y-45162126D01*
X48277776Y-45211271D01*
X48501953Y-45263679D01*
X48663916Y-45312041D01*
X48798212Y-45346283D01*
X48973117Y-45364096D01*
X49206878Y-45367038D01*
X49288634Y-45365322D01*
X49731537Y-45353530D01*
X49783459Y-45124138D01*
X49817140Y-44876912D01*
X49792304Y-44661158D01*
X49703020Y-44457764D01*
X49543354Y-44247617D01*
X49495186Y-44195405D01*
X49344142Y-44052383D01*
X49192628Y-43950682D01*
X49014967Y-43877400D01*
X48785484Y-43819634D01*
X48722569Y-43807166D01*
X48558727Y-43773955D01*
X48442342Y-43740433D01*
X48346928Y-43693036D01*
X48246003Y-43618199D01*
X48113082Y-43502356D01*
X48093786Y-43485111D01*
X47965086Y-43382454D01*
X47833277Y-43296371D01*
X47769071Y-43263785D01*
X47656958Y-43198047D01*
X47589280Y-43104606D01*
X47561514Y-42968849D01*
X47569136Y-42776160D01*
X47583356Y-42663861D01*
X47608960Y-42494013D01*
X47633748Y-42342391D01*
X47652610Y-42240163D01*
X47653529Y-42235878D01*
X47659539Y-42148438D01*
X47621880Y-42121205D01*
X47619929Y-42121182D01*
X47584356Y-42151987D01*
X47548651Y-42249066D01*
X47510566Y-42419412D01*
X47493150Y-42515464D01*
X47457287Y-42701780D01*
X47418621Y-42868973D01*
X47383344Y-42991424D01*
X47369626Y-43026384D01*
X47278065Y-43135488D01*
X47129917Y-43227482D01*
X46951571Y-43293809D01*
X46769419Y-43325910D01*
X46609848Y-43315225D01*
X46549176Y-43292468D01*
X46491953Y-43234139D01*
X46413846Y-43117295D01*
X46326455Y-42960251D01*
X46282395Y-42871308D01*
X46204328Y-42713328D01*
X46136985Y-42588302D01*
X46089425Y-42512452D01*
X46073481Y-42497205D01*
X46044663Y-42528705D01*
X46048786Y-42605245D01*
X46082074Y-42696962D01*
X46103151Y-42731841D01*
X46156373Y-42833136D01*
X46218150Y-42987496D01*
X46279685Y-43167715D01*
X46332184Y-43346588D01*
X46366851Y-43496908D01*
X46375862Y-43575417D01*
X46362439Y-43668722D01*
X46331368Y-43727463D01*
X46296446Y-43734538D01*
X46276731Y-43698292D01*
X46261161Y-43629351D01*
X46236716Y-43508392D01*
X46216361Y-43402238D01*
X46172327Y-43234167D01*
X46103366Y-43039976D01*
X46037014Y-42888563D01*
X45965787Y-42733664D01*
X45932269Y-42627384D01*
X45930870Y-42547042D01*
X45942280Y-42504222D01*
X46002419Y-42422749D01*
X46089347Y-42389707D01*
X46172332Y-42410789D01*
X46208959Y-42454844D01*
X46329639Y-42706207D01*
X46422028Y-42892201D01*
X46493370Y-43022921D01*
X46550909Y-43108466D01*
X46601889Y-43158932D01*
X46653554Y-43184417D01*
X46713148Y-43195019D01*
X46741693Y-43197418D01*
X46883128Y-43186558D01*
X47035401Y-43142833D01*
X47170862Y-43077786D01*
X47261864Y-43002957D01*
X47279626Y-42972863D01*
X47296562Y-42906637D01*
X47322599Y-42779412D01*
X47353513Y-42612535D01*
X47372089Y-42505536D01*
X47410066Y-42292298D01*
X47442654Y-42148282D01*
X47476031Y-42060101D01*
X47516377Y-42014367D01*
X47569870Y-41997693D01*
X47607233Y-41996059D01*
X47712894Y-42029583D01*
G37*
G36*
X45210287Y-41731662D02*
G01*
X45197624Y-41791830D01*
X45144378Y-41901366D01*
X45052596Y-42053690D01*
X44995336Y-42140246D01*
X44877936Y-42325359D01*
X44809818Y-42465413D01*
X44783537Y-42576503D01*
X44782627Y-42600051D01*
X44776698Y-42681937D01*
X44747710Y-42741326D01*
X44678863Y-42797199D01*
X44553353Y-42868534D01*
X44537424Y-42877044D01*
X44391844Y-42966655D01*
X44263625Y-43066180D01*
X44194088Y-43137940D01*
X44103039Y-43277208D01*
X43998832Y-43465594D01*
X43890472Y-43683248D01*
X43786963Y-43910322D01*
X43697309Y-44126967D01*
X43630513Y-44313333D01*
X43595581Y-44449573D01*
X43594073Y-44460623D01*
X43525484Y-44713996D01*
X43439085Y-44864637D01*
X43368103Y-44977936D01*
X43325132Y-45089132D01*
X43300701Y-45229831D01*
X43289491Y-45363835D01*
X43268742Y-45549447D01*
X43236754Y-45665969D01*
X43195738Y-45708776D01*
X43147905Y-45673245D01*
X43144245Y-45667522D01*
X43132237Y-45596929D01*
X43142431Y-45504434D01*
X43152948Y-45432401D01*
X43130567Y-45393616D01*
X43056358Y-45371898D01*
X42972870Y-45359474D01*
X42821533Y-45344836D01*
X42634792Y-45335005D01*
X42501650Y-45332444D01*
X42243549Y-45319328D01*
X42047909Y-45276703D01*
X41897252Y-45198904D01*
X41793199Y-45102818D01*
X41688592Y-44954835D01*
X41623406Y-44785278D01*
X41593788Y-44576581D01*
X41595884Y-44311179D01*
X41601344Y-44228103D01*
X41613366Y-44041882D01*
X41613698Y-43913003D01*
X41599002Y-43815811D01*
X41565935Y-43724652D01*
X41524819Y-43640405D01*
X41437225Y-43484551D01*
X41329628Y-43313273D01*
X41270161Y-43226570D01*
X41162953Y-43044228D01*
X41122937Y-42892788D01*
X41131014Y-42860395D01*
X41246757Y-42860395D01*
X41259340Y-42947044D01*
X41323159Y-43084311D01*
X41436107Y-43266350D01*
X41454501Y-43293306D01*
X41580367Y-43486512D01*
X41663756Y-43649727D01*
X41711498Y-43808873D01*
X41730424Y-43989876D01*
X41727364Y-44218657D01*
X41722591Y-44310837D01*
X41713468Y-44513620D01*
X41715023Y-44654800D01*
X41729238Y-44755736D01*
X41758100Y-44837786D01*
X41774627Y-44870926D01*
X41868775Y-45012656D01*
X41985490Y-45109100D01*
X42143131Y-45169828D01*
X42360057Y-45204413D01*
X42425147Y-45210054D01*
X42690036Y-45229579D01*
X42883081Y-45240995D01*
X43015525Y-45243597D01*
X43098610Y-45236682D01*
X43143577Y-45219546D01*
X43161670Y-45191485D01*
X43164367Y-45163774D01*
X43187940Y-45054078D01*
X43247493Y-44915811D01*
X43326281Y-44785043D01*
X43360124Y-44742122D01*
X43408830Y-44652578D01*
X43441139Y-44534115D01*
X43441218Y-44533583D01*
X43516583Y-44190732D01*
X43633835Y-43910357D01*
X43647106Y-43886859D01*
X43717339Y-43757780D01*
X43774366Y-43639820D01*
X43788180Y-43606548D01*
X43828702Y-43499968D01*
X43442929Y-43525308D01*
X43206428Y-43533181D01*
X43030677Y-43516435D01*
X42894983Y-43468478D01*
X42778652Y-43382713D01*
X42687386Y-43284550D01*
X42567290Y-43116931D01*
X42466262Y-42930182D01*
X42396934Y-42751306D01*
X42371921Y-42610179D01*
X42354225Y-42487239D01*
X42312338Y-42389827D01*
X42261583Y-42341639D01*
X42231388Y-42364742D01*
X42221533Y-42461536D01*
X42231799Y-42634421D01*
X42261964Y-42885798D01*
X42264905Y-42907045D01*
X42295708Y-43159408D01*
X42304851Y-43341298D01*
X42289290Y-43463551D01*
X42245980Y-43537007D01*
X42171876Y-43572503D01*
X42075570Y-43580952D01*
X42000436Y-43575961D01*
X41934796Y-43553461D01*
X41863364Y-43502159D01*
X41770853Y-43410766D01*
X41641974Y-43267988D01*
X41623480Y-43247026D01*
X41502716Y-43106306D01*
X41405967Y-42986579D01*
X41344800Y-42902602D01*
X41329228Y-42871656D01*
X41297481Y-42831415D01*
X41287520Y-42830213D01*
X41246757Y-42860395D01*
X41131014Y-42860395D01*
X41151433Y-42778507D01*
X41170739Y-42755139D01*
X41248940Y-42709466D01*
X41333356Y-42730893D01*
X41432147Y-42823645D01*
X41513870Y-42932757D01*
X41614017Y-43064874D01*
X41732842Y-43202104D01*
X41854880Y-43328850D01*
X41964664Y-43429515D01*
X42046728Y-43488503D01*
X42073928Y-43497537D01*
X42129170Y-43468969D01*
X42163080Y-43435339D01*
X42184037Y-43390526D01*
X42190983Y-43313481D01*
X42183465Y-43189767D01*
X42161024Y-43004948D01*
X42146167Y-42899589D01*
X42114968Y-42665496D01*
X42101257Y-42498998D01*
X42106493Y-42385827D01*
X42132138Y-42311716D01*
X42179650Y-42262397D01*
X42213466Y-42241822D01*
X42309387Y-42227424D01*
X42388974Y-42288671D01*
X42446053Y-42418413D01*
X42468238Y-42536758D01*
X42522055Y-42764127D01*
X42621699Y-42985837D01*
X42753770Y-43180957D01*
X42904868Y-43328557D01*
X43016443Y-43393065D01*
X43114074Y-43417974D01*
X43247673Y-43423736D01*
X43436974Y-43410758D01*
X43508172Y-43403204D01*
X43684481Y-43381815D01*
X43797945Y-43360403D01*
X43868753Y-43330980D01*
X43917094Y-43285557D01*
X43957440Y-43225423D01*
X44073225Y-43076043D01*
X44230935Y-42919858D01*
X44398207Y-42786900D01*
X44491605Y-42729775D01*
X44597606Y-42639359D01*
X44640999Y-42524017D01*
X44682789Y-42406840D01*
X44764218Y-42251285D01*
X44869952Y-42081713D01*
X44984660Y-41922486D01*
X45093007Y-41797963D01*
X45105673Y-41785738D01*
X45180319Y-41727438D01*
X45210287Y-41731662D01*
G37*
D12*
%TO.C,J2*%
X39250000Y-28830000D02*
X40950000Y-28830000D01*
X39250000Y-38170000D02*
X40950000Y-38170000D01*
%TO.C,RRfbb1*%
X76272936Y-37590000D02*
X77727064Y-37590000D01*
X76272936Y-39410000D02*
X77727064Y-39410000D01*
D14*
%TO.C,L1*%
X50785000Y-36729500D02*
X50785000Y-40041660D01*
X50785000Y-43958340D02*
X50785000Y-47270500D01*
X50785000Y-47270500D02*
X62215000Y-47270500D01*
X62215000Y-36729500D02*
X50785000Y-36729500D01*
X62215000Y-40041660D02*
X62215000Y-36729500D01*
X62215000Y-47270500D02*
X62215000Y-43958340D01*
X49718200Y-42000000D02*
G75*
G02*
X49565800Y-42000000I-76200J0D01*
G01*
X49565800Y-42000000D02*
G75*
G02*
X49718200Y-42000000I76200J0D01*
G01*
D12*
%TO.C,Cin2*%
X67288748Y-40090000D02*
X68711252Y-40090000D01*
X67288748Y-41910000D02*
X68711252Y-41910000D01*
%TO.C,Cbst1*%
X72673752Y-29590000D02*
X71251248Y-29590000D01*
X72673752Y-31410000D02*
X71251248Y-31410000D01*
D15*
%TO.C,U1*%
X66522401Y-33425000D02*
X68575000Y-33425000D01*
X67425000Y-36474001D02*
X68825002Y-36474001D01*
%TD*%
M02*
