%TF.GenerationSoftware,KiCad,Pcbnew,9.0.0*%
%TF.CreationDate,2025-04-12T13:33:08-05:00*%
%TF.ProjectId,Boat_Volt_Reg,426f6174-5f56-46f6-9c74-5f5265672e6b,rev?*%
%TF.SameCoordinates,Original*%
%TF.FileFunction,Copper,L2,Bot*%
%TF.FilePolarity,Positive*%
%FSLAX46Y46*%
G04 Gerber Fmt 4.6, Leading zero omitted, Abs format (unit mm)*
G04 Created by KiCad (PCBNEW 9.0.0) date 2025-04-12 13:33:08*
%MOMM*%
%LPD*%
G01*
G04 APERTURE LIST*
%TA.AperFunction,HeatsinkPad*%
%ADD10O,1.700000X1.100000*%
%TD*%
%TA.AperFunction,ComponentPad*%
%ADD11R,2.500000X2.500000*%
%TD*%
%TA.AperFunction,ComponentPad*%
%ADD12C,2.500000*%
%TD*%
%TA.AperFunction,ComponentPad*%
%ADD13C,3.800000*%
%TD*%
%TA.AperFunction,ViaPad*%
%ADD14C,0.600000*%
%TD*%
%TA.AperFunction,Conductor*%
%ADD15C,0.200000*%
%TD*%
G04 APERTURE END LIST*
D10*
%TO.P,J2,S1,SHIELD*%
%TO.N,GND*%
X42000000Y-29180000D03*
X38200000Y-29180000D03*
X42000000Y-37820000D03*
X38200000Y-37820000D03*
%TD*%
D11*
%TO.P,J1,1*%
%TO.N,+12V*%
X66000000Y-49000000D03*
D12*
%TO.P,J1,2*%
%TO.N,GND*%
X71000000Y-49000000D03*
%TD*%
D13*
%TO.P,REF\u002A\u002A,1*%
%TO.N,N/C*%
X77500000Y-50500000D03*
%TD*%
%TO.P,REF\u002A\u002A,1*%
%TO.N,N/C*%
X77500000Y-27500000D03*
%TD*%
%TO.P,REF\u002A\u002A,1*%
%TO.N,N/C*%
X39000000Y-50500000D03*
%TD*%
D14*
%TO.N,+5V*%
X78500000Y-35000000D03*
X51000000Y-36000000D03*
%TO.N,Net-(U1-SW)*%
X69500000Y-30500000D03*
X64000000Y-33000000D03*
%TO.N,+12V*%
X71000000Y-34900002D03*
X65000000Y-41000000D03*
%TD*%
D15*
%TO.N,+12V*%
X65000000Y-41000000D02*
X71000000Y-35000000D01*
X71000000Y-35000000D02*
X71000000Y-34900002D01*
%TO.N,+5V*%
X58500000Y-28500000D02*
X51000000Y-36000000D01*
X78500000Y-33000000D02*
X74000000Y-28500000D01*
X74000000Y-28500000D02*
X58500000Y-28500000D01*
X78500000Y-35000000D02*
X78500000Y-33000000D01*
%TO.N,Net-(U1-SW)*%
X64000000Y-33000000D02*
X65500000Y-33000000D01*
X68000000Y-30500000D02*
X69500000Y-30500000D01*
X65500000Y-33000000D02*
X68000000Y-30500000D01*
%TD*%
%TA.AperFunction,Conductor*%
%TO.N,GND*%
G36*
X76712293Y-25020185D02*
G01*
X76758048Y-25072989D01*
X76767992Y-25142147D01*
X76738967Y-25205703D01*
X76686209Y-25241541D01*
X76579917Y-25278734D01*
X76337005Y-25395714D01*
X76108712Y-25539161D01*
X75897915Y-25707265D01*
X75707265Y-25897915D01*
X75539161Y-26108712D01*
X75395714Y-26337005D01*
X75278734Y-26579917D01*
X75189687Y-26834397D01*
X75189684Y-26834405D01*
X75129688Y-27097268D01*
X75129686Y-27097280D01*
X75099500Y-27365186D01*
X75099500Y-27634813D01*
X75129686Y-27902719D01*
X75129687Y-27902728D01*
X75129688Y-27902732D01*
X75144687Y-27968446D01*
X75189684Y-28165594D01*
X75189687Y-28165602D01*
X75278734Y-28420082D01*
X75395714Y-28662994D01*
X75458534Y-28762971D01*
X75477534Y-28830208D01*
X75457166Y-28897043D01*
X75403898Y-28942257D01*
X75334642Y-28951494D01*
X75271386Y-28921823D01*
X75265859Y-28916624D01*
X74487590Y-28138355D01*
X74487588Y-28138352D01*
X74368717Y-28019481D01*
X74368716Y-28019480D01*
X74281904Y-27969360D01*
X74281904Y-27969359D01*
X74281900Y-27969358D01*
X74231785Y-27940423D01*
X74079057Y-27899499D01*
X73920943Y-27899499D01*
X73913347Y-27899499D01*
X73913331Y-27899500D01*
X58586670Y-27899500D01*
X58586654Y-27899499D01*
X58579058Y-27899499D01*
X58420943Y-27899499D01*
X58344579Y-27919961D01*
X58268214Y-27940423D01*
X58268209Y-27940426D01*
X58131290Y-28019475D01*
X58131282Y-28019481D01*
X51083528Y-35067235D01*
X51048390Y-35091872D01*
X50648668Y-35278864D01*
X50648621Y-35278887D01*
X50644836Y-35280658D01*
X50620821Y-35290606D01*
X50609243Y-35298341D01*
X50602279Y-35301923D01*
X50602204Y-35301961D01*
X50597707Y-35304275D01*
X50596191Y-35305128D01*
X50515799Y-35360446D01*
X50512423Y-35363034D01*
X50489714Y-35378208D01*
X50378209Y-35489712D01*
X50290609Y-35620814D01*
X50290602Y-35620827D01*
X50230264Y-35766498D01*
X50230261Y-35766510D01*
X50199500Y-35921153D01*
X50199500Y-36078846D01*
X50230261Y-36233489D01*
X50230264Y-36233501D01*
X50290602Y-36379172D01*
X50290609Y-36379185D01*
X50378210Y-36510288D01*
X50378213Y-36510292D01*
X50489707Y-36621786D01*
X50489711Y-36621789D01*
X50620814Y-36709390D01*
X50620827Y-36709397D01*
X50766498Y-36769735D01*
X50766503Y-36769737D01*
X50921153Y-36800499D01*
X50921156Y-36800500D01*
X50921158Y-36800500D01*
X51078844Y-36800500D01*
X51078845Y-36800499D01*
X51233497Y-36769737D01*
X51379179Y-36709394D01*
X51510289Y-36621789D01*
X51621789Y-36510289D01*
X51709394Y-36379179D01*
X51718299Y-36357678D01*
X51720510Y-36352659D01*
X51908125Y-35951608D01*
X51932757Y-35916476D01*
X54928081Y-32921153D01*
X63199500Y-32921153D01*
X63199500Y-33078846D01*
X63230261Y-33233489D01*
X63230264Y-33233501D01*
X63290602Y-33379172D01*
X63290609Y-33379185D01*
X63378210Y-33510288D01*
X63378213Y-33510292D01*
X63489707Y-33621786D01*
X63489711Y-33621789D01*
X63620814Y-33709390D01*
X63620827Y-33709397D01*
X63740185Y-33758836D01*
X63766503Y-33769737D01*
X63921153Y-33800499D01*
X63921156Y-33800500D01*
X63921158Y-33800500D01*
X64078844Y-33800500D01*
X64078845Y-33800499D01*
X64233497Y-33769737D01*
X64254964Y-33760843D01*
X64260120Y-33758842D01*
X64676357Y-33607926D01*
X64718624Y-33600500D01*
X65413331Y-33600500D01*
X65413347Y-33600501D01*
X65420943Y-33600501D01*
X65579054Y-33600501D01*
X65579057Y-33600501D01*
X65731785Y-33559577D01*
X65788940Y-33526578D01*
X65868716Y-33480520D01*
X65980520Y-33368716D01*
X65980520Y-33368714D01*
X65990724Y-33358511D01*
X65990727Y-33358506D01*
X68212416Y-31136819D01*
X68273739Y-31103334D01*
X68300097Y-31100500D01*
X68781375Y-31100500D01*
X68823642Y-31107926D01*
X69103503Y-31209397D01*
X69242494Y-31259792D01*
X69266503Y-31269737D01*
X69280018Y-31272425D01*
X69291881Y-31276238D01*
X69293549Y-31276707D01*
X69383720Y-31293419D01*
X69383724Y-31293418D01*
X69390243Y-31294627D01*
X69394374Y-31295172D01*
X69421158Y-31300500D01*
X69421162Y-31300500D01*
X69578844Y-31300500D01*
X69578845Y-31300499D01*
X69733497Y-31269737D01*
X69879179Y-31209394D01*
X70010289Y-31121789D01*
X70121789Y-31010289D01*
X70209394Y-30879179D01*
X70269737Y-30733497D01*
X70300500Y-30578842D01*
X70300500Y-30421158D01*
X70300500Y-30421155D01*
X70300499Y-30421153D01*
X70269738Y-30266510D01*
X70269737Y-30266503D01*
X70237904Y-30189651D01*
X70209397Y-30120827D01*
X70209390Y-30120814D01*
X70121789Y-29989711D01*
X70121786Y-29989707D01*
X70010292Y-29878213D01*
X70010288Y-29878210D01*
X69879185Y-29790609D01*
X69879172Y-29790602D01*
X69733501Y-29730264D01*
X69733489Y-29730261D01*
X69578845Y-29699500D01*
X69578842Y-29699500D01*
X69421158Y-29699500D01*
X69421156Y-29699500D01*
X69266504Y-29730262D01*
X69266499Y-29730264D01*
X69245058Y-29739144D01*
X69239879Y-29741154D01*
X68823640Y-29892074D01*
X68781373Y-29899500D01*
X68086669Y-29899500D01*
X68086653Y-29899499D01*
X68079057Y-29899499D01*
X67920943Y-29899499D01*
X67813587Y-29928265D01*
X67768210Y-29940424D01*
X67768209Y-29940425D01*
X67718096Y-29969359D01*
X67718095Y-29969360D01*
X67682853Y-29989707D01*
X67631285Y-30019479D01*
X67631282Y-30019481D01*
X67540270Y-30110494D01*
X67519480Y-30131284D01*
X67519478Y-30131286D01*
X66390973Y-31259792D01*
X65287584Y-32363181D01*
X65226261Y-32396666D01*
X65199903Y-32399500D01*
X64718625Y-32399500D01*
X64676358Y-32392074D01*
X64261490Y-32241652D01*
X64261456Y-32241640D01*
X64257516Y-32240212D01*
X64233497Y-32230263D01*
X64219991Y-32227576D01*
X64208178Y-32223779D01*
X64206520Y-32223312D01*
X64109793Y-32205377D01*
X64105598Y-32204822D01*
X64101292Y-32203965D01*
X64078842Y-32199500D01*
X63921158Y-32199500D01*
X63921155Y-32199500D01*
X63766510Y-32230261D01*
X63766498Y-32230264D01*
X63620827Y-32290602D01*
X63620814Y-32290609D01*
X63489711Y-32378210D01*
X63489707Y-32378213D01*
X63378213Y-32489707D01*
X63378210Y-32489711D01*
X63290609Y-32620814D01*
X63290602Y-32620827D01*
X63230264Y-32766498D01*
X63230261Y-32766510D01*
X63199500Y-32921153D01*
X54928081Y-32921153D01*
X58712417Y-29136819D01*
X58773740Y-29103334D01*
X58800098Y-29100500D01*
X73699903Y-29100500D01*
X73766942Y-29120185D01*
X73787584Y-29136819D01*
X77863181Y-33212416D01*
X77896666Y-33273739D01*
X77899500Y-33300097D01*
X77899500Y-34281372D01*
X77892074Y-34323640D01*
X77741634Y-34738550D01*
X77741615Y-34738604D01*
X77740196Y-34742520D01*
X77730263Y-34766503D01*
X77727565Y-34780062D01*
X77725154Y-34787572D01*
X77725140Y-34787614D01*
X77723688Y-34792138D01*
X77723222Y-34793798D01*
X77705367Y-34890266D01*
X77704822Y-34894398D01*
X77699500Y-34921156D01*
X77699500Y-35078846D01*
X77730261Y-35233489D01*
X77730264Y-35233501D01*
X77790602Y-35379172D01*
X77790609Y-35379185D01*
X77878210Y-35510288D01*
X77878213Y-35510292D01*
X77989707Y-35621786D01*
X77989711Y-35621789D01*
X78120814Y-35709390D01*
X78120827Y-35709397D01*
X78258683Y-35766498D01*
X78266503Y-35769737D01*
X78421153Y-35800499D01*
X78421156Y-35800500D01*
X78421158Y-35800500D01*
X78578844Y-35800500D01*
X78578845Y-35800499D01*
X78733497Y-35769737D01*
X78879179Y-35709394D01*
X79010289Y-35621789D01*
X79121789Y-35510289D01*
X79209394Y-35379179D01*
X79269737Y-35233497D01*
X79300500Y-35078842D01*
X79300500Y-34921158D01*
X79300500Y-34921156D01*
X79300500Y-34921155D01*
X79300499Y-34921153D01*
X79269738Y-34766510D01*
X79269737Y-34766503D01*
X79260854Y-34745057D01*
X79258843Y-34739877D01*
X79244250Y-34699630D01*
X79107926Y-34323642D01*
X79100500Y-34281375D01*
X79100500Y-33089059D01*
X79100501Y-33089046D01*
X79100501Y-32920945D01*
X79100501Y-32920943D01*
X79059577Y-32768215D01*
X79030639Y-32718095D01*
X78980520Y-32631284D01*
X78868716Y-32519480D01*
X78868715Y-32519479D01*
X78864385Y-32515149D01*
X78864374Y-32515139D01*
X76083375Y-29734140D01*
X76049890Y-29672817D01*
X76054874Y-29603125D01*
X76096746Y-29547192D01*
X76162210Y-29522775D01*
X76230483Y-29537627D01*
X76237021Y-29541461D01*
X76337003Y-29604284D01*
X76579921Y-29721267D01*
X76771049Y-29788145D01*
X76834397Y-29810312D01*
X76834405Y-29810315D01*
X76834408Y-29810315D01*
X76834409Y-29810316D01*
X77097268Y-29870312D01*
X77365187Y-29900499D01*
X77365188Y-29900500D01*
X77365191Y-29900500D01*
X77634812Y-29900500D01*
X77634812Y-29900499D01*
X77902732Y-29870312D01*
X78165591Y-29810316D01*
X78420079Y-29721267D01*
X78662997Y-29604284D01*
X78891289Y-29460838D01*
X79102085Y-29292734D01*
X79292734Y-29102085D01*
X79460838Y-28891289D01*
X79604284Y-28662997D01*
X79721267Y-28420079D01*
X79758460Y-28313787D01*
X79799180Y-28257014D01*
X79864133Y-28231267D01*
X79932695Y-28244723D01*
X79983097Y-28293111D01*
X79999500Y-28354745D01*
X79999500Y-49645254D01*
X79979815Y-49712293D01*
X79927011Y-49758048D01*
X79857853Y-49767992D01*
X79794297Y-49738967D01*
X79758459Y-49686209D01*
X79737048Y-49625021D01*
X79721267Y-49579921D01*
X79604284Y-49337003D01*
X79460838Y-49108711D01*
X79292734Y-48897915D01*
X79102085Y-48707266D01*
X78891289Y-48539162D01*
X78662997Y-48395716D01*
X78662994Y-48395714D01*
X78420082Y-48278734D01*
X78165602Y-48189687D01*
X78165594Y-48189684D01*
X77968446Y-48144687D01*
X77902732Y-48129688D01*
X77902728Y-48129687D01*
X77902719Y-48129686D01*
X77634813Y-48099500D01*
X77634809Y-48099500D01*
X77365191Y-48099500D01*
X77365186Y-48099500D01*
X77097280Y-48129686D01*
X77097268Y-48129688D01*
X76834405Y-48189684D01*
X76834397Y-48189687D01*
X76579917Y-48278734D01*
X76337005Y-48395714D01*
X76108712Y-48539161D01*
X75897915Y-48707265D01*
X75707265Y-48897915D01*
X75539161Y-49108712D01*
X75395714Y-49337005D01*
X75278734Y-49579917D01*
X75189687Y-49834397D01*
X75189684Y-49834405D01*
X75129688Y-50097268D01*
X75129686Y-50097280D01*
X75099500Y-50365186D01*
X75099500Y-50634813D01*
X75129686Y-50902719D01*
X75129688Y-50902731D01*
X75189684Y-51165594D01*
X75189687Y-51165602D01*
X75278734Y-51420082D01*
X75395714Y-51662994D01*
X75395716Y-51662997D01*
X75539162Y-51891289D01*
X75707266Y-52102085D01*
X75897915Y-52292734D01*
X76108711Y-52460838D01*
X76337003Y-52604284D01*
X76579921Y-52721267D01*
X76650411Y-52745932D01*
X76686209Y-52758459D01*
X76742985Y-52799180D01*
X76768732Y-52864133D01*
X76755276Y-52932695D01*
X76706888Y-52983098D01*
X76645254Y-52999500D01*
X39854746Y-52999500D01*
X39787707Y-52979815D01*
X39741952Y-52927011D01*
X39732008Y-52857853D01*
X39761033Y-52794297D01*
X39813791Y-52758459D01*
X39839608Y-52749424D01*
X39920079Y-52721267D01*
X40162997Y-52604284D01*
X40391289Y-52460838D01*
X40602085Y-52292734D01*
X40792734Y-52102085D01*
X40960838Y-51891289D01*
X41104284Y-51662997D01*
X41221267Y-51420079D01*
X41310316Y-51165591D01*
X41370312Y-50902732D01*
X41400500Y-50634809D01*
X41400500Y-50365191D01*
X41370312Y-50097268D01*
X41310316Y-49834409D01*
X41221267Y-49579921D01*
X41104284Y-49337003D01*
X40960838Y-49108711D01*
X40792734Y-48897915D01*
X40602085Y-48707266D01*
X40391289Y-48539162D01*
X40162997Y-48395716D01*
X40162994Y-48395714D01*
X39920082Y-48278734D01*
X39665602Y-48189687D01*
X39665594Y-48189684D01*
X39468446Y-48144687D01*
X39402732Y-48129688D01*
X39402728Y-48129687D01*
X39402719Y-48129686D01*
X39134813Y-48099500D01*
X39134809Y-48099500D01*
X38865191Y-48099500D01*
X38865186Y-48099500D01*
X38597280Y-48129686D01*
X38597268Y-48129688D01*
X38334405Y-48189684D01*
X38334397Y-48189687D01*
X38079917Y-48278734D01*
X37837005Y-48395714D01*
X37608712Y-48539161D01*
X37397915Y-48707265D01*
X37207265Y-48897915D01*
X37039161Y-49108712D01*
X36895714Y-49337005D01*
X36778734Y-49579917D01*
X36741541Y-49686209D01*
X36700820Y-49742985D01*
X36635867Y-49768732D01*
X36567305Y-49755276D01*
X36516902Y-49706888D01*
X36500500Y-49645254D01*
X36500500Y-47702135D01*
X64249500Y-47702135D01*
X64249500Y-50297870D01*
X64249501Y-50297876D01*
X64255908Y-50357483D01*
X64306202Y-50492328D01*
X64306206Y-50492335D01*
X64392452Y-50607544D01*
X64392455Y-50607547D01*
X64507664Y-50693793D01*
X64507671Y-50693797D01*
X64642517Y-50744091D01*
X64642516Y-50744091D01*
X64649444Y-50744835D01*
X64702127Y-50750500D01*
X67297872Y-50750499D01*
X67357483Y-50744091D01*
X67492331Y-50693796D01*
X67607546Y-50607546D01*
X67693796Y-50492331D01*
X67744091Y-50357483D01*
X67750500Y-50297873D01*
X67750499Y-48885305D01*
X69250000Y-48885305D01*
X69250000Y-49114694D01*
X69250001Y-49114710D01*
X69279942Y-49342137D01*
X69339318Y-49563730D01*
X69427102Y-49775659D01*
X69427106Y-49775669D01*
X69541799Y-49974324D01*
X69541805Y-49974331D01*
X69598381Y-50048064D01*
X70398958Y-49247487D01*
X70423978Y-49307890D01*
X70495112Y-49414351D01*
X70585649Y-49504888D01*
X70692110Y-49576022D01*
X70752511Y-49601041D01*
X69951934Y-50401617D01*
X69951934Y-50401618D01*
X70025666Y-50458194D01*
X70224330Y-50572893D01*
X70224340Y-50572897D01*
X70436269Y-50660681D01*
X70657862Y-50720057D01*
X70885289Y-50749998D01*
X70885306Y-50750000D01*
X71114694Y-50750000D01*
X71114710Y-50749998D01*
X71342137Y-50720057D01*
X71563730Y-50660681D01*
X71775659Y-50572897D01*
X71775668Y-50572893D01*
X71974327Y-50458197D01*
X71974334Y-50458192D01*
X72048064Y-50401617D01*
X71247488Y-49601041D01*
X71307890Y-49576022D01*
X71414351Y-49504888D01*
X71504888Y-49414351D01*
X71576022Y-49307890D01*
X71601041Y-49247488D01*
X72401617Y-50048064D01*
X72458192Y-49974334D01*
X72458197Y-49974327D01*
X72572893Y-49775668D01*
X72572897Y-49775659D01*
X72660681Y-49563730D01*
X72720057Y-49342137D01*
X72749998Y-49114710D01*
X72750000Y-49114694D01*
X72750000Y-48885305D01*
X72749998Y-48885289D01*
X72720057Y-48657862D01*
X72660681Y-48436269D01*
X72572897Y-48224340D01*
X72572893Y-48224330D01*
X72458194Y-48025666D01*
X72401618Y-47951934D01*
X72401617Y-47951934D01*
X71601041Y-48752510D01*
X71576022Y-48692110D01*
X71504888Y-48585649D01*
X71414351Y-48495112D01*
X71307890Y-48423978D01*
X71247487Y-48398957D01*
X72048064Y-47598381D01*
X72048064Y-47598380D01*
X71974331Y-47541805D01*
X71974324Y-47541799D01*
X71775669Y-47427106D01*
X71775659Y-47427102D01*
X71563730Y-47339318D01*
X71342137Y-47279942D01*
X71114710Y-47250001D01*
X71114694Y-47250000D01*
X70885306Y-47250000D01*
X70885289Y-47250001D01*
X70657862Y-47279942D01*
X70436269Y-47339318D01*
X70224340Y-47427102D01*
X70224330Y-47427106D01*
X70025673Y-47541801D01*
X70025659Y-47541810D01*
X69951934Y-47598380D01*
X70752511Y-48398958D01*
X70692110Y-48423978D01*
X70585649Y-48495112D01*
X70495112Y-48585649D01*
X70423978Y-48692110D01*
X70398958Y-48752511D01*
X69598380Y-47951934D01*
X69541810Y-48025659D01*
X69541801Y-48025673D01*
X69427106Y-48224330D01*
X69427102Y-48224340D01*
X69339318Y-48436269D01*
X69279942Y-48657862D01*
X69250001Y-48885289D01*
X69250000Y-48885305D01*
X67750499Y-48885305D01*
X67750499Y-47702128D01*
X67744091Y-47642517D01*
X67727629Y-47598381D01*
X67693797Y-47507671D01*
X67693793Y-47507664D01*
X67607547Y-47392455D01*
X67607544Y-47392452D01*
X67492335Y-47306206D01*
X67492328Y-47306202D01*
X67357482Y-47255908D01*
X67357483Y-47255908D01*
X67297883Y-47249501D01*
X67297881Y-47249500D01*
X67297873Y-47249500D01*
X67297864Y-47249500D01*
X64702129Y-47249500D01*
X64702123Y-47249501D01*
X64642516Y-47255908D01*
X64507671Y-47306202D01*
X64507664Y-47306206D01*
X64392455Y-47392452D01*
X64392452Y-47392455D01*
X64306206Y-47507664D01*
X64306202Y-47507671D01*
X64255908Y-47642517D01*
X64249501Y-47702116D01*
X64249500Y-47702135D01*
X36500500Y-47702135D01*
X36500500Y-40921153D01*
X64199500Y-40921153D01*
X64199500Y-41078846D01*
X64230261Y-41233489D01*
X64230264Y-41233501D01*
X64290602Y-41379172D01*
X64290609Y-41379185D01*
X64378210Y-41510288D01*
X64378213Y-41510292D01*
X64489707Y-41621786D01*
X64489711Y-41621789D01*
X64620814Y-41709390D01*
X64620827Y-41709397D01*
X64766498Y-41769735D01*
X64766503Y-41769737D01*
X64921153Y-41800499D01*
X64921156Y-41800500D01*
X64921158Y-41800500D01*
X65078844Y-41800500D01*
X65078845Y-41800499D01*
X65233497Y-41769737D01*
X65379179Y-41709394D01*
X65510289Y-41621789D01*
X65621789Y-41510289D01*
X65709394Y-41379179D01*
X65718299Y-41357678D01*
X65720510Y-41352659D01*
X65908125Y-40951608D01*
X65932757Y-40916476D01*
X70991691Y-35857542D01*
X71013844Y-35839953D01*
X71423540Y-35584980D01*
X71429947Y-35580926D01*
X71430233Y-35580742D01*
X71479588Y-35544587D01*
X71479591Y-35544582D01*
X71482655Y-35541820D01*
X71496831Y-35530783D01*
X71510289Y-35521791D01*
X71621789Y-35410291D01*
X71709394Y-35279181D01*
X71769737Y-35133499D01*
X71800500Y-34978844D01*
X71800500Y-34821160D01*
X71800500Y-34821157D01*
X71800499Y-34821155D01*
X71784852Y-34742494D01*
X71769737Y-34666505D01*
X71769735Y-34666500D01*
X71709397Y-34520829D01*
X71709390Y-34520816D01*
X71621789Y-34389713D01*
X71621786Y-34389709D01*
X71510292Y-34278215D01*
X71510288Y-34278212D01*
X71379185Y-34190611D01*
X71379172Y-34190604D01*
X71233501Y-34130266D01*
X71233489Y-34130263D01*
X71078845Y-34099502D01*
X71078842Y-34099502D01*
X70921158Y-34099502D01*
X70921155Y-34099502D01*
X70766510Y-34130263D01*
X70766498Y-34130266D01*
X70620827Y-34190604D01*
X70620814Y-34190611D01*
X70489711Y-34278212D01*
X70489707Y-34278215D01*
X70378213Y-34389709D01*
X70378210Y-34389713D01*
X70290609Y-34520816D01*
X70290602Y-34520829D01*
X70230263Y-34666501D01*
X70230262Y-34666505D01*
X70229000Y-34672849D01*
X70221517Y-34695293D01*
X70222085Y-34695518D01*
X70220454Y-34699642D01*
X70150704Y-34921158D01*
X70127021Y-34996370D01*
X70123764Y-35006712D01*
X70123557Y-35007370D01*
X70092966Y-35057797D01*
X65083528Y-40067235D01*
X65048390Y-40091872D01*
X64647344Y-40279484D01*
X64642257Y-40281726D01*
X64620823Y-40290604D01*
X64620816Y-40290608D01*
X64615117Y-40294416D01*
X64602975Y-40301565D01*
X64597707Y-40304275D01*
X64596191Y-40305128D01*
X64515799Y-40360446D01*
X64512423Y-40363034D01*
X64489714Y-40378208D01*
X64378209Y-40489712D01*
X64290609Y-40620814D01*
X64290602Y-40620827D01*
X64230264Y-40766498D01*
X64230261Y-40766510D01*
X64199500Y-40921153D01*
X36500500Y-40921153D01*
X36500500Y-37570000D01*
X36879157Y-37570000D01*
X37733012Y-37570000D01*
X37715795Y-37579940D01*
X37659940Y-37635795D01*
X37620444Y-37704204D01*
X37600000Y-37780504D01*
X37600000Y-37859496D01*
X37620444Y-37935796D01*
X37659940Y-38004205D01*
X37715795Y-38060060D01*
X37733012Y-38070000D01*
X36879157Y-38070000D01*
X36890350Y-38126274D01*
X36890351Y-38126276D01*
X36969500Y-38317358D01*
X36969505Y-38317368D01*
X37084410Y-38489335D01*
X37084413Y-38489339D01*
X37230660Y-38635586D01*
X37230664Y-38635589D01*
X37402631Y-38750494D01*
X37402641Y-38750499D01*
X37593725Y-38829649D01*
X37593733Y-38829651D01*
X37796579Y-38869999D01*
X37796583Y-38870000D01*
X37950000Y-38870000D01*
X37950000Y-38120000D01*
X38450000Y-38120000D01*
X38450000Y-38870000D01*
X38603417Y-38870000D01*
X38603420Y-38869999D01*
X38806266Y-38829651D01*
X38806274Y-38829649D01*
X38997358Y-38750499D01*
X38997368Y-38750494D01*
X39169335Y-38635589D01*
X39169339Y-38635586D01*
X39315586Y-38489339D01*
X39315589Y-38489335D01*
X39430494Y-38317368D01*
X39430499Y-38317358D01*
X39509648Y-38126276D01*
X39509649Y-38126274D01*
X39520843Y-38070000D01*
X38666988Y-38070000D01*
X38684205Y-38060060D01*
X38740060Y-38004205D01*
X38779556Y-37935796D01*
X38800000Y-37859496D01*
X38800000Y-37780504D01*
X38779556Y-37704204D01*
X38740060Y-37635795D01*
X38684205Y-37579940D01*
X38666988Y-37570000D01*
X39520843Y-37570000D01*
X40679157Y-37570000D01*
X41533012Y-37570000D01*
X41515795Y-37579940D01*
X41459940Y-37635795D01*
X41420444Y-37704204D01*
X41400000Y-37780504D01*
X41400000Y-37859496D01*
X41420444Y-37935796D01*
X41459940Y-38004205D01*
X41515795Y-38060060D01*
X41533012Y-38070000D01*
X40679157Y-38070000D01*
X40690350Y-38126274D01*
X40690351Y-38126276D01*
X40769500Y-38317358D01*
X40769505Y-38317368D01*
X40884410Y-38489335D01*
X40884413Y-38489339D01*
X41030660Y-38635586D01*
X41030664Y-38635589D01*
X41202631Y-38750494D01*
X41202641Y-38750499D01*
X41393725Y-38829649D01*
X41393733Y-38829651D01*
X41596579Y-38869999D01*
X41596583Y-38870000D01*
X41750000Y-38870000D01*
X41750000Y-38120000D01*
X42250000Y-38120000D01*
X42250000Y-38870000D01*
X42403417Y-38870000D01*
X42403420Y-38869999D01*
X42606266Y-38829651D01*
X42606274Y-38829649D01*
X42797358Y-38750499D01*
X42797368Y-38750494D01*
X42969335Y-38635589D01*
X42969339Y-38635586D01*
X43115586Y-38489339D01*
X43115589Y-38489335D01*
X43230494Y-38317368D01*
X43230499Y-38317358D01*
X43309648Y-38126276D01*
X43309649Y-38126274D01*
X43320843Y-38070000D01*
X42466988Y-38070000D01*
X42484205Y-38060060D01*
X42540060Y-38004205D01*
X42579556Y-37935796D01*
X42600000Y-37859496D01*
X42600000Y-37780504D01*
X42579556Y-37704204D01*
X42540060Y-37635795D01*
X42484205Y-37579940D01*
X42466988Y-37570000D01*
X43320843Y-37570000D01*
X43309649Y-37513725D01*
X43309648Y-37513723D01*
X43230499Y-37322641D01*
X43230494Y-37322631D01*
X43115589Y-37150664D01*
X43115586Y-37150660D01*
X42969339Y-37004413D01*
X42969335Y-37004410D01*
X42797368Y-36889505D01*
X42797358Y-36889500D01*
X42606274Y-36810350D01*
X42606266Y-36810348D01*
X42403420Y-36770000D01*
X42250000Y-36770000D01*
X42250000Y-37520000D01*
X41750000Y-37520000D01*
X41750000Y-36770000D01*
X41596579Y-36770000D01*
X41393733Y-36810348D01*
X41393725Y-36810350D01*
X41202641Y-36889500D01*
X41202631Y-36889505D01*
X41030664Y-37004410D01*
X41030660Y-37004413D01*
X40884413Y-37150660D01*
X40884410Y-37150664D01*
X40769505Y-37322631D01*
X40769500Y-37322641D01*
X40690351Y-37513723D01*
X40690350Y-37513725D01*
X40679157Y-37570000D01*
X39520843Y-37570000D01*
X39509649Y-37513725D01*
X39509648Y-37513723D01*
X39430499Y-37322641D01*
X39430494Y-37322631D01*
X39315589Y-37150664D01*
X39315586Y-37150660D01*
X39169339Y-37004413D01*
X39169335Y-37004410D01*
X38997368Y-36889505D01*
X38997358Y-36889500D01*
X38806274Y-36810350D01*
X38806266Y-36810348D01*
X38603420Y-36770000D01*
X38450000Y-36770000D01*
X38450000Y-37520000D01*
X37950000Y-37520000D01*
X37950000Y-36770000D01*
X37796579Y-36770000D01*
X37593733Y-36810348D01*
X37593725Y-36810350D01*
X37402641Y-36889500D01*
X37402631Y-36889505D01*
X37230664Y-37004410D01*
X37230660Y-37004413D01*
X37084413Y-37150660D01*
X37084410Y-37150664D01*
X36969505Y-37322631D01*
X36969500Y-37322641D01*
X36890351Y-37513723D01*
X36890350Y-37513725D01*
X36879157Y-37570000D01*
X36500500Y-37570000D01*
X36500500Y-28930000D01*
X36879157Y-28930000D01*
X37733012Y-28930000D01*
X37715795Y-28939940D01*
X37659940Y-28995795D01*
X37620444Y-29064204D01*
X37600000Y-29140504D01*
X37600000Y-29219496D01*
X37620444Y-29295796D01*
X37659940Y-29364205D01*
X37715795Y-29420060D01*
X37733012Y-29430000D01*
X36879157Y-29430000D01*
X36890350Y-29486274D01*
X36890351Y-29486276D01*
X36969500Y-29677358D01*
X36969505Y-29677368D01*
X37084410Y-29849335D01*
X37084413Y-29849339D01*
X37230660Y-29995586D01*
X37230664Y-29995589D01*
X37402631Y-30110494D01*
X37402641Y-30110499D01*
X37593725Y-30189649D01*
X37593733Y-30189651D01*
X37796579Y-30229999D01*
X37796583Y-30230000D01*
X37950000Y-30230000D01*
X37950000Y-29480000D01*
X38450000Y-29480000D01*
X38450000Y-30230000D01*
X38603417Y-30230000D01*
X38603420Y-30229999D01*
X38806266Y-30189651D01*
X38806274Y-30189649D01*
X38997358Y-30110499D01*
X38997368Y-30110494D01*
X39169335Y-29995589D01*
X39169339Y-29995586D01*
X39315586Y-29849339D01*
X39315589Y-29849335D01*
X39430494Y-29677368D01*
X39430499Y-29677358D01*
X39509648Y-29486276D01*
X39509649Y-29486274D01*
X39520843Y-29430000D01*
X38666988Y-29430000D01*
X38684205Y-29420060D01*
X38740060Y-29364205D01*
X38779556Y-29295796D01*
X38800000Y-29219496D01*
X38800000Y-29140504D01*
X38779556Y-29064204D01*
X38740060Y-28995795D01*
X38684205Y-28939940D01*
X38666988Y-28930000D01*
X39520843Y-28930000D01*
X40679157Y-28930000D01*
X41533012Y-28930000D01*
X41515795Y-28939940D01*
X41459940Y-28995795D01*
X41420444Y-29064204D01*
X41400000Y-29140504D01*
X41400000Y-29219496D01*
X41420444Y-29295796D01*
X41459940Y-29364205D01*
X41515795Y-29420060D01*
X41533012Y-29430000D01*
X40679157Y-29430000D01*
X40690350Y-29486274D01*
X40690351Y-29486276D01*
X40769500Y-29677358D01*
X40769505Y-29677368D01*
X40884410Y-29849335D01*
X40884413Y-29849339D01*
X41030660Y-29995586D01*
X41030664Y-29995589D01*
X41202631Y-30110494D01*
X41202641Y-30110499D01*
X41393725Y-30189649D01*
X41393733Y-30189651D01*
X41596579Y-30229999D01*
X41596583Y-30230000D01*
X41750000Y-30230000D01*
X41750000Y-29480000D01*
X42250000Y-29480000D01*
X42250000Y-30230000D01*
X42403417Y-30230000D01*
X42403420Y-30229999D01*
X42606266Y-30189651D01*
X42606274Y-30189649D01*
X42797358Y-30110499D01*
X42797368Y-30110494D01*
X42969335Y-29995589D01*
X42969339Y-29995586D01*
X43115586Y-29849339D01*
X43115589Y-29849335D01*
X43230494Y-29677368D01*
X43230499Y-29677358D01*
X43309648Y-29486276D01*
X43309649Y-29486274D01*
X43320843Y-29430000D01*
X42466988Y-29430000D01*
X42484205Y-29420060D01*
X42540060Y-29364205D01*
X42579556Y-29295796D01*
X42600000Y-29219496D01*
X42600000Y-29140504D01*
X42579556Y-29064204D01*
X42540060Y-28995795D01*
X42484205Y-28939940D01*
X42466988Y-28930000D01*
X43320843Y-28930000D01*
X43309649Y-28873725D01*
X43309648Y-28873723D01*
X43230499Y-28682641D01*
X43230494Y-28682631D01*
X43115589Y-28510664D01*
X43115586Y-28510660D01*
X42969339Y-28364413D01*
X42969335Y-28364410D01*
X42797368Y-28249505D01*
X42797358Y-28249500D01*
X42606274Y-28170350D01*
X42606266Y-28170348D01*
X42403420Y-28130000D01*
X42250000Y-28130000D01*
X42250000Y-28880000D01*
X41750000Y-28880000D01*
X41750000Y-28130000D01*
X41596579Y-28130000D01*
X41393733Y-28170348D01*
X41393725Y-28170350D01*
X41202641Y-28249500D01*
X41202631Y-28249505D01*
X41030664Y-28364410D01*
X41030660Y-28364413D01*
X40884413Y-28510660D01*
X40884410Y-28510664D01*
X40769505Y-28682631D01*
X40769500Y-28682641D01*
X40690351Y-28873723D01*
X40690350Y-28873725D01*
X40679157Y-28930000D01*
X39520843Y-28930000D01*
X39509649Y-28873725D01*
X39509648Y-28873723D01*
X39430499Y-28682641D01*
X39430494Y-28682631D01*
X39315589Y-28510664D01*
X39315586Y-28510660D01*
X39169339Y-28364413D01*
X39169335Y-28364410D01*
X38997368Y-28249505D01*
X38997358Y-28249500D01*
X38806274Y-28170350D01*
X38806266Y-28170348D01*
X38603420Y-28130000D01*
X38450000Y-28130000D01*
X38450000Y-28880000D01*
X37950000Y-28880000D01*
X37950000Y-28130000D01*
X37796579Y-28130000D01*
X37593733Y-28170348D01*
X37593725Y-28170350D01*
X37402641Y-28249500D01*
X37402631Y-28249505D01*
X37230664Y-28364410D01*
X37230660Y-28364413D01*
X37084413Y-28510660D01*
X37084410Y-28510664D01*
X36969505Y-28682631D01*
X36969500Y-28682641D01*
X36890351Y-28873723D01*
X36890350Y-28873725D01*
X36879157Y-28930000D01*
X36500500Y-28930000D01*
X36500500Y-25506961D01*
X36501280Y-25493077D01*
X36501280Y-25493076D01*
X36511459Y-25402731D01*
X36517635Y-25375670D01*
X36545353Y-25296456D01*
X36557396Y-25271450D01*
X36602046Y-25200389D01*
X36619351Y-25178690D01*
X36678690Y-25119351D01*
X36700389Y-25102046D01*
X36771450Y-25057396D01*
X36796456Y-25045353D01*
X36875670Y-25017635D01*
X36902733Y-25011459D01*
X36965419Y-25004396D01*
X36993079Y-25001280D01*
X37006962Y-25000500D01*
X37065892Y-25000500D01*
X76645254Y-25000500D01*
X76712293Y-25020185D01*
G37*
%TD.AperFunction*%
%TD*%
%TA.AperFunction,Conductor*%
%TO.N,+12V*%
G36*
X70995912Y-34898355D02*
G01*
X71003369Y-34903307D01*
X71003409Y-34903367D01*
X71160011Y-35139406D01*
X71161730Y-35148194D01*
X71156730Y-35155623D01*
X71156444Y-35155807D01*
X70711976Y-35432422D01*
X70703141Y-35433884D01*
X70697521Y-35430762D01*
X70567687Y-35300928D01*
X70564260Y-35292655D01*
X70564800Y-35289141D01*
X70609183Y-35148194D01*
X70702621Y-34851454D01*
X70708375Y-34844593D01*
X70716032Y-34843488D01*
X70995912Y-34898355D01*
G37*
%TD.AperFunction*%
%TD*%
%TA.AperFunction,Conductor*%
%TO.N,+12V*%
G36*
X65355277Y-40514902D02*
G01*
X65485097Y-40644722D01*
X65488524Y-40652995D01*
X65487422Y-40657953D01*
X65255193Y-41154373D01*
X65248583Y-41160414D01*
X65239637Y-41160013D01*
X65238127Y-41159164D01*
X65001265Y-41002015D01*
X64997984Y-40998734D01*
X64840835Y-40761872D01*
X64839116Y-40753084D01*
X64844116Y-40745655D01*
X64845621Y-40744808D01*
X65342048Y-40512576D01*
X65350992Y-40512176D01*
X65355277Y-40514902D01*
G37*
%TD.AperFunction*%
%TD*%
%TA.AperFunction,Conductor*%
%TO.N,+5V*%
G36*
X51355277Y-35514902D02*
G01*
X51485097Y-35644722D01*
X51488524Y-35652995D01*
X51487422Y-35657953D01*
X51255193Y-36154373D01*
X51248583Y-36160414D01*
X51239637Y-36160013D01*
X51238127Y-36159164D01*
X51001265Y-36002015D01*
X50997984Y-35998734D01*
X50840835Y-35761872D01*
X50839116Y-35753084D01*
X50844116Y-35745655D01*
X50845621Y-35744808D01*
X51342048Y-35512576D01*
X51350992Y-35512176D01*
X51355277Y-35514902D01*
G37*
%TD.AperFunction*%
%TD*%
%TA.AperFunction,Conductor*%
%TO.N,+5V*%
G36*
X78600070Y-34409191D02*
G01*
X78602796Y-34413476D01*
X78789608Y-34928709D01*
X78789207Y-34937655D01*
X78782597Y-34943696D01*
X78780929Y-34944165D01*
X78502320Y-35000530D01*
X78497680Y-35000530D01*
X78219070Y-34944165D01*
X78211641Y-34939165D01*
X78209922Y-34930377D01*
X78210387Y-34928720D01*
X78397204Y-34413476D01*
X78403245Y-34406866D01*
X78408203Y-34405764D01*
X78591797Y-34405764D01*
X78600070Y-34409191D01*
G37*
%TD.AperFunction*%
%TD*%
%TA.AperFunction,Conductor*%
%TO.N,Net-(U1-SW)*%
G36*
X64071282Y-32710389D02*
G01*
X64586525Y-32897204D01*
X64593134Y-32903244D01*
X64594236Y-32908202D01*
X64594236Y-33091797D01*
X64590809Y-33100070D01*
X64586524Y-33102796D01*
X64071290Y-33289608D01*
X64062344Y-33289207D01*
X64056303Y-33282597D01*
X64055837Y-33280939D01*
X63999469Y-33002318D01*
X63999469Y-32997680D01*
X64055835Y-32719067D01*
X64060834Y-32711641D01*
X64069622Y-32709922D01*
X64071282Y-32710389D01*
G37*
%TD.AperFunction*%
%TD*%
%TA.AperFunction,Conductor*%
%TO.N,Net-(U1-SW)*%
G36*
X69437655Y-30210792D02*
G01*
X69443696Y-30217402D01*
X69444165Y-30219070D01*
X69500530Y-30497680D01*
X69500530Y-30502320D01*
X69444165Y-30780929D01*
X69439165Y-30788358D01*
X69430377Y-30790077D01*
X69428709Y-30789608D01*
X68913476Y-30602796D01*
X68906866Y-30596755D01*
X68905764Y-30591797D01*
X68905764Y-30408202D01*
X68909191Y-30399929D01*
X68913473Y-30397204D01*
X69428711Y-30210391D01*
X69437655Y-30210792D01*
G37*
%TD.AperFunction*%
%TD*%
M02*
