%TF.GenerationSoftware,KiCad,Pcbnew,9.0.0*%
%TF.CreationDate,2025-04-12T13:33:05-05:00*%
%TF.ProjectId,Boat_Volt_Reg,426f6174-5f56-46f6-9c74-5f5265672e6b,rev?*%
%TF.SameCoordinates,Original*%
%TF.FileFunction,Drillmap*%
%TF.FilePolarity,Positive*%
%FSLAX45Y45*%
G04 Gerber Fmt 4.5, Leading zero omitted, Abs format (unit mm)*
G04 Created by KiCad (PCBNEW 9.0.0) date 2025-04-12 13:33:05*
%MOMM*%
%LPD*%
G01*
G04 APERTURE LIST*
%ADD10C,0.050000*%
%ADD11C,0.200000*%
%ADD12C,0.100000*%
%ADD13C,0.130000*%
%ADD14C,0.220000*%
G04 APERTURE END LIST*
D10*
X3600000Y-5250000D02*
X3600000Y-2550000D01*
X3700000Y-5350000D02*
G75*
G02*
X3600000Y-5250000I0J100000D01*
G01*
X8050000Y-5250000D02*
G75*
G02*
X7950000Y-5350000I-100000J0D01*
G01*
X7950000Y-2450000D02*
G75*
G02*
X8050000Y-2550000I0J-100000D01*
G01*
X3600000Y-2550000D02*
G75*
G02*
X3700000Y-2450000I100000J0D01*
G01*
X7950000Y-5350000D02*
X3700000Y-5350000D01*
X8050000Y-2550000D02*
X8050000Y-5250000D01*
X3700000Y-2450000D02*
X7950000Y-2450000D01*
D11*
D12*
X5085000Y-3585000D02*
X5115000Y-3615000D01*
X5115000Y-3585000D02*
X5085000Y-3615000D01*
X6385000Y-3285000D02*
X6415000Y-3315000D01*
X6415000Y-3285000D02*
X6385000Y-3315000D01*
X6485000Y-4085000D02*
X6515000Y-4115000D01*
X6515000Y-4085000D02*
X6485000Y-4115000D01*
X6935000Y-3035000D02*
X6965000Y-3065000D01*
X6965000Y-3035000D02*
X6935000Y-3065000D01*
X7085000Y-3475000D02*
X7115000Y-3505000D01*
X7115000Y-3475000D02*
X7085000Y-3505000D01*
X7835000Y-3485000D02*
X7865000Y-3515000D01*
X7865000Y-3485000D02*
X7835000Y-3515000D01*
X3850000Y-2918000D02*
G75*
G02*
X3790000Y-2918000I-30000J0D01*
G01*
X3790000Y-2918000D02*
G75*
G02*
X3850000Y-2918000I30000J0D01*
G01*
X3850000Y-2888000D02*
X3790000Y-2888000D01*
X3790000Y-2948000D02*
G75*
G02*
X3790000Y-2888000I0J30000D01*
G01*
X3790000Y-2948000D02*
X3850000Y-2948000D01*
X3850000Y-2948000D02*
G75*
G03*
X3850000Y-2888000I0J30000D01*
G01*
X3850000Y-3782000D02*
G75*
G02*
X3790000Y-3782000I-30000J0D01*
G01*
X3790000Y-3782000D02*
G75*
G02*
X3850000Y-3782000I30000J0D01*
G01*
X3850000Y-3752000D02*
X3790000Y-3752000D01*
X3790000Y-3812000D02*
G75*
G02*
X3790000Y-3752000I0J30000D01*
G01*
X3790000Y-3812000D02*
X3850000Y-3812000D01*
X3850000Y-3812000D02*
G75*
G03*
X3850000Y-3752000I0J30000D01*
G01*
X4230000Y-2918000D02*
G75*
G02*
X4170000Y-2918000I-30000J0D01*
G01*
X4170000Y-2918000D02*
G75*
G02*
X4230000Y-2918000I30000J0D01*
G01*
X4230000Y-2888000D02*
X4170000Y-2888000D01*
X4170000Y-2948000D02*
G75*
G02*
X4170000Y-2888000I0J30000D01*
G01*
X4170000Y-2948000D02*
X4230000Y-2948000D01*
X4230000Y-2948000D02*
G75*
G03*
X4230000Y-2888000I0J30000D01*
G01*
X4230000Y-3782000D02*
G75*
G02*
X4170000Y-3782000I-30000J0D01*
G01*
X4170000Y-3782000D02*
G75*
G02*
X4230000Y-3782000I30000J0D01*
G01*
X4230000Y-3752000D02*
X4170000Y-3752000D01*
X4170000Y-3812000D02*
G75*
G02*
X4170000Y-3752000I0J30000D01*
G01*
X4170000Y-3812000D02*
X4230000Y-3812000D01*
X4230000Y-3812000D02*
G75*
G03*
X4230000Y-3752000I0J30000D01*
G01*
D13*
X6600000Y-4835000D02*
X6600000Y-4965000D01*
X6535000Y-4900000D02*
X6665000Y-4900000D01*
X7100000Y-4835000D02*
X7100000Y-4965000D01*
X7035000Y-4900000D02*
X7165000Y-4900000D01*
D14*
X3977782Y-5127783D02*
X3977782Y-4972218D01*
X3822217Y-4972218D01*
X3822217Y-5127783D01*
X3977782Y-5127783D01*
X7827782Y-2827782D02*
X7827782Y-2672218D01*
X7672217Y-2672218D01*
X7672217Y-2827782D01*
X7827782Y-2827782D01*
X7827782Y-5127783D02*
X7827782Y-4972218D01*
X7672217Y-4972218D01*
X7672217Y-5127783D01*
X7827782Y-5127783D01*
D11*
X3858277Y-5663984D02*
X3858277Y-5463984D01*
X3858277Y-5463984D02*
X3905896Y-5463984D01*
X3905896Y-5463984D02*
X3934467Y-5473508D01*
X3934467Y-5473508D02*
X3953515Y-5492555D01*
X3953515Y-5492555D02*
X3963039Y-5511603D01*
X3963039Y-5511603D02*
X3972562Y-5549698D01*
X3972562Y-5549698D02*
X3972562Y-5578270D01*
X3972562Y-5578270D02*
X3963039Y-5616365D01*
X3963039Y-5616365D02*
X3953515Y-5635412D01*
X3953515Y-5635412D02*
X3934467Y-5654460D01*
X3934467Y-5654460D02*
X3905896Y-5663984D01*
X3905896Y-5663984D02*
X3858277Y-5663984D01*
X4058277Y-5663984D02*
X4058277Y-5530650D01*
X4058277Y-5568746D02*
X4067801Y-5549698D01*
X4067801Y-5549698D02*
X4077324Y-5540174D01*
X4077324Y-5540174D02*
X4096372Y-5530650D01*
X4096372Y-5530650D02*
X4115420Y-5530650D01*
X4182086Y-5663984D02*
X4182086Y-5530650D01*
X4182086Y-5463984D02*
X4172562Y-5473508D01*
X4172562Y-5473508D02*
X4182086Y-5483031D01*
X4182086Y-5483031D02*
X4191610Y-5473508D01*
X4191610Y-5473508D02*
X4182086Y-5463984D01*
X4182086Y-5463984D02*
X4182086Y-5483031D01*
X4305896Y-5663984D02*
X4286848Y-5654460D01*
X4286848Y-5654460D02*
X4277324Y-5635412D01*
X4277324Y-5635412D02*
X4277324Y-5463984D01*
X4410658Y-5663984D02*
X4391610Y-5654460D01*
X4391610Y-5654460D02*
X4382086Y-5635412D01*
X4382086Y-5635412D02*
X4382086Y-5463984D01*
X4639229Y-5663984D02*
X4639229Y-5463984D01*
X4639229Y-5463984D02*
X4705896Y-5606841D01*
X4705896Y-5606841D02*
X4772563Y-5463984D01*
X4772563Y-5463984D02*
X4772563Y-5663984D01*
X4953515Y-5663984D02*
X4953515Y-5559222D01*
X4953515Y-5559222D02*
X4943991Y-5540174D01*
X4943991Y-5540174D02*
X4924944Y-5530650D01*
X4924944Y-5530650D02*
X4886848Y-5530650D01*
X4886848Y-5530650D02*
X4867801Y-5540174D01*
X4953515Y-5654460D02*
X4934467Y-5663984D01*
X4934467Y-5663984D02*
X4886848Y-5663984D01*
X4886848Y-5663984D02*
X4867801Y-5654460D01*
X4867801Y-5654460D02*
X4858277Y-5635412D01*
X4858277Y-5635412D02*
X4858277Y-5616365D01*
X4858277Y-5616365D02*
X4867801Y-5597317D01*
X4867801Y-5597317D02*
X4886848Y-5587793D01*
X4886848Y-5587793D02*
X4934467Y-5587793D01*
X4934467Y-5587793D02*
X4953515Y-5578270D01*
X5048753Y-5530650D02*
X5048753Y-5730650D01*
X5048753Y-5540174D02*
X5067801Y-5530650D01*
X5067801Y-5530650D02*
X5105896Y-5530650D01*
X5105896Y-5530650D02*
X5124944Y-5540174D01*
X5124944Y-5540174D02*
X5134467Y-5549698D01*
X5134467Y-5549698D02*
X5143991Y-5568746D01*
X5143991Y-5568746D02*
X5143991Y-5625888D01*
X5143991Y-5625888D02*
X5134467Y-5644936D01*
X5134467Y-5644936D02*
X5124944Y-5654460D01*
X5124944Y-5654460D02*
X5105896Y-5663984D01*
X5105896Y-5663984D02*
X5067801Y-5663984D01*
X5067801Y-5663984D02*
X5048753Y-5654460D01*
X5229705Y-5644936D02*
X5239229Y-5654460D01*
X5239229Y-5654460D02*
X5229705Y-5663984D01*
X5229705Y-5663984D02*
X5220182Y-5654460D01*
X5220182Y-5654460D02*
X5229705Y-5644936D01*
X5229705Y-5644936D02*
X5229705Y-5663984D01*
X5229705Y-5540174D02*
X5239229Y-5549698D01*
X5239229Y-5549698D02*
X5229705Y-5559222D01*
X5229705Y-5559222D02*
X5220182Y-5549698D01*
X5220182Y-5549698D02*
X5229705Y-5540174D01*
X5229705Y-5540174D02*
X5229705Y-5559222D01*
D12*
X3567500Y-5977500D02*
X3597500Y-6007500D01*
X3597500Y-5977500D02*
X3567500Y-6007500D01*
D11*
X3896372Y-5883984D02*
X3915420Y-5883984D01*
X3915420Y-5883984D02*
X3934467Y-5893508D01*
X3934467Y-5893508D02*
X3943991Y-5903031D01*
X3943991Y-5903031D02*
X3953515Y-5922079D01*
X3953515Y-5922079D02*
X3963039Y-5960174D01*
X3963039Y-5960174D02*
X3963039Y-6007793D01*
X3963039Y-6007793D02*
X3953515Y-6045888D01*
X3953515Y-6045888D02*
X3943991Y-6064936D01*
X3943991Y-6064936D02*
X3934467Y-6074460D01*
X3934467Y-6074460D02*
X3915420Y-6083984D01*
X3915420Y-6083984D02*
X3896372Y-6083984D01*
X3896372Y-6083984D02*
X3877324Y-6074460D01*
X3877324Y-6074460D02*
X3867801Y-6064936D01*
X3867801Y-6064936D02*
X3858277Y-6045888D01*
X3858277Y-6045888D02*
X3848753Y-6007793D01*
X3848753Y-6007793D02*
X3848753Y-5960174D01*
X3848753Y-5960174D02*
X3858277Y-5922079D01*
X3858277Y-5922079D02*
X3867801Y-5903031D01*
X3867801Y-5903031D02*
X3877324Y-5893508D01*
X3877324Y-5893508D02*
X3896372Y-5883984D01*
X4048753Y-6064936D02*
X4058277Y-6074460D01*
X4058277Y-6074460D02*
X4048753Y-6083984D01*
X4048753Y-6083984D02*
X4039229Y-6074460D01*
X4039229Y-6074460D02*
X4048753Y-6064936D01*
X4048753Y-6064936D02*
X4048753Y-6083984D01*
X4124943Y-5883984D02*
X4248753Y-5883984D01*
X4248753Y-5883984D02*
X4182086Y-5960174D01*
X4182086Y-5960174D02*
X4210658Y-5960174D01*
X4210658Y-5960174D02*
X4229705Y-5969698D01*
X4229705Y-5969698D02*
X4239229Y-5979222D01*
X4239229Y-5979222D02*
X4248753Y-5998269D01*
X4248753Y-5998269D02*
X4248753Y-6045888D01*
X4248753Y-6045888D02*
X4239229Y-6064936D01*
X4239229Y-6064936D02*
X4229705Y-6074460D01*
X4229705Y-6074460D02*
X4210658Y-6083984D01*
X4210658Y-6083984D02*
X4153515Y-6083984D01*
X4153515Y-6083984D02*
X4134467Y-6074460D01*
X4134467Y-6074460D02*
X4124943Y-6064936D01*
X4372563Y-5883984D02*
X4391610Y-5883984D01*
X4391610Y-5883984D02*
X4410658Y-5893508D01*
X4410658Y-5893508D02*
X4420182Y-5903031D01*
X4420182Y-5903031D02*
X4429705Y-5922079D01*
X4429705Y-5922079D02*
X4439229Y-5960174D01*
X4439229Y-5960174D02*
X4439229Y-6007793D01*
X4439229Y-6007793D02*
X4429705Y-6045888D01*
X4429705Y-6045888D02*
X4420182Y-6064936D01*
X4420182Y-6064936D02*
X4410658Y-6074460D01*
X4410658Y-6074460D02*
X4391610Y-6083984D01*
X4391610Y-6083984D02*
X4372563Y-6083984D01*
X4372563Y-6083984D02*
X4353515Y-6074460D01*
X4353515Y-6074460D02*
X4343991Y-6064936D01*
X4343991Y-6064936D02*
X4334467Y-6045888D01*
X4334467Y-6045888D02*
X4324944Y-6007793D01*
X4324944Y-6007793D02*
X4324944Y-5960174D01*
X4324944Y-5960174D02*
X4334467Y-5922079D01*
X4334467Y-5922079D02*
X4343991Y-5903031D01*
X4343991Y-5903031D02*
X4353515Y-5893508D01*
X4353515Y-5893508D02*
X4372563Y-5883984D01*
X4563039Y-5883984D02*
X4582086Y-5883984D01*
X4582086Y-5883984D02*
X4601134Y-5893508D01*
X4601134Y-5893508D02*
X4610658Y-5903031D01*
X4610658Y-5903031D02*
X4620182Y-5922079D01*
X4620182Y-5922079D02*
X4629705Y-5960174D01*
X4629705Y-5960174D02*
X4629705Y-6007793D01*
X4629705Y-6007793D02*
X4620182Y-6045888D01*
X4620182Y-6045888D02*
X4610658Y-6064936D01*
X4610658Y-6064936D02*
X4601134Y-6074460D01*
X4601134Y-6074460D02*
X4582086Y-6083984D01*
X4582086Y-6083984D02*
X4563039Y-6083984D01*
X4563039Y-6083984D02*
X4543991Y-6074460D01*
X4543991Y-6074460D02*
X4534467Y-6064936D01*
X4534467Y-6064936D02*
X4524944Y-6045888D01*
X4524944Y-6045888D02*
X4515420Y-6007793D01*
X4515420Y-6007793D02*
X4515420Y-5960174D01*
X4515420Y-5960174D02*
X4524944Y-5922079D01*
X4524944Y-5922079D02*
X4534467Y-5903031D01*
X4534467Y-5903031D02*
X4543991Y-5893508D01*
X4543991Y-5893508D02*
X4563039Y-5883984D01*
X4715420Y-6083984D02*
X4715420Y-5950650D01*
X4715420Y-5969698D02*
X4724944Y-5960174D01*
X4724944Y-5960174D02*
X4743991Y-5950650D01*
X4743991Y-5950650D02*
X4772563Y-5950650D01*
X4772563Y-5950650D02*
X4791610Y-5960174D01*
X4791610Y-5960174D02*
X4801134Y-5979222D01*
X4801134Y-5979222D02*
X4801134Y-6083984D01*
X4801134Y-5979222D02*
X4810658Y-5960174D01*
X4810658Y-5960174D02*
X4829705Y-5950650D01*
X4829705Y-5950650D02*
X4858277Y-5950650D01*
X4858277Y-5950650D02*
X4877325Y-5960174D01*
X4877325Y-5960174D02*
X4886848Y-5979222D01*
X4886848Y-5979222D02*
X4886848Y-6083984D01*
X4982086Y-6083984D02*
X4982086Y-5950650D01*
X4982086Y-5969698D02*
X4991610Y-5960174D01*
X4991610Y-5960174D02*
X5010658Y-5950650D01*
X5010658Y-5950650D02*
X5039229Y-5950650D01*
X5039229Y-5950650D02*
X5058277Y-5960174D01*
X5058277Y-5960174D02*
X5067801Y-5979222D01*
X5067801Y-5979222D02*
X5067801Y-6083984D01*
X5067801Y-5979222D02*
X5077325Y-5960174D01*
X5077325Y-5960174D02*
X5096372Y-5950650D01*
X5096372Y-5950650D02*
X5124944Y-5950650D01*
X5124944Y-5950650D02*
X5143991Y-5960174D01*
X5143991Y-5960174D02*
X5153515Y-5979222D01*
X5153515Y-5979222D02*
X5153515Y-6083984D01*
X5543991Y-5874460D02*
X5372563Y-6131603D01*
X5801134Y-5883984D02*
X5820182Y-5883984D01*
X5820182Y-5883984D02*
X5839229Y-5893508D01*
X5839229Y-5893508D02*
X5848753Y-5903031D01*
X5848753Y-5903031D02*
X5858277Y-5922079D01*
X5858277Y-5922079D02*
X5867801Y-5960174D01*
X5867801Y-5960174D02*
X5867801Y-6007793D01*
X5867801Y-6007793D02*
X5858277Y-6045888D01*
X5858277Y-6045888D02*
X5848753Y-6064936D01*
X5848753Y-6064936D02*
X5839229Y-6074460D01*
X5839229Y-6074460D02*
X5820182Y-6083984D01*
X5820182Y-6083984D02*
X5801134Y-6083984D01*
X5801134Y-6083984D02*
X5782086Y-6074460D01*
X5782086Y-6074460D02*
X5772563Y-6064936D01*
X5772563Y-6064936D02*
X5763039Y-6045888D01*
X5763039Y-6045888D02*
X5753515Y-6007793D01*
X5753515Y-6007793D02*
X5753515Y-5960174D01*
X5753515Y-5960174D02*
X5763039Y-5922079D01*
X5763039Y-5922079D02*
X5772563Y-5903031D01*
X5772563Y-5903031D02*
X5782086Y-5893508D01*
X5782086Y-5893508D02*
X5801134Y-5883984D01*
X5953515Y-6064936D02*
X5963039Y-6074460D01*
X5963039Y-6074460D02*
X5953515Y-6083984D01*
X5953515Y-6083984D02*
X5943991Y-6074460D01*
X5943991Y-6074460D02*
X5953515Y-6064936D01*
X5953515Y-6064936D02*
X5953515Y-6083984D01*
X6086848Y-5883984D02*
X6105896Y-5883984D01*
X6105896Y-5883984D02*
X6124944Y-5893508D01*
X6124944Y-5893508D02*
X6134467Y-5903031D01*
X6134467Y-5903031D02*
X6143991Y-5922079D01*
X6143991Y-5922079D02*
X6153515Y-5960174D01*
X6153515Y-5960174D02*
X6153515Y-6007793D01*
X6153515Y-6007793D02*
X6143991Y-6045888D01*
X6143991Y-6045888D02*
X6134467Y-6064936D01*
X6134467Y-6064936D02*
X6124944Y-6074460D01*
X6124944Y-6074460D02*
X6105896Y-6083984D01*
X6105896Y-6083984D02*
X6086848Y-6083984D01*
X6086848Y-6083984D02*
X6067801Y-6074460D01*
X6067801Y-6074460D02*
X6058277Y-6064936D01*
X6058277Y-6064936D02*
X6048753Y-6045888D01*
X6048753Y-6045888D02*
X6039229Y-6007793D01*
X6039229Y-6007793D02*
X6039229Y-5960174D01*
X6039229Y-5960174D02*
X6048753Y-5922079D01*
X6048753Y-5922079D02*
X6058277Y-5903031D01*
X6058277Y-5903031D02*
X6067801Y-5893508D01*
X6067801Y-5893508D02*
X6086848Y-5883984D01*
X6343991Y-6083984D02*
X6229706Y-6083984D01*
X6286848Y-6083984D02*
X6286848Y-5883984D01*
X6286848Y-5883984D02*
X6267801Y-5912555D01*
X6267801Y-5912555D02*
X6248753Y-5931603D01*
X6248753Y-5931603D02*
X6229706Y-5941127D01*
X6534467Y-6083984D02*
X6420182Y-6083984D01*
X6477325Y-6083984D02*
X6477325Y-5883984D01*
X6477325Y-5883984D02*
X6458277Y-5912555D01*
X6458277Y-5912555D02*
X6439229Y-5931603D01*
X6439229Y-5931603D02*
X6420182Y-5941127D01*
X6648753Y-5969698D02*
X6629706Y-5960174D01*
X6629706Y-5960174D02*
X6620182Y-5950650D01*
X6620182Y-5950650D02*
X6610658Y-5931603D01*
X6610658Y-5931603D02*
X6610658Y-5922079D01*
X6610658Y-5922079D02*
X6620182Y-5903031D01*
X6620182Y-5903031D02*
X6629706Y-5893508D01*
X6629706Y-5893508D02*
X6648753Y-5883984D01*
X6648753Y-5883984D02*
X6686848Y-5883984D01*
X6686848Y-5883984D02*
X6705896Y-5893508D01*
X6705896Y-5893508D02*
X6715420Y-5903031D01*
X6715420Y-5903031D02*
X6724944Y-5922079D01*
X6724944Y-5922079D02*
X6724944Y-5931603D01*
X6724944Y-5931603D02*
X6715420Y-5950650D01*
X6715420Y-5950650D02*
X6705896Y-5960174D01*
X6705896Y-5960174D02*
X6686848Y-5969698D01*
X6686848Y-5969698D02*
X6648753Y-5969698D01*
X6648753Y-5969698D02*
X6629706Y-5979222D01*
X6629706Y-5979222D02*
X6620182Y-5988746D01*
X6620182Y-5988746D02*
X6610658Y-6007793D01*
X6610658Y-6007793D02*
X6610658Y-6045888D01*
X6610658Y-6045888D02*
X6620182Y-6064936D01*
X6620182Y-6064936D02*
X6629706Y-6074460D01*
X6629706Y-6074460D02*
X6648753Y-6083984D01*
X6648753Y-6083984D02*
X6686848Y-6083984D01*
X6686848Y-6083984D02*
X6705896Y-6074460D01*
X6705896Y-6074460D02*
X6715420Y-6064936D01*
X6715420Y-6064936D02*
X6724944Y-6045888D01*
X6724944Y-6045888D02*
X6724944Y-6007793D01*
X6724944Y-6007793D02*
X6715420Y-5988746D01*
X6715420Y-5988746D02*
X6705896Y-5979222D01*
X6705896Y-5979222D02*
X6686848Y-5969698D01*
X6801134Y-5883984D02*
X6801134Y-5922079D01*
X6877325Y-5883984D02*
X6877325Y-5922079D01*
X7172563Y-6160174D02*
X7163039Y-6150650D01*
X7163039Y-6150650D02*
X7143991Y-6122079D01*
X7143991Y-6122079D02*
X7134468Y-6103031D01*
X7134468Y-6103031D02*
X7124944Y-6074460D01*
X7124944Y-6074460D02*
X7115420Y-6026841D01*
X7115420Y-6026841D02*
X7115420Y-5988746D01*
X7115420Y-5988746D02*
X7124944Y-5941127D01*
X7124944Y-5941127D02*
X7134468Y-5912555D01*
X7134468Y-5912555D02*
X7143991Y-5893508D01*
X7143991Y-5893508D02*
X7163039Y-5864936D01*
X7163039Y-5864936D02*
X7172563Y-5855412D01*
X7334468Y-5883984D02*
X7296372Y-5883984D01*
X7296372Y-5883984D02*
X7277325Y-5893508D01*
X7277325Y-5893508D02*
X7267801Y-5903031D01*
X7267801Y-5903031D02*
X7248753Y-5931603D01*
X7248753Y-5931603D02*
X7239229Y-5969698D01*
X7239229Y-5969698D02*
X7239229Y-6045888D01*
X7239229Y-6045888D02*
X7248753Y-6064936D01*
X7248753Y-6064936D02*
X7258277Y-6074460D01*
X7258277Y-6074460D02*
X7277325Y-6083984D01*
X7277325Y-6083984D02*
X7315420Y-6083984D01*
X7315420Y-6083984D02*
X7334468Y-6074460D01*
X7334468Y-6074460D02*
X7343991Y-6064936D01*
X7343991Y-6064936D02*
X7353515Y-6045888D01*
X7353515Y-6045888D02*
X7353515Y-5998269D01*
X7353515Y-5998269D02*
X7343991Y-5979222D01*
X7343991Y-5979222D02*
X7334468Y-5969698D01*
X7334468Y-5969698D02*
X7315420Y-5960174D01*
X7315420Y-5960174D02*
X7277325Y-5960174D01*
X7277325Y-5960174D02*
X7258277Y-5969698D01*
X7258277Y-5969698D02*
X7248753Y-5979222D01*
X7248753Y-5979222D02*
X7239229Y-5998269D01*
X7591610Y-6083984D02*
X7591610Y-5883984D01*
X7677325Y-6083984D02*
X7677325Y-5979222D01*
X7677325Y-5979222D02*
X7667801Y-5960174D01*
X7667801Y-5960174D02*
X7648753Y-5950650D01*
X7648753Y-5950650D02*
X7620182Y-5950650D01*
X7620182Y-5950650D02*
X7601134Y-5960174D01*
X7601134Y-5960174D02*
X7591610Y-5969698D01*
X7801134Y-6083984D02*
X7782087Y-6074460D01*
X7782087Y-6074460D02*
X7772563Y-6064936D01*
X7772563Y-6064936D02*
X7763039Y-6045888D01*
X7763039Y-6045888D02*
X7763039Y-5988746D01*
X7763039Y-5988746D02*
X7772563Y-5969698D01*
X7772563Y-5969698D02*
X7782087Y-5960174D01*
X7782087Y-5960174D02*
X7801134Y-5950650D01*
X7801134Y-5950650D02*
X7829706Y-5950650D01*
X7829706Y-5950650D02*
X7848753Y-5960174D01*
X7848753Y-5960174D02*
X7858277Y-5969698D01*
X7858277Y-5969698D02*
X7867801Y-5988746D01*
X7867801Y-5988746D02*
X7867801Y-6045888D01*
X7867801Y-6045888D02*
X7858277Y-6064936D01*
X7858277Y-6064936D02*
X7848753Y-6074460D01*
X7848753Y-6074460D02*
X7829706Y-6083984D01*
X7829706Y-6083984D02*
X7801134Y-6083984D01*
X7982087Y-6083984D02*
X7963039Y-6074460D01*
X7963039Y-6074460D02*
X7953515Y-6055412D01*
X7953515Y-6055412D02*
X7953515Y-5883984D01*
X8134468Y-6074460D02*
X8115420Y-6083984D01*
X8115420Y-6083984D02*
X8077325Y-6083984D01*
X8077325Y-6083984D02*
X8058277Y-6074460D01*
X8058277Y-6074460D02*
X8048753Y-6055412D01*
X8048753Y-6055412D02*
X8048753Y-5979222D01*
X8048753Y-5979222D02*
X8058277Y-5960174D01*
X8058277Y-5960174D02*
X8077325Y-5950650D01*
X8077325Y-5950650D02*
X8115420Y-5950650D01*
X8115420Y-5950650D02*
X8134468Y-5960174D01*
X8134468Y-5960174D02*
X8143991Y-5979222D01*
X8143991Y-5979222D02*
X8143991Y-5998269D01*
X8143991Y-5998269D02*
X8048753Y-6017317D01*
X8220182Y-6074460D02*
X8239230Y-6083984D01*
X8239230Y-6083984D02*
X8277325Y-6083984D01*
X8277325Y-6083984D02*
X8296372Y-6074460D01*
X8296372Y-6074460D02*
X8305896Y-6055412D01*
X8305896Y-6055412D02*
X8305896Y-6045888D01*
X8305896Y-6045888D02*
X8296372Y-6026841D01*
X8296372Y-6026841D02*
X8277325Y-6017317D01*
X8277325Y-6017317D02*
X8248753Y-6017317D01*
X8248753Y-6017317D02*
X8229706Y-6007793D01*
X8229706Y-6007793D02*
X8220182Y-5988746D01*
X8220182Y-5988746D02*
X8220182Y-5979222D01*
X8220182Y-5979222D02*
X8229706Y-5960174D01*
X8229706Y-5960174D02*
X8248753Y-5950650D01*
X8248753Y-5950650D02*
X8277325Y-5950650D01*
X8277325Y-5950650D02*
X8296372Y-5960174D01*
X8372563Y-6160174D02*
X8382087Y-6150650D01*
X8382087Y-6150650D02*
X8401134Y-6122079D01*
X8401134Y-6122079D02*
X8410658Y-6103031D01*
X8410658Y-6103031D02*
X8420182Y-6074460D01*
X8420182Y-6074460D02*
X8429706Y-6026841D01*
X8429706Y-6026841D02*
X8429706Y-5988746D01*
X8429706Y-5988746D02*
X8420182Y-5941127D01*
X8420182Y-5941127D02*
X8410658Y-5912555D01*
X8410658Y-5912555D02*
X8401134Y-5893508D01*
X8401134Y-5893508D02*
X8382087Y-5864936D01*
X8382087Y-5864936D02*
X8372563Y-5855412D01*
D12*
X3597500Y-6256500D02*
G75*
G02*
X3537500Y-6256500I-30000J0D01*
G01*
X3537500Y-6256500D02*
G75*
G02*
X3597500Y-6256500I30000J0D01*
G01*
D11*
X3896372Y-6147984D02*
X3915420Y-6147984D01*
X3915420Y-6147984D02*
X3934467Y-6157508D01*
X3934467Y-6157508D02*
X3943991Y-6167031D01*
X3943991Y-6167031D02*
X3953515Y-6186079D01*
X3953515Y-6186079D02*
X3963039Y-6224174D01*
X3963039Y-6224174D02*
X3963039Y-6271793D01*
X3963039Y-6271793D02*
X3953515Y-6309888D01*
X3953515Y-6309888D02*
X3943991Y-6328936D01*
X3943991Y-6328936D02*
X3934467Y-6338460D01*
X3934467Y-6338460D02*
X3915420Y-6347984D01*
X3915420Y-6347984D02*
X3896372Y-6347984D01*
X3896372Y-6347984D02*
X3877324Y-6338460D01*
X3877324Y-6338460D02*
X3867801Y-6328936D01*
X3867801Y-6328936D02*
X3858277Y-6309888D01*
X3858277Y-6309888D02*
X3848753Y-6271793D01*
X3848753Y-6271793D02*
X3848753Y-6224174D01*
X3848753Y-6224174D02*
X3858277Y-6186079D01*
X3858277Y-6186079D02*
X3867801Y-6167031D01*
X3867801Y-6167031D02*
X3877324Y-6157508D01*
X3877324Y-6157508D02*
X3896372Y-6147984D01*
X4048753Y-6328936D02*
X4058277Y-6338460D01*
X4058277Y-6338460D02*
X4048753Y-6347984D01*
X4048753Y-6347984D02*
X4039229Y-6338460D01*
X4039229Y-6338460D02*
X4048753Y-6328936D01*
X4048753Y-6328936D02*
X4048753Y-6347984D01*
X4229705Y-6147984D02*
X4191610Y-6147984D01*
X4191610Y-6147984D02*
X4172562Y-6157508D01*
X4172562Y-6157508D02*
X4163039Y-6167031D01*
X4163039Y-6167031D02*
X4143991Y-6195603D01*
X4143991Y-6195603D02*
X4134467Y-6233698D01*
X4134467Y-6233698D02*
X4134467Y-6309888D01*
X4134467Y-6309888D02*
X4143991Y-6328936D01*
X4143991Y-6328936D02*
X4153515Y-6338460D01*
X4153515Y-6338460D02*
X4172562Y-6347984D01*
X4172562Y-6347984D02*
X4210658Y-6347984D01*
X4210658Y-6347984D02*
X4229705Y-6338460D01*
X4229705Y-6338460D02*
X4239229Y-6328936D01*
X4239229Y-6328936D02*
X4248753Y-6309888D01*
X4248753Y-6309888D02*
X4248753Y-6262269D01*
X4248753Y-6262269D02*
X4239229Y-6243222D01*
X4239229Y-6243222D02*
X4229705Y-6233698D01*
X4229705Y-6233698D02*
X4210658Y-6224174D01*
X4210658Y-6224174D02*
X4172562Y-6224174D01*
X4172562Y-6224174D02*
X4153515Y-6233698D01*
X4153515Y-6233698D02*
X4143991Y-6243222D01*
X4143991Y-6243222D02*
X4134467Y-6262269D01*
X4372563Y-6147984D02*
X4391610Y-6147984D01*
X4391610Y-6147984D02*
X4410658Y-6157508D01*
X4410658Y-6157508D02*
X4420182Y-6167031D01*
X4420182Y-6167031D02*
X4429705Y-6186079D01*
X4429705Y-6186079D02*
X4439229Y-6224174D01*
X4439229Y-6224174D02*
X4439229Y-6271793D01*
X4439229Y-6271793D02*
X4429705Y-6309888D01*
X4429705Y-6309888D02*
X4420182Y-6328936D01*
X4420182Y-6328936D02*
X4410658Y-6338460D01*
X4410658Y-6338460D02*
X4391610Y-6347984D01*
X4391610Y-6347984D02*
X4372563Y-6347984D01*
X4372563Y-6347984D02*
X4353515Y-6338460D01*
X4353515Y-6338460D02*
X4343991Y-6328936D01*
X4343991Y-6328936D02*
X4334467Y-6309888D01*
X4334467Y-6309888D02*
X4324944Y-6271793D01*
X4324944Y-6271793D02*
X4324944Y-6224174D01*
X4324944Y-6224174D02*
X4334467Y-6186079D01*
X4334467Y-6186079D02*
X4343991Y-6167031D01*
X4343991Y-6167031D02*
X4353515Y-6157508D01*
X4353515Y-6157508D02*
X4372563Y-6147984D01*
X4563039Y-6147984D02*
X4582086Y-6147984D01*
X4582086Y-6147984D02*
X4601134Y-6157508D01*
X4601134Y-6157508D02*
X4610658Y-6167031D01*
X4610658Y-6167031D02*
X4620182Y-6186079D01*
X4620182Y-6186079D02*
X4629705Y-6224174D01*
X4629705Y-6224174D02*
X4629705Y-6271793D01*
X4629705Y-6271793D02*
X4620182Y-6309888D01*
X4620182Y-6309888D02*
X4610658Y-6328936D01*
X4610658Y-6328936D02*
X4601134Y-6338460D01*
X4601134Y-6338460D02*
X4582086Y-6347984D01*
X4582086Y-6347984D02*
X4563039Y-6347984D01*
X4563039Y-6347984D02*
X4543991Y-6338460D01*
X4543991Y-6338460D02*
X4534467Y-6328936D01*
X4534467Y-6328936D02*
X4524944Y-6309888D01*
X4524944Y-6309888D02*
X4515420Y-6271793D01*
X4515420Y-6271793D02*
X4515420Y-6224174D01*
X4515420Y-6224174D02*
X4524944Y-6186079D01*
X4524944Y-6186079D02*
X4534467Y-6167031D01*
X4534467Y-6167031D02*
X4543991Y-6157508D01*
X4543991Y-6157508D02*
X4563039Y-6147984D01*
X4715420Y-6347984D02*
X4715420Y-6214650D01*
X4715420Y-6233698D02*
X4724944Y-6224174D01*
X4724944Y-6224174D02*
X4743991Y-6214650D01*
X4743991Y-6214650D02*
X4772563Y-6214650D01*
X4772563Y-6214650D02*
X4791610Y-6224174D01*
X4791610Y-6224174D02*
X4801134Y-6243222D01*
X4801134Y-6243222D02*
X4801134Y-6347984D01*
X4801134Y-6243222D02*
X4810658Y-6224174D01*
X4810658Y-6224174D02*
X4829705Y-6214650D01*
X4829705Y-6214650D02*
X4858277Y-6214650D01*
X4858277Y-6214650D02*
X4877325Y-6224174D01*
X4877325Y-6224174D02*
X4886848Y-6243222D01*
X4886848Y-6243222D02*
X4886848Y-6347984D01*
X4982086Y-6347984D02*
X4982086Y-6214650D01*
X4982086Y-6233698D02*
X4991610Y-6224174D01*
X4991610Y-6224174D02*
X5010658Y-6214650D01*
X5010658Y-6214650D02*
X5039229Y-6214650D01*
X5039229Y-6214650D02*
X5058277Y-6224174D01*
X5058277Y-6224174D02*
X5067801Y-6243222D01*
X5067801Y-6243222D02*
X5067801Y-6347984D01*
X5067801Y-6243222D02*
X5077325Y-6224174D01*
X5077325Y-6224174D02*
X5096372Y-6214650D01*
X5096372Y-6214650D02*
X5124944Y-6214650D01*
X5124944Y-6214650D02*
X5143991Y-6224174D01*
X5143991Y-6224174D02*
X5153515Y-6243222D01*
X5153515Y-6243222D02*
X5153515Y-6347984D01*
X5543991Y-6138460D02*
X5372563Y-6395603D01*
X5801134Y-6147984D02*
X5820182Y-6147984D01*
X5820182Y-6147984D02*
X5839229Y-6157508D01*
X5839229Y-6157508D02*
X5848753Y-6167031D01*
X5848753Y-6167031D02*
X5858277Y-6186079D01*
X5858277Y-6186079D02*
X5867801Y-6224174D01*
X5867801Y-6224174D02*
X5867801Y-6271793D01*
X5867801Y-6271793D02*
X5858277Y-6309888D01*
X5858277Y-6309888D02*
X5848753Y-6328936D01*
X5848753Y-6328936D02*
X5839229Y-6338460D01*
X5839229Y-6338460D02*
X5820182Y-6347984D01*
X5820182Y-6347984D02*
X5801134Y-6347984D01*
X5801134Y-6347984D02*
X5782086Y-6338460D01*
X5782086Y-6338460D02*
X5772563Y-6328936D01*
X5772563Y-6328936D02*
X5763039Y-6309888D01*
X5763039Y-6309888D02*
X5753515Y-6271793D01*
X5753515Y-6271793D02*
X5753515Y-6224174D01*
X5753515Y-6224174D02*
X5763039Y-6186079D01*
X5763039Y-6186079D02*
X5772563Y-6167031D01*
X5772563Y-6167031D02*
X5782086Y-6157508D01*
X5782086Y-6157508D02*
X5801134Y-6147984D01*
X5953515Y-6328936D02*
X5963039Y-6338460D01*
X5963039Y-6338460D02*
X5953515Y-6347984D01*
X5953515Y-6347984D02*
X5943991Y-6338460D01*
X5943991Y-6338460D02*
X5953515Y-6328936D01*
X5953515Y-6328936D02*
X5953515Y-6347984D01*
X6086848Y-6147984D02*
X6105896Y-6147984D01*
X6105896Y-6147984D02*
X6124944Y-6157508D01*
X6124944Y-6157508D02*
X6134467Y-6167031D01*
X6134467Y-6167031D02*
X6143991Y-6186079D01*
X6143991Y-6186079D02*
X6153515Y-6224174D01*
X6153515Y-6224174D02*
X6153515Y-6271793D01*
X6153515Y-6271793D02*
X6143991Y-6309888D01*
X6143991Y-6309888D02*
X6134467Y-6328936D01*
X6134467Y-6328936D02*
X6124944Y-6338460D01*
X6124944Y-6338460D02*
X6105896Y-6347984D01*
X6105896Y-6347984D02*
X6086848Y-6347984D01*
X6086848Y-6347984D02*
X6067801Y-6338460D01*
X6067801Y-6338460D02*
X6058277Y-6328936D01*
X6058277Y-6328936D02*
X6048753Y-6309888D01*
X6048753Y-6309888D02*
X6039229Y-6271793D01*
X6039229Y-6271793D02*
X6039229Y-6224174D01*
X6039229Y-6224174D02*
X6048753Y-6186079D01*
X6048753Y-6186079D02*
X6058277Y-6167031D01*
X6058277Y-6167031D02*
X6067801Y-6157508D01*
X6067801Y-6157508D02*
X6086848Y-6147984D01*
X6229706Y-6167031D02*
X6239229Y-6157508D01*
X6239229Y-6157508D02*
X6258277Y-6147984D01*
X6258277Y-6147984D02*
X6305896Y-6147984D01*
X6305896Y-6147984D02*
X6324944Y-6157508D01*
X6324944Y-6157508D02*
X6334467Y-6167031D01*
X6334467Y-6167031D02*
X6343991Y-6186079D01*
X6343991Y-6186079D02*
X6343991Y-6205127D01*
X6343991Y-6205127D02*
X6334467Y-6233698D01*
X6334467Y-6233698D02*
X6220182Y-6347984D01*
X6220182Y-6347984D02*
X6343991Y-6347984D01*
X6410658Y-6147984D02*
X6534467Y-6147984D01*
X6534467Y-6147984D02*
X6467801Y-6224174D01*
X6467801Y-6224174D02*
X6496372Y-6224174D01*
X6496372Y-6224174D02*
X6515420Y-6233698D01*
X6515420Y-6233698D02*
X6524944Y-6243222D01*
X6524944Y-6243222D02*
X6534467Y-6262269D01*
X6534467Y-6262269D02*
X6534467Y-6309888D01*
X6534467Y-6309888D02*
X6524944Y-6328936D01*
X6524944Y-6328936D02*
X6515420Y-6338460D01*
X6515420Y-6338460D02*
X6496372Y-6347984D01*
X6496372Y-6347984D02*
X6439229Y-6347984D01*
X6439229Y-6347984D02*
X6420182Y-6338460D01*
X6420182Y-6338460D02*
X6410658Y-6328936D01*
X6705896Y-6147984D02*
X6667801Y-6147984D01*
X6667801Y-6147984D02*
X6648753Y-6157508D01*
X6648753Y-6157508D02*
X6639229Y-6167031D01*
X6639229Y-6167031D02*
X6620182Y-6195603D01*
X6620182Y-6195603D02*
X6610658Y-6233698D01*
X6610658Y-6233698D02*
X6610658Y-6309888D01*
X6610658Y-6309888D02*
X6620182Y-6328936D01*
X6620182Y-6328936D02*
X6629706Y-6338460D01*
X6629706Y-6338460D02*
X6648753Y-6347984D01*
X6648753Y-6347984D02*
X6686848Y-6347984D01*
X6686848Y-6347984D02*
X6705896Y-6338460D01*
X6705896Y-6338460D02*
X6715420Y-6328936D01*
X6715420Y-6328936D02*
X6724944Y-6309888D01*
X6724944Y-6309888D02*
X6724944Y-6262269D01*
X6724944Y-6262269D02*
X6715420Y-6243222D01*
X6715420Y-6243222D02*
X6705896Y-6233698D01*
X6705896Y-6233698D02*
X6686848Y-6224174D01*
X6686848Y-6224174D02*
X6648753Y-6224174D01*
X6648753Y-6224174D02*
X6629706Y-6233698D01*
X6629706Y-6233698D02*
X6620182Y-6243222D01*
X6620182Y-6243222D02*
X6610658Y-6262269D01*
X6801134Y-6147984D02*
X6801134Y-6186079D01*
X6877325Y-6147984D02*
X6877325Y-6186079D01*
X7172563Y-6424174D02*
X7163039Y-6414650D01*
X7163039Y-6414650D02*
X7143991Y-6386079D01*
X7143991Y-6386079D02*
X7134468Y-6367031D01*
X7134468Y-6367031D02*
X7124944Y-6338460D01*
X7124944Y-6338460D02*
X7115420Y-6290841D01*
X7115420Y-6290841D02*
X7115420Y-6252746D01*
X7115420Y-6252746D02*
X7124944Y-6205127D01*
X7124944Y-6205127D02*
X7134468Y-6176555D01*
X7134468Y-6176555D02*
X7143991Y-6157508D01*
X7143991Y-6157508D02*
X7163039Y-6128936D01*
X7163039Y-6128936D02*
X7172563Y-6119412D01*
X7286848Y-6147984D02*
X7305896Y-6147984D01*
X7305896Y-6147984D02*
X7324944Y-6157508D01*
X7324944Y-6157508D02*
X7334468Y-6167031D01*
X7334468Y-6167031D02*
X7343991Y-6186079D01*
X7343991Y-6186079D02*
X7353515Y-6224174D01*
X7353515Y-6224174D02*
X7353515Y-6271793D01*
X7353515Y-6271793D02*
X7343991Y-6309888D01*
X7343991Y-6309888D02*
X7334468Y-6328936D01*
X7334468Y-6328936D02*
X7324944Y-6338460D01*
X7324944Y-6338460D02*
X7305896Y-6347984D01*
X7305896Y-6347984D02*
X7286848Y-6347984D01*
X7286848Y-6347984D02*
X7267801Y-6338460D01*
X7267801Y-6338460D02*
X7258277Y-6328936D01*
X7258277Y-6328936D02*
X7248753Y-6309888D01*
X7248753Y-6309888D02*
X7239229Y-6271793D01*
X7239229Y-6271793D02*
X7239229Y-6224174D01*
X7239229Y-6224174D02*
X7248753Y-6186079D01*
X7248753Y-6186079D02*
X7258277Y-6167031D01*
X7258277Y-6167031D02*
X7267801Y-6157508D01*
X7267801Y-6157508D02*
X7286848Y-6147984D01*
X7591610Y-6347984D02*
X7591610Y-6147984D01*
X7677325Y-6347984D02*
X7677325Y-6243222D01*
X7677325Y-6243222D02*
X7667801Y-6224174D01*
X7667801Y-6224174D02*
X7648753Y-6214650D01*
X7648753Y-6214650D02*
X7620182Y-6214650D01*
X7620182Y-6214650D02*
X7601134Y-6224174D01*
X7601134Y-6224174D02*
X7591610Y-6233698D01*
X7801134Y-6347984D02*
X7782087Y-6338460D01*
X7782087Y-6338460D02*
X7772563Y-6328936D01*
X7772563Y-6328936D02*
X7763039Y-6309888D01*
X7763039Y-6309888D02*
X7763039Y-6252746D01*
X7763039Y-6252746D02*
X7772563Y-6233698D01*
X7772563Y-6233698D02*
X7782087Y-6224174D01*
X7782087Y-6224174D02*
X7801134Y-6214650D01*
X7801134Y-6214650D02*
X7829706Y-6214650D01*
X7829706Y-6214650D02*
X7848753Y-6224174D01*
X7848753Y-6224174D02*
X7858277Y-6233698D01*
X7858277Y-6233698D02*
X7867801Y-6252746D01*
X7867801Y-6252746D02*
X7867801Y-6309888D01*
X7867801Y-6309888D02*
X7858277Y-6328936D01*
X7858277Y-6328936D02*
X7848753Y-6338460D01*
X7848753Y-6338460D02*
X7829706Y-6347984D01*
X7829706Y-6347984D02*
X7801134Y-6347984D01*
X7982087Y-6347984D02*
X7963039Y-6338460D01*
X7963039Y-6338460D02*
X7953515Y-6319412D01*
X7953515Y-6319412D02*
X7953515Y-6147984D01*
X8134468Y-6338460D02*
X8115420Y-6347984D01*
X8115420Y-6347984D02*
X8077325Y-6347984D01*
X8077325Y-6347984D02*
X8058277Y-6338460D01*
X8058277Y-6338460D02*
X8048753Y-6319412D01*
X8048753Y-6319412D02*
X8048753Y-6243222D01*
X8048753Y-6243222D02*
X8058277Y-6224174D01*
X8058277Y-6224174D02*
X8077325Y-6214650D01*
X8077325Y-6214650D02*
X8115420Y-6214650D01*
X8115420Y-6214650D02*
X8134468Y-6224174D01*
X8134468Y-6224174D02*
X8143991Y-6243222D01*
X8143991Y-6243222D02*
X8143991Y-6262269D01*
X8143991Y-6262269D02*
X8048753Y-6281317D01*
X8220182Y-6338460D02*
X8239230Y-6347984D01*
X8239230Y-6347984D02*
X8277325Y-6347984D01*
X8277325Y-6347984D02*
X8296372Y-6338460D01*
X8296372Y-6338460D02*
X8305896Y-6319412D01*
X8305896Y-6319412D02*
X8305896Y-6309888D01*
X8305896Y-6309888D02*
X8296372Y-6290841D01*
X8296372Y-6290841D02*
X8277325Y-6281317D01*
X8277325Y-6281317D02*
X8248753Y-6281317D01*
X8248753Y-6281317D02*
X8229706Y-6271793D01*
X8229706Y-6271793D02*
X8220182Y-6252746D01*
X8220182Y-6252746D02*
X8220182Y-6243222D01*
X8220182Y-6243222D02*
X8229706Y-6224174D01*
X8229706Y-6224174D02*
X8248753Y-6214650D01*
X8248753Y-6214650D02*
X8277325Y-6214650D01*
X8277325Y-6214650D02*
X8296372Y-6224174D01*
X8543992Y-6271793D02*
X8696373Y-6271793D01*
X8620182Y-6347984D02*
X8620182Y-6195603D01*
X9029706Y-6214650D02*
X9029706Y-6347984D01*
X8982087Y-6138460D02*
X8934468Y-6281317D01*
X8934468Y-6281317D02*
X9058277Y-6281317D01*
X9277325Y-6338460D02*
X9296373Y-6347984D01*
X9296373Y-6347984D02*
X9334468Y-6347984D01*
X9334468Y-6347984D02*
X9353516Y-6338460D01*
X9353516Y-6338460D02*
X9363039Y-6319412D01*
X9363039Y-6319412D02*
X9363039Y-6309888D01*
X9363039Y-6309888D02*
X9353516Y-6290841D01*
X9353516Y-6290841D02*
X9334468Y-6281317D01*
X9334468Y-6281317D02*
X9305896Y-6281317D01*
X9305896Y-6281317D02*
X9286849Y-6271793D01*
X9286849Y-6271793D02*
X9277325Y-6252746D01*
X9277325Y-6252746D02*
X9277325Y-6243222D01*
X9277325Y-6243222D02*
X9286849Y-6224174D01*
X9286849Y-6224174D02*
X9305896Y-6214650D01*
X9305896Y-6214650D02*
X9334468Y-6214650D01*
X9334468Y-6214650D02*
X9353516Y-6224174D01*
X9477325Y-6347984D02*
X9458277Y-6338460D01*
X9458277Y-6338460D02*
X9448754Y-6319412D01*
X9448754Y-6319412D02*
X9448754Y-6147984D01*
X9582087Y-6347984D02*
X9563039Y-6338460D01*
X9563039Y-6338460D02*
X9553516Y-6328936D01*
X9553516Y-6328936D02*
X9543992Y-6309888D01*
X9543992Y-6309888D02*
X9543992Y-6252746D01*
X9543992Y-6252746D02*
X9553516Y-6233698D01*
X9553516Y-6233698D02*
X9563039Y-6224174D01*
X9563039Y-6224174D02*
X9582087Y-6214650D01*
X9582087Y-6214650D02*
X9610658Y-6214650D01*
X9610658Y-6214650D02*
X9629706Y-6224174D01*
X9629706Y-6224174D02*
X9639230Y-6233698D01*
X9639230Y-6233698D02*
X9648754Y-6252746D01*
X9648754Y-6252746D02*
X9648754Y-6309888D01*
X9648754Y-6309888D02*
X9639230Y-6328936D01*
X9639230Y-6328936D02*
X9629706Y-6338460D01*
X9629706Y-6338460D02*
X9610658Y-6347984D01*
X9610658Y-6347984D02*
X9582087Y-6347984D01*
X9705897Y-6214650D02*
X9782087Y-6214650D01*
X9734468Y-6147984D02*
X9734468Y-6319412D01*
X9734468Y-6319412D02*
X9743992Y-6338460D01*
X9743992Y-6338460D02*
X9763039Y-6347984D01*
X9763039Y-6347984D02*
X9782087Y-6347984D01*
X9839230Y-6338460D02*
X9858277Y-6347984D01*
X9858277Y-6347984D02*
X9896373Y-6347984D01*
X9896373Y-6347984D02*
X9915420Y-6338460D01*
X9915420Y-6338460D02*
X9924944Y-6319412D01*
X9924944Y-6319412D02*
X9924944Y-6309888D01*
X9924944Y-6309888D02*
X9915420Y-6290841D01*
X9915420Y-6290841D02*
X9896373Y-6281317D01*
X9896373Y-6281317D02*
X9867801Y-6281317D01*
X9867801Y-6281317D02*
X9848754Y-6271793D01*
X9848754Y-6271793D02*
X9839230Y-6252746D01*
X9839230Y-6252746D02*
X9839230Y-6243222D01*
X9839230Y-6243222D02*
X9848754Y-6224174D01*
X9848754Y-6224174D02*
X9867801Y-6214650D01*
X9867801Y-6214650D02*
X9896373Y-6214650D01*
X9896373Y-6214650D02*
X9915420Y-6224174D01*
X9991611Y-6424174D02*
X10001135Y-6414650D01*
X10001135Y-6414650D02*
X10020182Y-6386079D01*
X10020182Y-6386079D02*
X10029706Y-6367031D01*
X10029706Y-6367031D02*
X10039230Y-6338460D01*
X10039230Y-6338460D02*
X10048754Y-6290841D01*
X10048754Y-6290841D02*
X10048754Y-6252746D01*
X10048754Y-6252746D02*
X10039230Y-6205127D01*
X10039230Y-6205127D02*
X10029706Y-6176555D01*
X10029706Y-6176555D02*
X10020182Y-6157508D01*
X10020182Y-6157508D02*
X10001135Y-6128936D01*
X10001135Y-6128936D02*
X9991611Y-6119412D01*
D13*
X3532500Y-6455500D02*
X3532500Y-6585500D01*
X3467500Y-6520500D02*
X3597500Y-6520500D01*
D11*
X3963039Y-6611984D02*
X3848753Y-6611984D01*
X3905896Y-6611984D02*
X3905896Y-6411984D01*
X3905896Y-6411984D02*
X3886848Y-6440555D01*
X3886848Y-6440555D02*
X3867801Y-6459603D01*
X3867801Y-6459603D02*
X3848753Y-6469127D01*
X4048753Y-6592936D02*
X4058277Y-6602460D01*
X4058277Y-6602460D02*
X4048753Y-6611984D01*
X4048753Y-6611984D02*
X4039229Y-6602460D01*
X4039229Y-6602460D02*
X4048753Y-6592936D01*
X4048753Y-6592936D02*
X4048753Y-6611984D01*
X4124943Y-6411984D02*
X4248753Y-6411984D01*
X4248753Y-6411984D02*
X4182086Y-6488174D01*
X4182086Y-6488174D02*
X4210658Y-6488174D01*
X4210658Y-6488174D02*
X4229705Y-6497698D01*
X4229705Y-6497698D02*
X4239229Y-6507222D01*
X4239229Y-6507222D02*
X4248753Y-6526269D01*
X4248753Y-6526269D02*
X4248753Y-6573888D01*
X4248753Y-6573888D02*
X4239229Y-6592936D01*
X4239229Y-6592936D02*
X4229705Y-6602460D01*
X4229705Y-6602460D02*
X4210658Y-6611984D01*
X4210658Y-6611984D02*
X4153515Y-6611984D01*
X4153515Y-6611984D02*
X4134467Y-6602460D01*
X4134467Y-6602460D02*
X4124943Y-6592936D01*
X4372563Y-6411984D02*
X4391610Y-6411984D01*
X4391610Y-6411984D02*
X4410658Y-6421508D01*
X4410658Y-6421508D02*
X4420182Y-6431031D01*
X4420182Y-6431031D02*
X4429705Y-6450079D01*
X4429705Y-6450079D02*
X4439229Y-6488174D01*
X4439229Y-6488174D02*
X4439229Y-6535793D01*
X4439229Y-6535793D02*
X4429705Y-6573888D01*
X4429705Y-6573888D02*
X4420182Y-6592936D01*
X4420182Y-6592936D02*
X4410658Y-6602460D01*
X4410658Y-6602460D02*
X4391610Y-6611984D01*
X4391610Y-6611984D02*
X4372563Y-6611984D01*
X4372563Y-6611984D02*
X4353515Y-6602460D01*
X4353515Y-6602460D02*
X4343991Y-6592936D01*
X4343991Y-6592936D02*
X4334467Y-6573888D01*
X4334467Y-6573888D02*
X4324944Y-6535793D01*
X4324944Y-6535793D02*
X4324944Y-6488174D01*
X4324944Y-6488174D02*
X4334467Y-6450079D01*
X4334467Y-6450079D02*
X4343991Y-6431031D01*
X4343991Y-6431031D02*
X4353515Y-6421508D01*
X4353515Y-6421508D02*
X4372563Y-6411984D01*
X4563039Y-6411984D02*
X4582086Y-6411984D01*
X4582086Y-6411984D02*
X4601134Y-6421508D01*
X4601134Y-6421508D02*
X4610658Y-6431031D01*
X4610658Y-6431031D02*
X4620182Y-6450079D01*
X4620182Y-6450079D02*
X4629705Y-6488174D01*
X4629705Y-6488174D02*
X4629705Y-6535793D01*
X4629705Y-6535793D02*
X4620182Y-6573888D01*
X4620182Y-6573888D02*
X4610658Y-6592936D01*
X4610658Y-6592936D02*
X4601134Y-6602460D01*
X4601134Y-6602460D02*
X4582086Y-6611984D01*
X4582086Y-6611984D02*
X4563039Y-6611984D01*
X4563039Y-6611984D02*
X4543991Y-6602460D01*
X4543991Y-6602460D02*
X4534467Y-6592936D01*
X4534467Y-6592936D02*
X4524944Y-6573888D01*
X4524944Y-6573888D02*
X4515420Y-6535793D01*
X4515420Y-6535793D02*
X4515420Y-6488174D01*
X4515420Y-6488174D02*
X4524944Y-6450079D01*
X4524944Y-6450079D02*
X4534467Y-6431031D01*
X4534467Y-6431031D02*
X4543991Y-6421508D01*
X4543991Y-6421508D02*
X4563039Y-6411984D01*
X4715420Y-6611984D02*
X4715420Y-6478650D01*
X4715420Y-6497698D02*
X4724944Y-6488174D01*
X4724944Y-6488174D02*
X4743991Y-6478650D01*
X4743991Y-6478650D02*
X4772563Y-6478650D01*
X4772563Y-6478650D02*
X4791610Y-6488174D01*
X4791610Y-6488174D02*
X4801134Y-6507222D01*
X4801134Y-6507222D02*
X4801134Y-6611984D01*
X4801134Y-6507222D02*
X4810658Y-6488174D01*
X4810658Y-6488174D02*
X4829705Y-6478650D01*
X4829705Y-6478650D02*
X4858277Y-6478650D01*
X4858277Y-6478650D02*
X4877325Y-6488174D01*
X4877325Y-6488174D02*
X4886848Y-6507222D01*
X4886848Y-6507222D02*
X4886848Y-6611984D01*
X4982086Y-6611984D02*
X4982086Y-6478650D01*
X4982086Y-6497698D02*
X4991610Y-6488174D01*
X4991610Y-6488174D02*
X5010658Y-6478650D01*
X5010658Y-6478650D02*
X5039229Y-6478650D01*
X5039229Y-6478650D02*
X5058277Y-6488174D01*
X5058277Y-6488174D02*
X5067801Y-6507222D01*
X5067801Y-6507222D02*
X5067801Y-6611984D01*
X5067801Y-6507222D02*
X5077325Y-6488174D01*
X5077325Y-6488174D02*
X5096372Y-6478650D01*
X5096372Y-6478650D02*
X5124944Y-6478650D01*
X5124944Y-6478650D02*
X5143991Y-6488174D01*
X5143991Y-6488174D02*
X5153515Y-6507222D01*
X5153515Y-6507222D02*
X5153515Y-6611984D01*
X5543991Y-6402460D02*
X5372563Y-6659603D01*
X5801134Y-6411984D02*
X5820182Y-6411984D01*
X5820182Y-6411984D02*
X5839229Y-6421508D01*
X5839229Y-6421508D02*
X5848753Y-6431031D01*
X5848753Y-6431031D02*
X5858277Y-6450079D01*
X5858277Y-6450079D02*
X5867801Y-6488174D01*
X5867801Y-6488174D02*
X5867801Y-6535793D01*
X5867801Y-6535793D02*
X5858277Y-6573888D01*
X5858277Y-6573888D02*
X5848753Y-6592936D01*
X5848753Y-6592936D02*
X5839229Y-6602460D01*
X5839229Y-6602460D02*
X5820182Y-6611984D01*
X5820182Y-6611984D02*
X5801134Y-6611984D01*
X5801134Y-6611984D02*
X5782086Y-6602460D01*
X5782086Y-6602460D02*
X5772563Y-6592936D01*
X5772563Y-6592936D02*
X5763039Y-6573888D01*
X5763039Y-6573888D02*
X5753515Y-6535793D01*
X5753515Y-6535793D02*
X5753515Y-6488174D01*
X5753515Y-6488174D02*
X5763039Y-6450079D01*
X5763039Y-6450079D02*
X5772563Y-6431031D01*
X5772563Y-6431031D02*
X5782086Y-6421508D01*
X5782086Y-6421508D02*
X5801134Y-6411984D01*
X5953515Y-6592936D02*
X5963039Y-6602460D01*
X5963039Y-6602460D02*
X5953515Y-6611984D01*
X5953515Y-6611984D02*
X5943991Y-6602460D01*
X5943991Y-6602460D02*
X5953515Y-6592936D01*
X5953515Y-6592936D02*
X5953515Y-6611984D01*
X6086848Y-6411984D02*
X6105896Y-6411984D01*
X6105896Y-6411984D02*
X6124944Y-6421508D01*
X6124944Y-6421508D02*
X6134467Y-6431031D01*
X6134467Y-6431031D02*
X6143991Y-6450079D01*
X6143991Y-6450079D02*
X6153515Y-6488174D01*
X6153515Y-6488174D02*
X6153515Y-6535793D01*
X6153515Y-6535793D02*
X6143991Y-6573888D01*
X6143991Y-6573888D02*
X6134467Y-6592936D01*
X6134467Y-6592936D02*
X6124944Y-6602460D01*
X6124944Y-6602460D02*
X6105896Y-6611984D01*
X6105896Y-6611984D02*
X6086848Y-6611984D01*
X6086848Y-6611984D02*
X6067801Y-6602460D01*
X6067801Y-6602460D02*
X6058277Y-6592936D01*
X6058277Y-6592936D02*
X6048753Y-6573888D01*
X6048753Y-6573888D02*
X6039229Y-6535793D01*
X6039229Y-6535793D02*
X6039229Y-6488174D01*
X6039229Y-6488174D02*
X6048753Y-6450079D01*
X6048753Y-6450079D02*
X6058277Y-6431031D01*
X6058277Y-6431031D02*
X6067801Y-6421508D01*
X6067801Y-6421508D02*
X6086848Y-6411984D01*
X6334467Y-6411984D02*
X6239229Y-6411984D01*
X6239229Y-6411984D02*
X6229706Y-6507222D01*
X6229706Y-6507222D02*
X6239229Y-6497698D01*
X6239229Y-6497698D02*
X6258277Y-6488174D01*
X6258277Y-6488174D02*
X6305896Y-6488174D01*
X6305896Y-6488174D02*
X6324944Y-6497698D01*
X6324944Y-6497698D02*
X6334467Y-6507222D01*
X6334467Y-6507222D02*
X6343991Y-6526269D01*
X6343991Y-6526269D02*
X6343991Y-6573888D01*
X6343991Y-6573888D02*
X6334467Y-6592936D01*
X6334467Y-6592936D02*
X6324944Y-6602460D01*
X6324944Y-6602460D02*
X6305896Y-6611984D01*
X6305896Y-6611984D02*
X6258277Y-6611984D01*
X6258277Y-6611984D02*
X6239229Y-6602460D01*
X6239229Y-6602460D02*
X6229706Y-6592936D01*
X6534467Y-6611984D02*
X6420182Y-6611984D01*
X6477325Y-6611984D02*
X6477325Y-6411984D01*
X6477325Y-6411984D02*
X6458277Y-6440555D01*
X6458277Y-6440555D02*
X6439229Y-6459603D01*
X6439229Y-6459603D02*
X6420182Y-6469127D01*
X6610658Y-6431031D02*
X6620182Y-6421508D01*
X6620182Y-6421508D02*
X6639229Y-6411984D01*
X6639229Y-6411984D02*
X6686848Y-6411984D01*
X6686848Y-6411984D02*
X6705896Y-6421508D01*
X6705896Y-6421508D02*
X6715420Y-6431031D01*
X6715420Y-6431031D02*
X6724944Y-6450079D01*
X6724944Y-6450079D02*
X6724944Y-6469127D01*
X6724944Y-6469127D02*
X6715420Y-6497698D01*
X6715420Y-6497698D02*
X6601134Y-6611984D01*
X6601134Y-6611984D02*
X6724944Y-6611984D01*
X6801134Y-6411984D02*
X6801134Y-6450079D01*
X6877325Y-6411984D02*
X6877325Y-6450079D01*
X7172563Y-6688174D02*
X7163039Y-6678650D01*
X7163039Y-6678650D02*
X7143991Y-6650079D01*
X7143991Y-6650079D02*
X7134468Y-6631031D01*
X7134468Y-6631031D02*
X7124944Y-6602460D01*
X7124944Y-6602460D02*
X7115420Y-6554841D01*
X7115420Y-6554841D02*
X7115420Y-6516746D01*
X7115420Y-6516746D02*
X7124944Y-6469127D01*
X7124944Y-6469127D02*
X7134468Y-6440555D01*
X7134468Y-6440555D02*
X7143991Y-6421508D01*
X7143991Y-6421508D02*
X7163039Y-6392936D01*
X7163039Y-6392936D02*
X7172563Y-6383412D01*
X7239229Y-6431031D02*
X7248753Y-6421508D01*
X7248753Y-6421508D02*
X7267801Y-6411984D01*
X7267801Y-6411984D02*
X7315420Y-6411984D01*
X7315420Y-6411984D02*
X7334468Y-6421508D01*
X7334468Y-6421508D02*
X7343991Y-6431031D01*
X7343991Y-6431031D02*
X7353515Y-6450079D01*
X7353515Y-6450079D02*
X7353515Y-6469127D01*
X7353515Y-6469127D02*
X7343991Y-6497698D01*
X7343991Y-6497698D02*
X7229706Y-6611984D01*
X7229706Y-6611984D02*
X7353515Y-6611984D01*
X7591610Y-6611984D02*
X7591610Y-6411984D01*
X7677325Y-6611984D02*
X7677325Y-6507222D01*
X7677325Y-6507222D02*
X7667801Y-6488174D01*
X7667801Y-6488174D02*
X7648753Y-6478650D01*
X7648753Y-6478650D02*
X7620182Y-6478650D01*
X7620182Y-6478650D02*
X7601134Y-6488174D01*
X7601134Y-6488174D02*
X7591610Y-6497698D01*
X7801134Y-6611984D02*
X7782087Y-6602460D01*
X7782087Y-6602460D02*
X7772563Y-6592936D01*
X7772563Y-6592936D02*
X7763039Y-6573888D01*
X7763039Y-6573888D02*
X7763039Y-6516746D01*
X7763039Y-6516746D02*
X7772563Y-6497698D01*
X7772563Y-6497698D02*
X7782087Y-6488174D01*
X7782087Y-6488174D02*
X7801134Y-6478650D01*
X7801134Y-6478650D02*
X7829706Y-6478650D01*
X7829706Y-6478650D02*
X7848753Y-6488174D01*
X7848753Y-6488174D02*
X7858277Y-6497698D01*
X7858277Y-6497698D02*
X7867801Y-6516746D01*
X7867801Y-6516746D02*
X7867801Y-6573888D01*
X7867801Y-6573888D02*
X7858277Y-6592936D01*
X7858277Y-6592936D02*
X7848753Y-6602460D01*
X7848753Y-6602460D02*
X7829706Y-6611984D01*
X7829706Y-6611984D02*
X7801134Y-6611984D01*
X7982087Y-6611984D02*
X7963039Y-6602460D01*
X7963039Y-6602460D02*
X7953515Y-6583412D01*
X7953515Y-6583412D02*
X7953515Y-6411984D01*
X8134468Y-6602460D02*
X8115420Y-6611984D01*
X8115420Y-6611984D02*
X8077325Y-6611984D01*
X8077325Y-6611984D02*
X8058277Y-6602460D01*
X8058277Y-6602460D02*
X8048753Y-6583412D01*
X8048753Y-6583412D02*
X8048753Y-6507222D01*
X8048753Y-6507222D02*
X8058277Y-6488174D01*
X8058277Y-6488174D02*
X8077325Y-6478650D01*
X8077325Y-6478650D02*
X8115420Y-6478650D01*
X8115420Y-6478650D02*
X8134468Y-6488174D01*
X8134468Y-6488174D02*
X8143991Y-6507222D01*
X8143991Y-6507222D02*
X8143991Y-6526269D01*
X8143991Y-6526269D02*
X8048753Y-6545317D01*
X8220182Y-6602460D02*
X8239230Y-6611984D01*
X8239230Y-6611984D02*
X8277325Y-6611984D01*
X8277325Y-6611984D02*
X8296372Y-6602460D01*
X8296372Y-6602460D02*
X8305896Y-6583412D01*
X8305896Y-6583412D02*
X8305896Y-6573888D01*
X8305896Y-6573888D02*
X8296372Y-6554841D01*
X8296372Y-6554841D02*
X8277325Y-6545317D01*
X8277325Y-6545317D02*
X8248753Y-6545317D01*
X8248753Y-6545317D02*
X8229706Y-6535793D01*
X8229706Y-6535793D02*
X8220182Y-6516746D01*
X8220182Y-6516746D02*
X8220182Y-6507222D01*
X8220182Y-6507222D02*
X8229706Y-6488174D01*
X8229706Y-6488174D02*
X8248753Y-6478650D01*
X8248753Y-6478650D02*
X8277325Y-6478650D01*
X8277325Y-6478650D02*
X8296372Y-6488174D01*
X8372563Y-6688174D02*
X8382087Y-6678650D01*
X8382087Y-6678650D02*
X8401134Y-6650079D01*
X8401134Y-6650079D02*
X8410658Y-6631031D01*
X8410658Y-6631031D02*
X8420182Y-6602460D01*
X8420182Y-6602460D02*
X8429706Y-6554841D01*
X8429706Y-6554841D02*
X8429706Y-6516746D01*
X8429706Y-6516746D02*
X8420182Y-6469127D01*
X8420182Y-6469127D02*
X8410658Y-6440555D01*
X8410658Y-6440555D02*
X8401134Y-6421508D01*
X8401134Y-6421508D02*
X8382087Y-6392936D01*
X8382087Y-6392936D02*
X8372563Y-6383412D01*
X3568211Y-6855211D02*
X3568211Y-6713789D01*
X3426789Y-6713789D01*
X3426789Y-6855211D01*
X3568211Y-6855211D01*
X3848753Y-6695031D02*
X3858277Y-6685508D01*
X3858277Y-6685508D02*
X3877324Y-6675984D01*
X3877324Y-6675984D02*
X3924943Y-6675984D01*
X3924943Y-6675984D02*
X3943991Y-6685508D01*
X3943991Y-6685508D02*
X3953515Y-6695031D01*
X3953515Y-6695031D02*
X3963039Y-6714079D01*
X3963039Y-6714079D02*
X3963039Y-6733127D01*
X3963039Y-6733127D02*
X3953515Y-6761698D01*
X3953515Y-6761698D02*
X3839229Y-6875984D01*
X3839229Y-6875984D02*
X3963039Y-6875984D01*
X4048753Y-6856936D02*
X4058277Y-6866460D01*
X4058277Y-6866460D02*
X4048753Y-6875984D01*
X4048753Y-6875984D02*
X4039229Y-6866460D01*
X4039229Y-6866460D02*
X4048753Y-6856936D01*
X4048753Y-6856936D02*
X4048753Y-6875984D01*
X4134467Y-6695031D02*
X4143991Y-6685508D01*
X4143991Y-6685508D02*
X4163039Y-6675984D01*
X4163039Y-6675984D02*
X4210658Y-6675984D01*
X4210658Y-6675984D02*
X4229705Y-6685508D01*
X4229705Y-6685508D02*
X4239229Y-6695031D01*
X4239229Y-6695031D02*
X4248753Y-6714079D01*
X4248753Y-6714079D02*
X4248753Y-6733127D01*
X4248753Y-6733127D02*
X4239229Y-6761698D01*
X4239229Y-6761698D02*
X4124943Y-6875984D01*
X4124943Y-6875984D02*
X4248753Y-6875984D01*
X4372563Y-6675984D02*
X4391610Y-6675984D01*
X4391610Y-6675984D02*
X4410658Y-6685508D01*
X4410658Y-6685508D02*
X4420182Y-6695031D01*
X4420182Y-6695031D02*
X4429705Y-6714079D01*
X4429705Y-6714079D02*
X4439229Y-6752174D01*
X4439229Y-6752174D02*
X4439229Y-6799793D01*
X4439229Y-6799793D02*
X4429705Y-6837888D01*
X4429705Y-6837888D02*
X4420182Y-6856936D01*
X4420182Y-6856936D02*
X4410658Y-6866460D01*
X4410658Y-6866460D02*
X4391610Y-6875984D01*
X4391610Y-6875984D02*
X4372563Y-6875984D01*
X4372563Y-6875984D02*
X4353515Y-6866460D01*
X4353515Y-6866460D02*
X4343991Y-6856936D01*
X4343991Y-6856936D02*
X4334467Y-6837888D01*
X4334467Y-6837888D02*
X4324944Y-6799793D01*
X4324944Y-6799793D02*
X4324944Y-6752174D01*
X4324944Y-6752174D02*
X4334467Y-6714079D01*
X4334467Y-6714079D02*
X4343991Y-6695031D01*
X4343991Y-6695031D02*
X4353515Y-6685508D01*
X4353515Y-6685508D02*
X4372563Y-6675984D01*
X4563039Y-6675984D02*
X4582086Y-6675984D01*
X4582086Y-6675984D02*
X4601134Y-6685508D01*
X4601134Y-6685508D02*
X4610658Y-6695031D01*
X4610658Y-6695031D02*
X4620182Y-6714079D01*
X4620182Y-6714079D02*
X4629705Y-6752174D01*
X4629705Y-6752174D02*
X4629705Y-6799793D01*
X4629705Y-6799793D02*
X4620182Y-6837888D01*
X4620182Y-6837888D02*
X4610658Y-6856936D01*
X4610658Y-6856936D02*
X4601134Y-6866460D01*
X4601134Y-6866460D02*
X4582086Y-6875984D01*
X4582086Y-6875984D02*
X4563039Y-6875984D01*
X4563039Y-6875984D02*
X4543991Y-6866460D01*
X4543991Y-6866460D02*
X4534467Y-6856936D01*
X4534467Y-6856936D02*
X4524944Y-6837888D01*
X4524944Y-6837888D02*
X4515420Y-6799793D01*
X4515420Y-6799793D02*
X4515420Y-6752174D01*
X4515420Y-6752174D02*
X4524944Y-6714079D01*
X4524944Y-6714079D02*
X4534467Y-6695031D01*
X4534467Y-6695031D02*
X4543991Y-6685508D01*
X4543991Y-6685508D02*
X4563039Y-6675984D01*
X4715420Y-6875984D02*
X4715420Y-6742650D01*
X4715420Y-6761698D02*
X4724944Y-6752174D01*
X4724944Y-6752174D02*
X4743991Y-6742650D01*
X4743991Y-6742650D02*
X4772563Y-6742650D01*
X4772563Y-6742650D02*
X4791610Y-6752174D01*
X4791610Y-6752174D02*
X4801134Y-6771222D01*
X4801134Y-6771222D02*
X4801134Y-6875984D01*
X4801134Y-6771222D02*
X4810658Y-6752174D01*
X4810658Y-6752174D02*
X4829705Y-6742650D01*
X4829705Y-6742650D02*
X4858277Y-6742650D01*
X4858277Y-6742650D02*
X4877325Y-6752174D01*
X4877325Y-6752174D02*
X4886848Y-6771222D01*
X4886848Y-6771222D02*
X4886848Y-6875984D01*
X4982086Y-6875984D02*
X4982086Y-6742650D01*
X4982086Y-6761698D02*
X4991610Y-6752174D01*
X4991610Y-6752174D02*
X5010658Y-6742650D01*
X5010658Y-6742650D02*
X5039229Y-6742650D01*
X5039229Y-6742650D02*
X5058277Y-6752174D01*
X5058277Y-6752174D02*
X5067801Y-6771222D01*
X5067801Y-6771222D02*
X5067801Y-6875984D01*
X5067801Y-6771222D02*
X5077325Y-6752174D01*
X5077325Y-6752174D02*
X5096372Y-6742650D01*
X5096372Y-6742650D02*
X5124944Y-6742650D01*
X5124944Y-6742650D02*
X5143991Y-6752174D01*
X5143991Y-6752174D02*
X5153515Y-6771222D01*
X5153515Y-6771222D02*
X5153515Y-6875984D01*
X5543991Y-6666460D02*
X5372563Y-6923603D01*
X5801134Y-6675984D02*
X5820182Y-6675984D01*
X5820182Y-6675984D02*
X5839229Y-6685508D01*
X5839229Y-6685508D02*
X5848753Y-6695031D01*
X5848753Y-6695031D02*
X5858277Y-6714079D01*
X5858277Y-6714079D02*
X5867801Y-6752174D01*
X5867801Y-6752174D02*
X5867801Y-6799793D01*
X5867801Y-6799793D02*
X5858277Y-6837888D01*
X5858277Y-6837888D02*
X5848753Y-6856936D01*
X5848753Y-6856936D02*
X5839229Y-6866460D01*
X5839229Y-6866460D02*
X5820182Y-6875984D01*
X5820182Y-6875984D02*
X5801134Y-6875984D01*
X5801134Y-6875984D02*
X5782086Y-6866460D01*
X5782086Y-6866460D02*
X5772563Y-6856936D01*
X5772563Y-6856936D02*
X5763039Y-6837888D01*
X5763039Y-6837888D02*
X5753515Y-6799793D01*
X5753515Y-6799793D02*
X5753515Y-6752174D01*
X5753515Y-6752174D02*
X5763039Y-6714079D01*
X5763039Y-6714079D02*
X5772563Y-6695031D01*
X5772563Y-6695031D02*
X5782086Y-6685508D01*
X5782086Y-6685508D02*
X5801134Y-6675984D01*
X5953515Y-6856936D02*
X5963039Y-6866460D01*
X5963039Y-6866460D02*
X5953515Y-6875984D01*
X5953515Y-6875984D02*
X5943991Y-6866460D01*
X5943991Y-6866460D02*
X5953515Y-6856936D01*
X5953515Y-6856936D02*
X5953515Y-6875984D01*
X6086848Y-6675984D02*
X6105896Y-6675984D01*
X6105896Y-6675984D02*
X6124944Y-6685508D01*
X6124944Y-6685508D02*
X6134467Y-6695031D01*
X6134467Y-6695031D02*
X6143991Y-6714079D01*
X6143991Y-6714079D02*
X6153515Y-6752174D01*
X6153515Y-6752174D02*
X6153515Y-6799793D01*
X6153515Y-6799793D02*
X6143991Y-6837888D01*
X6143991Y-6837888D02*
X6134467Y-6856936D01*
X6134467Y-6856936D02*
X6124944Y-6866460D01*
X6124944Y-6866460D02*
X6105896Y-6875984D01*
X6105896Y-6875984D02*
X6086848Y-6875984D01*
X6086848Y-6875984D02*
X6067801Y-6866460D01*
X6067801Y-6866460D02*
X6058277Y-6856936D01*
X6058277Y-6856936D02*
X6048753Y-6837888D01*
X6048753Y-6837888D02*
X6039229Y-6799793D01*
X6039229Y-6799793D02*
X6039229Y-6752174D01*
X6039229Y-6752174D02*
X6048753Y-6714079D01*
X6048753Y-6714079D02*
X6058277Y-6695031D01*
X6058277Y-6695031D02*
X6067801Y-6685508D01*
X6067801Y-6685508D02*
X6086848Y-6675984D01*
X6267801Y-6761698D02*
X6248753Y-6752174D01*
X6248753Y-6752174D02*
X6239229Y-6742650D01*
X6239229Y-6742650D02*
X6229706Y-6723603D01*
X6229706Y-6723603D02*
X6229706Y-6714079D01*
X6229706Y-6714079D02*
X6239229Y-6695031D01*
X6239229Y-6695031D02*
X6248753Y-6685508D01*
X6248753Y-6685508D02*
X6267801Y-6675984D01*
X6267801Y-6675984D02*
X6305896Y-6675984D01*
X6305896Y-6675984D02*
X6324944Y-6685508D01*
X6324944Y-6685508D02*
X6334467Y-6695031D01*
X6334467Y-6695031D02*
X6343991Y-6714079D01*
X6343991Y-6714079D02*
X6343991Y-6723603D01*
X6343991Y-6723603D02*
X6334467Y-6742650D01*
X6334467Y-6742650D02*
X6324944Y-6752174D01*
X6324944Y-6752174D02*
X6305896Y-6761698D01*
X6305896Y-6761698D02*
X6267801Y-6761698D01*
X6267801Y-6761698D02*
X6248753Y-6771222D01*
X6248753Y-6771222D02*
X6239229Y-6780746D01*
X6239229Y-6780746D02*
X6229706Y-6799793D01*
X6229706Y-6799793D02*
X6229706Y-6837888D01*
X6229706Y-6837888D02*
X6239229Y-6856936D01*
X6239229Y-6856936D02*
X6248753Y-6866460D01*
X6248753Y-6866460D02*
X6267801Y-6875984D01*
X6267801Y-6875984D02*
X6305896Y-6875984D01*
X6305896Y-6875984D02*
X6324944Y-6866460D01*
X6324944Y-6866460D02*
X6334467Y-6856936D01*
X6334467Y-6856936D02*
X6343991Y-6837888D01*
X6343991Y-6837888D02*
X6343991Y-6799793D01*
X6343991Y-6799793D02*
X6334467Y-6780746D01*
X6334467Y-6780746D02*
X6324944Y-6771222D01*
X6324944Y-6771222D02*
X6305896Y-6761698D01*
X6515420Y-6675984D02*
X6477325Y-6675984D01*
X6477325Y-6675984D02*
X6458277Y-6685508D01*
X6458277Y-6685508D02*
X6448753Y-6695031D01*
X6448753Y-6695031D02*
X6429706Y-6723603D01*
X6429706Y-6723603D02*
X6420182Y-6761698D01*
X6420182Y-6761698D02*
X6420182Y-6837888D01*
X6420182Y-6837888D02*
X6429706Y-6856936D01*
X6429706Y-6856936D02*
X6439229Y-6866460D01*
X6439229Y-6866460D02*
X6458277Y-6875984D01*
X6458277Y-6875984D02*
X6496372Y-6875984D01*
X6496372Y-6875984D02*
X6515420Y-6866460D01*
X6515420Y-6866460D02*
X6524944Y-6856936D01*
X6524944Y-6856936D02*
X6534467Y-6837888D01*
X6534467Y-6837888D02*
X6534467Y-6790269D01*
X6534467Y-6790269D02*
X6524944Y-6771222D01*
X6524944Y-6771222D02*
X6515420Y-6761698D01*
X6515420Y-6761698D02*
X6496372Y-6752174D01*
X6496372Y-6752174D02*
X6458277Y-6752174D01*
X6458277Y-6752174D02*
X6439229Y-6761698D01*
X6439229Y-6761698D02*
X6429706Y-6771222D01*
X6429706Y-6771222D02*
X6420182Y-6790269D01*
X6705896Y-6675984D02*
X6667801Y-6675984D01*
X6667801Y-6675984D02*
X6648753Y-6685508D01*
X6648753Y-6685508D02*
X6639229Y-6695031D01*
X6639229Y-6695031D02*
X6620182Y-6723603D01*
X6620182Y-6723603D02*
X6610658Y-6761698D01*
X6610658Y-6761698D02*
X6610658Y-6837888D01*
X6610658Y-6837888D02*
X6620182Y-6856936D01*
X6620182Y-6856936D02*
X6629706Y-6866460D01*
X6629706Y-6866460D02*
X6648753Y-6875984D01*
X6648753Y-6875984D02*
X6686848Y-6875984D01*
X6686848Y-6875984D02*
X6705896Y-6866460D01*
X6705896Y-6866460D02*
X6715420Y-6856936D01*
X6715420Y-6856936D02*
X6724944Y-6837888D01*
X6724944Y-6837888D02*
X6724944Y-6790269D01*
X6724944Y-6790269D02*
X6715420Y-6771222D01*
X6715420Y-6771222D02*
X6705896Y-6761698D01*
X6705896Y-6761698D02*
X6686848Y-6752174D01*
X6686848Y-6752174D02*
X6648753Y-6752174D01*
X6648753Y-6752174D02*
X6629706Y-6761698D01*
X6629706Y-6761698D02*
X6620182Y-6771222D01*
X6620182Y-6771222D02*
X6610658Y-6790269D01*
X6801134Y-6675984D02*
X6801134Y-6714079D01*
X6877325Y-6675984D02*
X6877325Y-6714079D01*
X7172563Y-6952174D02*
X7163039Y-6942650D01*
X7163039Y-6942650D02*
X7143991Y-6914079D01*
X7143991Y-6914079D02*
X7134468Y-6895031D01*
X7134468Y-6895031D02*
X7124944Y-6866460D01*
X7124944Y-6866460D02*
X7115420Y-6818841D01*
X7115420Y-6818841D02*
X7115420Y-6780746D01*
X7115420Y-6780746D02*
X7124944Y-6733127D01*
X7124944Y-6733127D02*
X7134468Y-6704555D01*
X7134468Y-6704555D02*
X7143991Y-6685508D01*
X7143991Y-6685508D02*
X7163039Y-6656936D01*
X7163039Y-6656936D02*
X7172563Y-6647412D01*
X7229706Y-6675984D02*
X7353515Y-6675984D01*
X7353515Y-6675984D02*
X7286848Y-6752174D01*
X7286848Y-6752174D02*
X7315420Y-6752174D01*
X7315420Y-6752174D02*
X7334468Y-6761698D01*
X7334468Y-6761698D02*
X7343991Y-6771222D01*
X7343991Y-6771222D02*
X7353515Y-6790269D01*
X7353515Y-6790269D02*
X7353515Y-6837888D01*
X7353515Y-6837888D02*
X7343991Y-6856936D01*
X7343991Y-6856936D02*
X7334468Y-6866460D01*
X7334468Y-6866460D02*
X7315420Y-6875984D01*
X7315420Y-6875984D02*
X7258277Y-6875984D01*
X7258277Y-6875984D02*
X7239229Y-6866460D01*
X7239229Y-6866460D02*
X7229706Y-6856936D01*
X7591610Y-6875984D02*
X7591610Y-6675984D01*
X7677325Y-6875984D02*
X7677325Y-6771222D01*
X7677325Y-6771222D02*
X7667801Y-6752174D01*
X7667801Y-6752174D02*
X7648753Y-6742650D01*
X7648753Y-6742650D02*
X7620182Y-6742650D01*
X7620182Y-6742650D02*
X7601134Y-6752174D01*
X7601134Y-6752174D02*
X7591610Y-6761698D01*
X7801134Y-6875984D02*
X7782087Y-6866460D01*
X7782087Y-6866460D02*
X7772563Y-6856936D01*
X7772563Y-6856936D02*
X7763039Y-6837888D01*
X7763039Y-6837888D02*
X7763039Y-6780746D01*
X7763039Y-6780746D02*
X7772563Y-6761698D01*
X7772563Y-6761698D02*
X7782087Y-6752174D01*
X7782087Y-6752174D02*
X7801134Y-6742650D01*
X7801134Y-6742650D02*
X7829706Y-6742650D01*
X7829706Y-6742650D02*
X7848753Y-6752174D01*
X7848753Y-6752174D02*
X7858277Y-6761698D01*
X7858277Y-6761698D02*
X7867801Y-6780746D01*
X7867801Y-6780746D02*
X7867801Y-6837888D01*
X7867801Y-6837888D02*
X7858277Y-6856936D01*
X7858277Y-6856936D02*
X7848753Y-6866460D01*
X7848753Y-6866460D02*
X7829706Y-6875984D01*
X7829706Y-6875984D02*
X7801134Y-6875984D01*
X7982087Y-6875984D02*
X7963039Y-6866460D01*
X7963039Y-6866460D02*
X7953515Y-6847412D01*
X7953515Y-6847412D02*
X7953515Y-6675984D01*
X8134468Y-6866460D02*
X8115420Y-6875984D01*
X8115420Y-6875984D02*
X8077325Y-6875984D01*
X8077325Y-6875984D02*
X8058277Y-6866460D01*
X8058277Y-6866460D02*
X8048753Y-6847412D01*
X8048753Y-6847412D02*
X8048753Y-6771222D01*
X8048753Y-6771222D02*
X8058277Y-6752174D01*
X8058277Y-6752174D02*
X8077325Y-6742650D01*
X8077325Y-6742650D02*
X8115420Y-6742650D01*
X8115420Y-6742650D02*
X8134468Y-6752174D01*
X8134468Y-6752174D02*
X8143991Y-6771222D01*
X8143991Y-6771222D02*
X8143991Y-6790269D01*
X8143991Y-6790269D02*
X8048753Y-6809317D01*
X8220182Y-6866460D02*
X8239230Y-6875984D01*
X8239230Y-6875984D02*
X8277325Y-6875984D01*
X8277325Y-6875984D02*
X8296372Y-6866460D01*
X8296372Y-6866460D02*
X8305896Y-6847412D01*
X8305896Y-6847412D02*
X8305896Y-6837888D01*
X8305896Y-6837888D02*
X8296372Y-6818841D01*
X8296372Y-6818841D02*
X8277325Y-6809317D01*
X8277325Y-6809317D02*
X8248753Y-6809317D01*
X8248753Y-6809317D02*
X8229706Y-6799793D01*
X8229706Y-6799793D02*
X8220182Y-6780746D01*
X8220182Y-6780746D02*
X8220182Y-6771222D01*
X8220182Y-6771222D02*
X8229706Y-6752174D01*
X8229706Y-6752174D02*
X8248753Y-6742650D01*
X8248753Y-6742650D02*
X8277325Y-6742650D01*
X8277325Y-6742650D02*
X8296372Y-6752174D01*
X8372563Y-6952174D02*
X8382087Y-6942650D01*
X8382087Y-6942650D02*
X8401134Y-6914079D01*
X8401134Y-6914079D02*
X8410658Y-6895031D01*
X8410658Y-6895031D02*
X8420182Y-6866460D01*
X8420182Y-6866460D02*
X8429706Y-6818841D01*
X8429706Y-6818841D02*
X8429706Y-6780746D01*
X8429706Y-6780746D02*
X8420182Y-6733127D01*
X8420182Y-6733127D02*
X8410658Y-6704555D01*
X8410658Y-6704555D02*
X8401134Y-6685508D01*
X8401134Y-6685508D02*
X8382087Y-6656936D01*
X8382087Y-6656936D02*
X8372563Y-6647412D01*
M02*
