%TF.GenerationSoftware,KiCad,Pcbnew,9.0.0*%
%TF.CreationDate,2025-04-14T15:44:47-05:00*%
%TF.ProjectId,Boat_Volt_Reg,426f6174-5f56-46f6-9c74-5f5265672e6b,rev?*%
%TF.SameCoordinates,Original*%
%TF.FileFunction,Profile,NP*%
%FSLAX46Y46*%
G04 Gerber Fmt 4.6, Leading zero omitted, Abs format (unit mm)*
G04 Created by KiCad (PCBNEW 9.0.0) date 2025-04-14 15:44:47*
%MOMM*%
%LPD*%
G01*
G04 APERTURE LIST*
%ADD10C,0.150000*%
%TA.AperFunction,Profile*%
%ADD11C,0.050000*%
%TD*%
G04 APERTURE END LIST*
D10*
X57250000Y-18138152D02*
X57250000Y-18804819D01*
X57011905Y-17757200D02*
X56773810Y-18471485D01*
X56773810Y-18471485D02*
X57392857Y-18471485D01*
X58202381Y-18138152D02*
X58202381Y-18804819D01*
X57964286Y-17757200D02*
X57726191Y-18471485D01*
X57726191Y-18471485D02*
X58345238Y-18471485D01*
X58726191Y-18709580D02*
X58773810Y-18757200D01*
X58773810Y-18757200D02*
X58726191Y-18804819D01*
X58726191Y-18804819D02*
X58678572Y-18757200D01*
X58678572Y-18757200D02*
X58726191Y-18709580D01*
X58726191Y-18709580D02*
X58726191Y-18804819D01*
X59678571Y-17804819D02*
X59202381Y-17804819D01*
X59202381Y-17804819D02*
X59154762Y-18281009D01*
X59154762Y-18281009D02*
X59202381Y-18233390D01*
X59202381Y-18233390D02*
X59297619Y-18185771D01*
X59297619Y-18185771D02*
X59535714Y-18185771D01*
X59535714Y-18185771D02*
X59630952Y-18233390D01*
X59630952Y-18233390D02*
X59678571Y-18281009D01*
X59678571Y-18281009D02*
X59726190Y-18376247D01*
X59726190Y-18376247D02*
X59726190Y-18614342D01*
X59726190Y-18614342D02*
X59678571Y-18709580D01*
X59678571Y-18709580D02*
X59630952Y-18757200D01*
X59630952Y-18757200D02*
X59535714Y-18804819D01*
X59535714Y-18804819D02*
X59297619Y-18804819D01*
X59297619Y-18804819D02*
X59202381Y-18757200D01*
X59202381Y-18757200D02*
X59154762Y-18709580D01*
D11*
X80500000Y-36000000D02*
X80500000Y-18913580D01*
X36000000Y-18913580D02*
X36000000Y-38500000D01*
X80500000Y-19500000D02*
X36000000Y-19500000D01*
X80500000Y-19500000D02*
X36000000Y-19500000D01*
X80500000Y-19500000D02*
X79373496Y-20086421D01*
X80500000Y-19500000D02*
X79373496Y-18913579D01*
X36000000Y-19500000D02*
X37126504Y-18913579D01*
X36000000Y-19500000D02*
X37126504Y-20086421D01*
X80500000Y-19500000D02*
X36000000Y-19500000D01*
X80500000Y-19500000D02*
X36000000Y-19500000D01*
X80500000Y-19500000D02*
X79373496Y-20086421D01*
X80500000Y-19500000D02*
X79373496Y-18913579D01*
X36000000Y-19500000D02*
X37126504Y-18913579D01*
X36000000Y-19500000D02*
X37126504Y-20086421D01*
D10*
X92900057Y-39761904D02*
X92852438Y-39714285D01*
X92852438Y-39714285D02*
X92804819Y-39619047D01*
X92804819Y-39619047D02*
X92804819Y-39380952D01*
X92804819Y-39380952D02*
X92852438Y-39285714D01*
X92852438Y-39285714D02*
X92900057Y-39238095D01*
X92900057Y-39238095D02*
X92995295Y-39190476D01*
X92995295Y-39190476D02*
X93090533Y-39190476D01*
X93090533Y-39190476D02*
X93233390Y-39238095D01*
X93233390Y-39238095D02*
X93804819Y-39809523D01*
X93804819Y-39809523D02*
X93804819Y-39190476D01*
X93804819Y-38714285D02*
X93804819Y-38523809D01*
X93804819Y-38523809D02*
X93757200Y-38428571D01*
X93757200Y-38428571D02*
X93709580Y-38380952D01*
X93709580Y-38380952D02*
X93566723Y-38285714D01*
X93566723Y-38285714D02*
X93376247Y-38238095D01*
X93376247Y-38238095D02*
X92995295Y-38238095D01*
X92995295Y-38238095D02*
X92900057Y-38285714D01*
X92900057Y-38285714D02*
X92852438Y-38333333D01*
X92852438Y-38333333D02*
X92804819Y-38428571D01*
X92804819Y-38428571D02*
X92804819Y-38619047D01*
X92804819Y-38619047D02*
X92852438Y-38714285D01*
X92852438Y-38714285D02*
X92900057Y-38761904D01*
X92900057Y-38761904D02*
X92995295Y-38809523D01*
X92995295Y-38809523D02*
X93233390Y-38809523D01*
X93233390Y-38809523D02*
X93328628Y-38761904D01*
X93328628Y-38761904D02*
X93376247Y-38714285D01*
X93376247Y-38714285D02*
X93423866Y-38619047D01*
X93423866Y-38619047D02*
X93423866Y-38428571D01*
X93423866Y-38428571D02*
X93376247Y-38333333D01*
X93376247Y-38333333D02*
X93328628Y-38285714D01*
X93328628Y-38285714D02*
X93233390Y-38238095D01*
D11*
X75500000Y-53500000D02*
X95086420Y-53500000D01*
X95086420Y-24500000D02*
X75500000Y-24500000D01*
X94500000Y-53500000D02*
X94500000Y-24500000D01*
X94500000Y-53500000D02*
X94500000Y-24500000D01*
X94500000Y-53500000D02*
X93913579Y-52373496D01*
X94500000Y-53500000D02*
X95086421Y-52373496D01*
X94500000Y-24500000D02*
X95086421Y-25626504D01*
X94500000Y-24500000D02*
X93913579Y-25626504D01*
X94500000Y-53500000D02*
X94500000Y-24500000D01*
X94500000Y-53500000D02*
X94500000Y-24500000D01*
X94500000Y-53500000D02*
X93913579Y-52373496D01*
X94500000Y-53500000D02*
X95086421Y-52373496D01*
X94500000Y-24500000D02*
X95086421Y-25626504D01*
X94500000Y-24500000D02*
X93913579Y-25626504D01*
X40000000Y-50500000D02*
G75*
G02*
X38000000Y-50500000I-1000000J0D01*
G01*
X38000000Y-50500000D02*
G75*
G02*
X40000000Y-50500000I1000000J0D01*
G01*
X78500000Y-27500000D02*
G75*
G02*
X76500000Y-27500000I-1000000J0D01*
G01*
X76500000Y-27500000D02*
G75*
G02*
X78500000Y-27500000I1000000J0D01*
G01*
X78500000Y-50500000D02*
G75*
G02*
X76500000Y-50500000I-1000000J0D01*
G01*
X76500000Y-50500000D02*
G75*
G02*
X78500000Y-50500000I1000000J0D01*
G01*
X79500000Y-53500000D02*
X37000000Y-53500000D01*
X80500000Y-52500000D02*
G75*
G02*
X79500000Y-53500000I-1000000J0D01*
G01*
X80500000Y-25500000D02*
X80500000Y-52500000D01*
X37000000Y-24500000D02*
X79500000Y-24500000D01*
X79500000Y-24500000D02*
G75*
G02*
X80500000Y-25500000I0J-1000000D01*
G01*
X37000000Y-53500000D02*
G75*
G02*
X36000000Y-52500000I0J1000000D01*
G01*
X36000000Y-25500000D02*
G75*
G02*
X37000000Y-24500000I1000000J0D01*
G01*
X36000000Y-52500000D02*
X36000000Y-25500000D01*
M02*
