%TF.GenerationSoftware,KiCad,Pcbnew,9.0.0*%
%TF.CreationDate,2025-04-14T15:44:45-05:00*%
%TF.ProjectId,Boat_Volt_Reg,426f6174-5f56-46f6-9c74-5f5265672e6b,rev?*%
%TF.SameCoordinates,Original*%
%TF.FileFunction,Drillmap*%
%TF.FilePolarity,Positive*%
%FSLAX45Y45*%
G04 Gerber Fmt 4.5, Leading zero omitted, Abs format (unit mm)*
G04 Created by KiCad (PCBNEW 9.0.0) date 2025-04-14 15:44:45*
%MOMM*%
%LPD*%
G01*
G04 APERTURE LIST*
%ADD10C,0.050000*%
%ADD11C,0.200000*%
G04 APERTURE END LIST*
D10*
X4000000Y-5050000D02*
G75*
G02*
X3800000Y-5050000I-100000J0D01*
G01*
X3800000Y-5050000D02*
G75*
G02*
X4000000Y-5050000I100000J0D01*
G01*
X7850000Y-2750000D02*
G75*
G02*
X7650000Y-2750000I-100000J0D01*
G01*
X7650000Y-2750000D02*
G75*
G02*
X7850000Y-2750000I100000J0D01*
G01*
X7850000Y-5050000D02*
G75*
G02*
X7650000Y-5050000I-100000J0D01*
G01*
X7650000Y-5050000D02*
G75*
G02*
X7850000Y-5050000I100000J0D01*
G01*
X7950000Y-5350000D02*
X3700000Y-5350000D01*
X8050000Y-5250000D02*
G75*
G02*
X7950000Y-5350000I-100000J0D01*
G01*
X8050000Y-2550000D02*
X8050000Y-5250000D01*
X3700000Y-2450000D02*
X7950000Y-2450000D01*
X7950000Y-2450000D02*
G75*
G02*
X8050000Y-2550000I0J-100000D01*
G01*
X3700000Y-5350000D02*
G75*
G02*
X3600000Y-5250000I0J100000D01*
G01*
X3600000Y-2550000D02*
G75*
G02*
X3700000Y-2450000I100000J0D01*
G01*
X3600000Y-5250000D02*
X3600000Y-2550000D01*
D11*
X3858277Y-5663984D02*
X3858277Y-5463984D01*
X3858277Y-5463984D02*
X3905896Y-5463984D01*
X3905896Y-5463984D02*
X3934467Y-5473508D01*
X3934467Y-5473508D02*
X3953515Y-5492555D01*
X3953515Y-5492555D02*
X3963039Y-5511603D01*
X3963039Y-5511603D02*
X3972562Y-5549698D01*
X3972562Y-5549698D02*
X3972562Y-5578270D01*
X3972562Y-5578270D02*
X3963039Y-5616365D01*
X3963039Y-5616365D02*
X3953515Y-5635412D01*
X3953515Y-5635412D02*
X3934467Y-5654460D01*
X3934467Y-5654460D02*
X3905896Y-5663984D01*
X3905896Y-5663984D02*
X3858277Y-5663984D01*
X4058277Y-5663984D02*
X4058277Y-5530650D01*
X4058277Y-5568746D02*
X4067801Y-5549698D01*
X4067801Y-5549698D02*
X4077324Y-5540174D01*
X4077324Y-5540174D02*
X4096372Y-5530650D01*
X4096372Y-5530650D02*
X4115420Y-5530650D01*
X4182086Y-5663984D02*
X4182086Y-5530650D01*
X4182086Y-5463984D02*
X4172562Y-5473508D01*
X4172562Y-5473508D02*
X4182086Y-5483031D01*
X4182086Y-5483031D02*
X4191610Y-5473508D01*
X4191610Y-5473508D02*
X4182086Y-5463984D01*
X4182086Y-5463984D02*
X4182086Y-5483031D01*
X4305896Y-5663984D02*
X4286848Y-5654460D01*
X4286848Y-5654460D02*
X4277324Y-5635412D01*
X4277324Y-5635412D02*
X4277324Y-5463984D01*
X4410658Y-5663984D02*
X4391610Y-5654460D01*
X4391610Y-5654460D02*
X4382086Y-5635412D01*
X4382086Y-5635412D02*
X4382086Y-5463984D01*
X4639229Y-5663984D02*
X4639229Y-5463984D01*
X4639229Y-5463984D02*
X4705896Y-5606841D01*
X4705896Y-5606841D02*
X4772563Y-5463984D01*
X4772563Y-5463984D02*
X4772563Y-5663984D01*
X4953515Y-5663984D02*
X4953515Y-5559222D01*
X4953515Y-5559222D02*
X4943991Y-5540174D01*
X4943991Y-5540174D02*
X4924944Y-5530650D01*
X4924944Y-5530650D02*
X4886848Y-5530650D01*
X4886848Y-5530650D02*
X4867801Y-5540174D01*
X4953515Y-5654460D02*
X4934467Y-5663984D01*
X4934467Y-5663984D02*
X4886848Y-5663984D01*
X4886848Y-5663984D02*
X4867801Y-5654460D01*
X4867801Y-5654460D02*
X4858277Y-5635412D01*
X4858277Y-5635412D02*
X4858277Y-5616365D01*
X4858277Y-5616365D02*
X4867801Y-5597317D01*
X4867801Y-5597317D02*
X4886848Y-5587793D01*
X4886848Y-5587793D02*
X4934467Y-5587793D01*
X4934467Y-5587793D02*
X4953515Y-5578270D01*
X5048753Y-5530650D02*
X5048753Y-5730650D01*
X5048753Y-5540174D02*
X5067801Y-5530650D01*
X5067801Y-5530650D02*
X5105896Y-5530650D01*
X5105896Y-5530650D02*
X5124944Y-5540174D01*
X5124944Y-5540174D02*
X5134467Y-5549698D01*
X5134467Y-5549698D02*
X5143991Y-5568746D01*
X5143991Y-5568746D02*
X5143991Y-5625888D01*
X5143991Y-5625888D02*
X5134467Y-5644936D01*
X5134467Y-5644936D02*
X5124944Y-5654460D01*
X5124944Y-5654460D02*
X5105896Y-5663984D01*
X5105896Y-5663984D02*
X5067801Y-5663984D01*
X5067801Y-5663984D02*
X5048753Y-5654460D01*
X5229705Y-5644936D02*
X5239229Y-5654460D01*
X5239229Y-5654460D02*
X5229705Y-5663984D01*
X5229705Y-5663984D02*
X5220182Y-5654460D01*
X5220182Y-5654460D02*
X5229705Y-5644936D01*
X5229705Y-5644936D02*
X5229705Y-5663984D01*
X5229705Y-5540174D02*
X5239229Y-5549698D01*
X5239229Y-5549698D02*
X5229705Y-5559222D01*
X5229705Y-5559222D02*
X5220182Y-5549698D01*
X5220182Y-5549698D02*
X5229705Y-5540174D01*
X5229705Y-5540174D02*
X5229705Y-5559222D01*
M02*
